<?xml version="1.0" encoding="utf-8"?>
<!-- Generator: Adobe Illustrator 24.2.3, SVG Export Plug-In . SVG Version: 6.00 Build 0)  -->
<svg version="1.1" id="Слой_1" xmlns="http://www.w3.org/2000/svg" xmlns:xlink="http://www.w3.org/1999/xlink" x="0px" y="0px"
	 width="711px" height="721px" viewBox="0 0 711 721" style="enable-background:new 0 0 711 721;" xml:space="preserve">
<style type="text/css">
	.st0{fill:url(#SVGID_1_);}
	.st1{fill:url(#SVGID_2_);}
	.st2{fill:url(#SVGID_3_);}
	.st3{fill:url(#SVGID_4_);}
	.st4{fill:url(#SVGID_5_);}
	.st5{fill:url(#SVGID_6_);}
</style>
<radialGradient id="SVGID_1_" cx="542.4501343" cy="-129.3781281" r="858.2042236" gradientTransform="matrix(1.0084345 0 0 1 -4.9485235 0)" gradientUnits="userSpaceOnUse">
	<stop  offset="0" style="stop-color:#FF9A9E"/>
	<stop  offset="0.99" style="stop-color:#FAD0C4"/>
	<stop  offset="1" style="stop-color:#FAD0C4"/>
</radialGradient>
<path class="st0" d="M647.9123535,583.1150513c-20.5855103,0.3435059-40.6882935,3.8301392-60.9523315,7.8850098
	C627.574585,629.385498,666.3638306,665.0558472,711,689.2424316V589.0977173
	C689.7908936,585.3114014,668.6624146,582.7687988,647.9123535,583.1150513z"/>
<radialGradient id="SVGID_2_" cx="280.6868286" cy="149.0846252" r="512.0901489" gradientUnits="userSpaceOnUse">
	<stop  offset="0" style="stop-color:#667EEA"/>
	<stop  offset="1" style="stop-color:#764BA2"/>
</radialGradient>
<path class="st1" d="M214.2756958,167.9000244C232.8939819,112.1679688,262.2280884,56.3172607,283.4298096,0H99.7942505
	C117.6824341,8.796814,136.9036255,14.8936157,156.5,17.5C268.914917,32.4517212,207.8677368,148.2084351,214.2756958,167.9000244z"
	/>
<radialGradient id="SVGID_3_" cx="197.4166107" cy="155.7549286" r="746.7935791" gradientUnits="userSpaceOnUse">
	<stop  offset="0.0153209" style="stop-color:#3F54D1"/>
	<stop  offset="0.401042" style="stop-color:#5280E2"/>
	<stop  offset="0.770833" style="stop-color:#15CDCB"/>
	<stop  offset="1" style="stop-color:#4FE0B5"/>
</radialGradient>
<path class="st2" d="M206.7299805,327.5880127c-18.1929932-53.1861572-10.2816772-106.1772461,7.4060669-159.2748413
	c-7.0661621,9.7178955-12.9014893,20.3977661-17.1190186,32.362793
	c-28.0670166,79.6290283-3.5130005,170.4390259,37.5180054,244.2290039
	c40.5999756,73.0140381,107.131958,131.6850586,186.315979,158.3170166
	c54.6168213,18.3695068,110.119873-0.0881958,166.8347168-11.5325928C559.9326172,565.2382813,531.4676514,537.6511841,500,512
	C400.4200439,430.8259888,248.3120117,449.151001,206.7299805,327.5880127z"/>
<radialGradient id="SVGID_4_" cx="272.6652832" cy="119.6216125" r="858.2919922" gradientUnits="userSpaceOnUse">
	<stop  offset="0.2387704" style="stop-color:#403C8F"/>
	<stop  offset="0.3217233" style="stop-color:#3B498F"/>
	<stop  offset="0.4749506" style="stop-color:#2E6B90"/>
	<stop  offset="0.6600723" style="stop-color:#1C9C92"/>
</radialGradient>
<path class="st3" d="M387.5410156,399.7080078c-105.1201782-37.3341064-184.4978638-112.1688843-173.2428589-231.6136475
	c-0.0535278,0.0733643-0.1087646,0.1453857-0.1621094,0.218811
	c-17.6877441,53.0975952-25.5990601,106.0886841-7.4060669,159.2748413C248.3120117,449.151001,400.4200439,430.8259888,500,512
	c31.4676514,25.6511841,59.9326172,53.2382813,87.68573,79.6893921c20.0945435-4.0548706,40.3409424-7.230896,60.7542725-7.5744019
	c20.5765381-0.3462524,41.5282593,2.1963501,62.5599976,5.982666v-52.3375854
	C634.3023682,548.5808716,560.1580811,461.0136719,387.5410156,399.7080078z"/>
<radialGradient id="SVGID_5_" cx="401.611908" cy="-1.4244719" r="331.9785156" gradientUnits="userSpaceOnUse">
	<stop  offset="0" style="stop-color:#6B4789"/>
	<stop  offset="1" style="stop-color:#713E7B"/>
</radialGradient>
<path class="st4" d="M374.4650269,47.9187012C390.8192139,33.5441895,405.2689819,16.8369751,419.4137573,0H283.4298096
	c-21.2017212,56.3172607-50.5358276,112.1679688-69.1541138,167.9000244
	c0.0106201,0.0325928,0.0193481,0.0678711,0.0303345,0.0999756c-0.0029907,0.0316772-0.0048828,0.0627441-0.0078735,0.0943604
	C251.838501,116.6789551,323.973877,92.2982178,374.4650269,47.9187012z"/>
<radialGradient id="SVGID_6_" cx="748.2653198" cy="-66.0074921" r="591.8807373" gradientUnits="userSpaceOnUse">
	<stop  offset="0" style="stop-color:#0B3468"/>
	<stop  offset="0.3292381" style="stop-color:#102E66"/>
	<stop  offset="0.7833227" style="stop-color:#1F1C62"/>
	<stop  offset="0.883216" style="stop-color:#231761"/>
</radialGradient>
<path class="st5" d="M387.5410156,399.7080078C560.1580811,461.0136719,634.3023682,548.8208008,711,538V0H419.4137573
	c-14.1447754,16.8369751-28.5945435,33.5441895-44.9487305,47.9187012
	C323.973877,92.2982178,251.838501,116.6789551,214.2981567,168.0943604
	C203.0431519,287.5391235,282.4208374,362.3739014,387.5410156,399.7080078z"/>
</svg>
