<svg width="100" height="100" viewBox="0 0 100 100" fill="none" xmlns="http://www.w3.org/2000/svg">
<path d="M50.0265 70.4298L46.3706 66.7057C44.0799 68.1728 41.8531 68.6598 39.5488 68.5687C37.0917 68.4716 34.5562 67.7131 31.8516 66.904L31.7785 66.8821C31.7784 66.8821 31.7784 66.8821 31.7784 66.8821C27.9369 65.7331 23.823 64.513 19.3065 64.8968C14.8393 65.2764 9.87607 67.2407 4.42415 72.6931L4.42412 72.6931C3.42086 73.6964 3.42042 75.3232 4.42412 76.3279C4.4242 76.328 4.42428 76.3281 4.42437 76.3282M50.0265 70.4298L4.42437 76.3282M50.0265 70.4298C42.9212 75.5439 36.2079 73.5736 30.3056 71.808L30.3055 71.8079L30.2127 71.7802C26.7729 70.7513 23.3458 69.7262 19.7394 70.0507C16.0379 70.3836 12.271 72.1158 8.0589 76.3279L8.05865 76.3282C7.05545 77.3321 5.429 77.3325 4.42437 76.3282M50.0265 70.4298L4.42437 76.3282" stroke="#E21414" stroke-width="2"/>
<path d="M81.9543 55.9546L86.2628 60.2632L81.1738 65.3542L79.627 63.8083C77.6251 65.8103 75.829 67.6072 74.9085 68.5278C68.3817 75.0538 58.2329 75.7412 50.9379 70.5985L46.2015 65.7736C41.278 58.5001 42.0321 48.5316 48.4723 42.0903C49.3929 41.1697 51.1899 39.3736 53.1918 37.3716L51.645 35.8248L56.7359 30.7347L61.0444 35.0443M81.9543 55.9546L93.0162 44.8934C94.3279 43.5816 94.3279 41.4565 93.0162 40.1456C91.7044 38.8339 89.5784 38.8348 88.2666 40.1456L77.2066 51.2068M81.9543 55.9546L77.2066 51.2068M77.2066 51.2068L65.7921 39.7921M65.7921 39.7921L76.854 28.7309C78.1657 27.4191 78.1657 25.294 76.854 23.9831C75.5422 22.6723 73.4181 22.6723 72.1063 23.9831L61.0444 35.0443M65.7921 39.7921L61.0444 35.0443" stroke="white" stroke-width="2"/>
</svg>
