<svg width="21" height="24" viewBox="0 0 21 24" fill="none" xmlns="http://www.w3.org/2000/svg">
<path d="M8.57032 20.5034C8.5703 20.3568 8.53802 20.2119 8.47578 20.0791C8.41353 19.9463 8.32284 19.8288 8.21014 19.735C8.09743 19.6412 7.96546 19.5733 7.82359 19.5361C7.68171 19.499 7.53341 19.4935 7.38917 19.52C6.08009 19.7603 4.42726 19.7964 3.9878 18.562C3.60461 17.606 2.96987 16.7715 2.15089 16.147C2.09246 16.1152 2.03677 16.0787 1.98439 16.0376C1.91272 15.8486 1.7854 15.6857 1.61925 15.5704C1.45311 15.4552 1.25592 15.393 1.05372 15.3921H1.04884C0.784441 15.392 0.53077 15.4967 0.343354 15.6832C0.155937 15.8697 0.0500403 16.1229 0.0488421 16.3873C0.0449321 17.2027 0.859842 17.7251 1.19044 17.9019C1.58029 18.2936 1.89359 18.7546 2.11427 19.2613C2.47853 20.2847 3.53712 21.8374 6.58009 21.6373C6.58109 21.6724 6.58204 21.7056 6.58253 21.7359L6.58692 22.0035C6.58692 22.2687 6.69228 22.5231 6.87982 22.7106C7.06735 22.8981 7.32171 23.0035 7.58692 23.0035C7.85214 23.0035 8.10649 22.8981 8.29403 22.7106C8.48157 22.5231 8.58692 22.2687 8.58692 22.0035L8.58204 21.6851C8.57716 21.4956 8.57032 21.2212 8.57032 20.5034ZM19.2373 5.37743C19.2691 5.25243 19.3003 5.11376 19.3277 4.95751C19.4894 3.84309 19.3484 2.7057 18.9195 1.66451C18.8653 1.52877 18.7822 1.40651 18.6758 1.30631C18.5694 1.20611 18.4425 1.13038 18.3037 1.08444C17.9477 0.964317 16.6333 0.727987 14.1197 2.33444C12.0302 1.84273 9.85511 1.84273 7.76565 2.33444C5.26222 0.751517 3.9546 0.966316 3.60206 1.0796C3.45993 1.12368 3.32946 1.199 3.22021 1.30005C3.11097 1.40111 3.02572 1.52532 2.97071 1.6636C2.53301 2.72478 2.39355 3.88537 2.56739 5.02004C2.59181 5.14797 2.61817 5.26614 2.64552 5.37453C1.81709 6.47797 1.37583 7.82389 1.39015 9.20363C1.38745 9.51146 1.40163 9.81921 1.43263 10.1255C1.76663 14.728 4.76663 16.1099 6.85694 16.5845C6.81349 16.7095 6.77394 16.8433 6.73878 16.9849C6.67612 17.2422 6.71805 17.5138 6.85538 17.7403C6.99271 17.9667 7.21422 18.1294 7.47135 18.1928C7.72848 18.2561 8.00024 18.2149 8.22703 18.0782C8.45382 17.9414 8.61714 17.7204 8.68116 17.4634C8.74479 17.1302 8.90788 16.8241 9.14894 16.5855C9.2947 16.4579 9.40023 16.2906 9.4527 16.1042C9.50516 15.9177 9.50231 15.72 9.44447 15.5351C9.38663 15.3502 9.27631 15.1861 9.12693 15.0628C8.97754 14.9394 8.79554 14.8621 8.60304 14.8403C5.14894 14.4458 3.64942 13.0386 3.42384 9.94192C3.39885 9.69664 3.38761 9.45017 3.39015 9.20364C3.37411 8.22029 3.69898 7.26171 4.30958 6.49075C4.37093 6.41037 4.43628 6.33312 4.50538 6.2593C4.62781 6.1223 4.71013 5.95422 4.7433 5.7735C4.77646 5.59279 4.75919 5.40643 4.69338 5.23489C4.62592 5.05442 4.57397 4.86852 4.53811 4.67922C4.45664 4.14093 4.48337 3.59181 4.61671 3.06398C5.48585 3.30945 6.30383 3.70902 7.03171 4.24366C7.15208 4.32383 7.28828 4.37718 7.43108 4.4001C7.57388 4.42302 7.71994 4.41496 7.85935 4.37648C9.88046 3.82798 12.0113 3.82832 14.0322 4.37748C14.1724 4.41592 14.3192 4.42351 14.4626 4.39974C14.606 4.37597 14.7425 4.3214 14.8628 4.23979C15.5872 3.70292 16.4018 3.29978 17.268 3.04936C17.4008 3.56451 17.4305 4.10081 17.3554 4.62748C17.3192 4.83501 17.2626 5.03847 17.1865 5.23491C17.1207 5.40645 17.1034 5.59281 17.1366 5.77352C17.1697 5.95424 17.2521 6.12232 17.3745 6.25932C17.4516 6.34623 17.5288 6.43998 17.5981 6.52787C18.2044 7.28578 18.5238 8.23334 18.5 9.20363C18.5018 9.46323 18.4893 9.72274 18.4624 9.98097C18.2422 13.0366 16.7368 14.4448 13.2666 14.8403C13.0741 14.8623 12.892 14.9397 12.7427 15.0631C12.5933 15.1866 12.483 15.3508 12.4253 15.5358C12.3675 15.7207 12.3647 15.9185 12.4172 16.105C12.4698 16.2916 12.5754 16.4588 12.7212 16.5864C12.9698 16.8315 13.1333 17.1498 13.1875 17.4946C13.2551 17.7623 13.2861 18.038 13.2798 18.314V20.648C13.27 21.2954 13.27 21.7808 13.27 22.0034C13.27 22.2686 13.3754 22.523 13.5629 22.7105C13.7504 22.8981 14.0048 23.0034 14.27 23.0034C14.5352 23.0034 14.7896 22.8981 14.9771 22.7105C15.1647 22.523 15.27 22.2686 15.27 22.0034C15.27 21.7866 15.27 21.311 15.2798 20.6636V18.314C15.2878 17.8718 15.2358 17.4306 15.125 17.0024C15.0933 16.8619 15.0545 16.7231 15.0088 16.5864C16.53 16.3337 17.9123 15.5494 18.9094 14.3731C19.9065 13.1967 20.4539 11.7047 20.4541 10.1626C20.487 9.84404 20.5024 9.52389 20.5 9.20363C20.5222 7.8224 20.0773 6.47415 19.2373 5.37745L19.2373 5.37743Z" fill="#15CDCB"/>
</svg>
