<svg width="132" height="94" viewBox="0 0 132 94" fill="none" xmlns="http://www.w3.org/2000/svg">
<g clip-path="url(#clip0)">
<g filter="url(#filter0_d)">
<path d="M120.233 68.4483V20C120.233 15.0294 116.204 11 111.233 11L22.0004 11C17.0298 11 13.0004 15.0294 13.0004 20V68.4483C13.0004 73.4189 17.0298 77.4483 22.0004 77.4483H111.233C116.204 77.4483 120.233 73.4189 120.233 68.4483Z" fill="#0B0A8C"/>
<path d="M111.233 8.00001L22 8C17.0294 8 13 12.0294 13 17V30.6207H120.233V17C120.233 12.0294 116.203 8.00001 111.233 8.00001Z" fill="#0907CF"/>
<path d="M28.2549 66.3577V50.2494L39.0829 39.175L44.0047 44.2089V39.175H44.3738H47.8191H48.1882V48.4876L49.9109 50.2494V66.3577H42.2422H40.8055V57.2857C41.6935 56.7044 42.2821 55.6866 42.2821 54.5282C42.2821 52.7211 40.8497 51.2562 39.0829 51.2562C37.316 51.2562 35.8837 52.7211 35.8837 54.5282C35.8837 55.6866 36.4722 56.7044 37.3602 57.2857V66.3577H35.9236H28.2549Z" fill="#F4440D"/>
<path d="M56.3339 53.6391C56.2848 53.6391 56.2417 53.6202 56.2049 53.5825C56.1803 53.5448 56.168 53.4945 56.168 53.4316V41.4923C56.168 41.4294 56.1803 41.3791 56.2049 41.3414C56.2417 41.3037 56.2848 41.2848 56.3339 41.2848H58.5654C59.7088 41.2848 60.5448 41.6117 61.0735 42.2656C61.6144 42.9069 61.8849 43.9003 61.8849 45.2457C61.8849 46.5283 61.6083 47.5091 61.055 48.1881C60.5018 48.8671 59.7026 49.2066 58.6576 49.2066H58.0859V53.4316C58.0859 53.4945 58.0675 53.5448 58.0306 53.5825C58.006 53.6202 57.9691 53.6391 57.9199 53.6391H56.3339ZM58.5654 47.3959C59.0449 47.3959 59.3953 47.2262 59.6166 46.8867C59.8502 46.5472 59.967 46.0127 59.967 45.2834C59.967 44.4913 59.8625 43.9254 59.6535 43.5859C59.4445 43.2464 59.1002 43.0766 58.6207 43.0766H58.0859V47.3959H58.5654Z" fill="white"/>
<path d="M63.8027 53.6391C63.7535 53.6391 63.7105 53.6202 63.6736 53.5825C63.649 53.5448 63.6367 53.4945 63.6367 53.4316V41.4923C63.6367 41.4294 63.649 41.3791 63.6736 41.3414C63.7105 41.3037 63.7535 41.2848 63.8027 41.2848H66.2554C67.4111 41.2848 68.2533 41.574 68.782 42.1524C69.3229 42.7183 69.5934 43.6048 69.5934 44.8119C69.5934 46.5849 69.1201 47.7103 68.1734 48.1881V48.207L70.036 53.375C70.0483 53.4002 70.0544 53.4379 70.0544 53.4882C70.0544 53.5888 70.0053 53.6391 69.9069 53.6391H68.1918C68.0935 53.6391 68.0258 53.5888 67.989 53.4882L66.3476 48.5842H65.5546V53.4316C65.5546 53.4945 65.5362 53.5448 65.4993 53.5825C65.4747 53.6202 65.4378 53.6391 65.3887 53.6391H63.8027ZM66.2554 46.8867C66.7595 46.8867 67.1222 46.7295 67.3435 46.4151C67.5648 46.1008 67.6754 45.6104 67.6754 44.9439C67.6754 44.2775 67.5586 43.806 67.3251 43.5293C67.1038 43.2401 66.7472 43.0955 66.2554 43.0955H65.5546V46.8867H66.2554Z" fill="white"/>
<path d="M71.8301 53.6391C71.7809 53.6391 71.7379 53.6202 71.701 53.5825C71.6764 53.5448 71.6641 53.4945 71.6641 53.4316V41.4923C71.6641 41.4294 71.6764 41.3791 71.701 41.3414C71.7379 41.3037 71.7809 41.2848 71.8301 41.2848H73.4161C73.4653 41.2848 73.5021 41.3037 73.5267 41.3414C73.5636 41.3791 73.5821 41.4294 73.5821 41.4923V53.4316C73.5821 53.4945 73.5636 53.5448 73.5267 53.5825C73.5021 53.6202 73.4653 53.6391 73.4161 53.6391H71.8301Z" fill="white"/>
<path d="M77.5736 53.6391C77.4875 53.6391 77.4322 53.5825 77.4076 53.4693L75.084 41.53V41.4546C75.084 41.3414 75.127 41.2848 75.2131 41.2848H76.9466C77.0449 41.2848 77.1064 41.3351 77.131 41.4357L78.3113 48.9048C78.4465 49.7096 78.5633 50.6087 78.6617 51.602H78.6986C78.7846 50.7721 78.9076 49.8731 79.0674 48.9048L80.2292 41.4546C80.2538 41.3414 80.3153 41.2848 80.4136 41.2848H82.1287C82.264 41.2848 82.3132 41.3602 82.2763 41.5111L79.971 53.4693C79.9588 53.5825 79.9034 53.6391 79.8051 53.6391H77.5736Z" fill="white"/>
<path d="M89.7617 53.4882C89.7617 53.5888 89.7126 53.6391 89.6142 53.6391H87.8807C87.7823 53.6391 87.7208 53.5888 87.6963 53.4882L87.2905 50.9419H84.8747L84.4505 53.4693C84.4382 53.5825 84.3767 53.6391 84.2661 53.6391H82.5694C82.4588 53.6391 82.4158 53.5636 82.4403 53.4127L84.8378 41.4546C84.8747 41.3414 84.9484 41.2848 85.0591 41.2848H87.1246C87.2475 41.2848 87.3151 41.3414 87.3274 41.4546L89.7433 53.3939L89.7617 53.4882ZM87.0139 49.2444L86.4791 45.9436C86.3193 45.0005 86.1902 44.1329 86.0918 43.3407H86.0549C85.9197 44.4472 85.7968 45.3149 85.6861 45.9436L85.1513 49.2444H87.0139Z" fill="white"/>
<path d="M94.0911 53.7522C91.8781 53.7522 90.7715 52.4005 90.7715 49.697V45.2269C90.7715 43.8814 91.0543 42.8692 91.6199 42.1902C92.1854 41.5111 93.0092 41.1716 94.0911 41.1716C95.1115 41.1716 95.9045 41.486 96.4701 42.1147C97.0356 42.7308 97.3184 43.5796 97.3184 44.661C97.3184 44.9251 97.2999 45.1891 97.2631 45.4532C97.2385 45.5915 97.1831 45.6607 97.0971 45.6607H95.5111C95.3759 45.6607 95.3205 45.5852 95.3451 45.4343C95.3574 45.3086 95.3636 45.1263 95.3636 44.8873C95.3636 43.6173 94.9394 42.9823 94.0911 42.9823C93.6116 42.9823 93.255 43.1647 93.0214 43.5293C92.8002 43.894 92.6895 44.485 92.6895 45.3023V49.6027C92.6895 50.4326 92.8002 51.0299 93.0214 51.3946C93.255 51.7592 93.6116 51.9415 94.0911 51.9415C94.9517 51.9415 95.382 51.3003 95.382 50.0177C95.382 49.7913 95.3759 49.6153 95.3636 49.4896C95.3636 49.3387 95.4189 49.2632 95.5295 49.2632H97.0786C97.2016 49.2632 97.2692 49.3387 97.2815 49.4896C97.2938 49.6153 97.2999 49.8039 97.2999 50.0554C97.2999 51.2248 97.0233 52.1364 96.4701 52.7903C95.9291 53.4316 95.1361 53.7522 94.0911 53.7522Z" fill="white"/>
<path d="M101.028 53.6391C100.978 53.6391 100.935 53.6202 100.899 53.5825C100.874 53.5448 100.862 53.4945 100.862 53.4316V49.3952L98.3719 41.5489C98.3597 41.5237 98.3535 41.486 98.3535 41.4357C98.3535 41.3351 98.3965 41.2848 98.4826 41.2848H100.272C100.382 41.2848 100.444 41.3351 100.456 41.4357L101.323 45.076C101.397 45.3777 101.446 45.6041 101.47 45.755C101.532 46.019 101.649 46.5346 101.821 47.3016H101.839C101.925 46.8615 102.097 46.1133 102.355 45.0571L103.222 41.4357C103.235 41.3351 103.29 41.2848 103.388 41.2848H105.14C105.202 41.2848 105.245 41.3099 105.269 41.3602C105.294 41.4105 105.294 41.4734 105.269 41.5489L102.78 49.3764V53.4316C102.78 53.4945 102.767 53.5448 102.743 53.5825C102.718 53.6202 102.681 53.6391 102.632 53.6391H101.028Z" fill="white"/>
<path d="M59.6631 66.3867C59.6631 66.4458 59.6342 66.4753 59.5764 66.4753H58.5586C58.5008 66.4753 58.4648 66.4458 58.4503 66.3867L58.2121 64.8917H56.7936L56.5446 66.3757C56.5374 66.4421 56.5013 66.4753 56.4363 66.4753H55.4401C55.3752 66.4753 55.3499 66.431 55.3643 66.3424L56.772 59.3213C56.7936 59.2548 56.8369 59.2216 56.9019 59.2216H58.1147C58.1868 59.2216 58.2265 59.2548 58.2338 59.3213L59.6522 66.3314L59.6631 66.3867ZM58.0497 63.895L57.7357 61.957C57.6418 61.4032 57.566 60.8938 57.5083 60.4287H57.4866C57.4072 61.0784 57.335 61.5878 57.2701 61.957L56.9561 63.895H58.0497Z" fill="white"/>
<path d="M62.204 66.5418C60.9046 66.5418 60.2549 65.7481 60.2549 64.1608V61.5361C60.2549 60.7462 60.421 60.1518 60.753 59.7532C61.0851 59.3545 61.5687 59.1551 62.204 59.1551C62.8031 59.1551 63.2687 59.3397 63.6008 59.7089C63.9328 60.0706 64.0989 60.569 64.0989 61.2039C64.0989 61.3589 64.088 61.514 64.0664 61.669C64.052 61.7502 64.0195 61.7908 63.9689 61.7908H63.0377C62.9583 61.7908 62.9258 61.7466 62.9403 61.658C62.9475 61.5841 62.9511 61.4771 62.9511 61.3368C62.9511 60.5911 62.7021 60.2183 62.204 60.2183C61.9225 60.2183 61.7131 60.3253 61.576 60.5394C61.446 60.7535 61.3811 61.1005 61.3811 61.5804V64.1054C61.3811 64.5927 61.446 64.9434 61.576 65.1575C61.7131 65.3716 61.9225 65.4786 62.204 65.4786C62.7093 65.4786 62.9619 65.1021 62.9619 64.349C62.9619 64.2161 62.9583 64.1128 62.9511 64.039C62.9511 63.9504 62.9836 63.9061 63.0486 63.9061H63.9581C64.0303 63.9061 64.07 63.9504 64.0772 64.039C64.0844 64.1128 64.088 64.2235 64.088 64.3712C64.088 65.0578 63.9256 65.5931 63.6008 65.977C63.2832 66.3535 62.8176 66.5418 62.204 66.5418Z" fill="white"/>
<path d="M67.0546 66.5418C65.7552 66.5418 65.1055 65.7481 65.1055 64.1608V61.5361C65.1055 60.7462 65.2716 60.1518 65.6036 59.7532C65.9357 59.3545 66.4193 59.1551 67.0546 59.1551C67.6537 59.1551 68.1193 59.3397 68.4514 59.7089C68.7834 60.0706 68.9495 60.569 68.9495 61.2039C68.9495 61.3589 68.9386 61.514 68.917 61.669C68.9025 61.7502 68.8701 61.7908 68.8195 61.7908H67.8883C67.8089 61.7908 67.7764 61.7466 67.7909 61.658C67.7981 61.5841 67.8017 61.4771 67.8017 61.3368C67.8017 60.5911 67.5527 60.2183 67.0546 60.2183C66.773 60.2183 66.5637 60.3253 66.4266 60.5394C66.2966 60.7535 66.2316 61.1005 66.2316 61.5804V64.1054C66.2316 64.5927 66.2966 64.9434 66.4266 65.1575C66.5637 65.3716 66.773 65.4786 67.0546 65.4786C67.5599 65.4786 67.8125 65.1021 67.8125 64.349C67.8125 64.2161 67.8089 64.1128 67.8017 64.039C67.8017 63.9504 67.8342 63.9061 67.8992 63.9061H68.8087C68.8809 63.9061 68.9206 63.9504 68.9278 64.039C68.935 64.1128 68.9386 64.2235 68.9386 64.3712C68.9386 65.0578 68.7762 65.5931 68.4514 65.977C68.1338 66.3535 67.6682 66.5418 67.0546 66.5418Z" fill="white"/>
<path d="M70.205 66.4753C70.1761 66.4753 70.1508 66.4642 70.1292 66.4421C70.1075 66.42 70.0967 66.3904 70.0967 66.3535V59.3434C70.0967 59.3065 70.1039 59.277 70.1183 59.2548C70.14 59.2327 70.1653 59.2216 70.1941 59.2216H73.0311C73.096 59.2216 73.1285 59.2622 73.1285 59.3434V60.1518C73.1285 60.2404 73.096 60.2847 73.0311 60.2847H71.2228V62.2892H72.8686C72.9336 62.2892 72.9661 62.3298 72.9661 62.411V63.1751C72.9661 63.2564 72.9336 63.297 72.8686 63.297H71.2228V65.4122H73.0311C73.096 65.4122 73.1285 65.4565 73.1285 65.5451V66.3535C73.1285 66.4347 73.096 66.4753 73.0311 66.4753H70.205Z" fill="white"/>
<path d="M74.41 66.4753C74.3812 66.4753 74.3559 66.4642 74.3342 66.4421C74.3126 66.42 74.3018 66.3904 74.3018 66.3535V59.3434C74.3018 59.2622 74.3378 59.2216 74.41 59.2216H75.3196C75.3485 59.2216 75.3737 59.2327 75.3954 59.2548C75.417 59.277 75.4279 59.3065 75.4279 59.3434V65.4122H77.117C77.1892 65.4122 77.2253 65.4565 77.2253 65.5451V66.3535C77.2253 66.4347 77.1892 66.4753 77.117 66.4753H74.41Z" fill="white"/>
<path d="M78.2665 66.4753C78.2376 66.4753 78.2123 66.4642 78.1907 66.4421C78.169 66.42 78.1582 66.3904 78.1582 66.3535V59.3434C78.1582 59.3065 78.1654 59.277 78.1798 59.2548C78.2015 59.2327 78.2267 59.2216 78.2556 59.2216H81.0926C81.1575 59.2216 81.19 59.2622 81.19 59.3434V60.1518C81.19 60.2404 81.1575 60.2847 81.0926 60.2847H79.2843V62.2892H80.9301C80.9951 62.2892 81.0276 62.3298 81.0276 62.411V63.1751C81.0276 63.2564 80.9951 63.297 80.9301 63.297H79.2843V65.4122H81.0926C81.1575 65.4122 81.19 65.4565 81.19 65.5451V66.3535C81.19 66.4347 81.1575 66.4753 81.0926 66.4753H78.2665Z" fill="white"/>
<path d="M82.4618 66.4753C82.4329 66.4753 82.4077 66.4642 82.386 66.4421C82.3716 66.42 82.3643 66.3904 82.3643 66.3535V59.3434C82.3643 59.3065 82.3716 59.277 82.386 59.2548C82.4077 59.2327 82.4329 59.2216 82.4618 59.2216H83.9019C84.5805 59.2216 85.0749 59.3914 85.3853 59.731C85.703 60.0632 85.8618 60.5837 85.8618 61.2925C85.8618 62.3335 85.5839 62.9943 85.028 63.2748V63.2859L86.1217 66.3203C86.1289 66.335 86.1325 66.3572 86.1325 66.3867C86.1325 66.4458 86.1036 66.4753 86.0459 66.4753H85.0389C84.9811 66.4753 84.9414 66.4458 84.9197 66.3867L83.9561 63.5074H83.4905V66.3535C83.4905 66.3904 83.4796 66.42 83.458 66.4421C83.4435 66.4642 83.4219 66.4753 83.393 66.4753H82.4618ZM83.9019 62.5107C84.1979 62.5107 84.4108 62.4184 84.5408 62.2338C84.6707 62.0493 84.7357 61.7613 84.7357 61.37C84.7357 60.9787 84.6671 60.7019 84.5299 60.5394C84.4 60.3696 84.1907 60.2847 83.9019 60.2847H83.4905V62.5107H83.9019Z" fill="white"/>
<path d="M90.91 66.3867C90.91 66.4458 90.8812 66.4753 90.8235 66.4753H89.8056C89.7478 66.4753 89.7117 66.4458 89.6973 66.3867L89.4591 64.8917H88.0406L87.7916 66.3757C87.7843 66.4421 87.7483 66.4753 87.6833 66.4753H86.6871C86.6221 66.4753 86.5969 66.431 86.6113 66.3424L88.019 59.3213C88.0406 59.2548 88.084 59.2216 88.149 59.2216H89.3617C89.4339 59.2216 89.4735 59.2548 89.4807 59.3213L90.8993 66.3314L90.91 66.3867ZM89.2968 63.895L88.9826 61.957C88.8888 61.4032 88.8131 60.8938 88.7554 60.4287H88.7336C88.6542 61.0784 88.582 61.5878 88.517 61.957L88.2031 63.895H89.2968Z" fill="white"/>
<path d="M92.2574 66.4753C92.1924 66.4753 92.1599 66.4347 92.1599 66.3535V60.2847H91.0555C90.9905 60.2847 90.958 60.2404 90.958 60.1518V59.3434C90.958 59.2622 90.9905 59.2216 91.0555 59.2216H94.3797C94.4518 59.2216 94.4879 59.2622 94.4879 59.3434V60.1518C94.4879 60.2404 94.4518 60.2847 94.3797 60.2847H93.286V66.3535C93.286 66.4347 93.2535 66.4753 93.1886 66.4753H92.2574Z" fill="white"/>
<path d="M97.1599 66.5418C96.5247 66.5418 96.041 66.3535 95.709 65.977C95.3769 65.5931 95.2109 65.0283 95.2109 64.2826V61.4365C95.2109 60.676 95.3769 60.1075 95.709 59.731C96.041 59.3471 96.5247 59.1551 97.1599 59.1551C97.7952 59.1551 98.2788 59.3471 98.6109 59.731C98.9429 60.1075 99.109 60.676 99.109 61.4365V64.2826C99.109 65.0283 98.9429 65.5931 98.6109 65.977C98.2788 66.3535 97.7952 66.5418 97.1599 66.5418ZM97.1599 65.4786C97.4415 65.4786 97.6472 65.379 97.7771 65.1796C97.9143 64.9803 97.9829 64.6628 97.9829 64.2272V61.4918C97.9829 61.0415 97.9143 60.7166 97.7771 60.5173C97.6472 60.318 97.4415 60.2183 97.1599 60.2183C96.8784 60.2183 96.6691 60.318 96.5319 60.5173C96.402 60.7166 96.337 61.0415 96.337 61.4918V64.2272C96.337 64.6628 96.402 64.9803 96.5319 65.1796C96.6691 65.379 96.8784 65.4786 97.1599 65.4786Z" fill="white"/>
<path d="M100.362 66.4753C100.333 66.4753 100.308 66.4642 100.286 66.4421C100.272 66.42 100.265 66.3904 100.265 66.3535V59.3434C100.265 59.3065 100.272 59.277 100.286 59.2548C100.308 59.2327 100.333 59.2216 100.362 59.2216H101.802C102.481 59.2216 102.975 59.3914 103.286 59.731C103.603 60.0632 103.762 60.5837 103.762 61.2925C103.762 62.3335 103.484 62.9943 102.928 63.2748V63.2859L104.022 66.3203C104.029 66.335 104.033 66.3572 104.033 66.3867C104.033 66.4458 104.004 66.4753 103.946 66.4753H102.939C102.882 66.4753 102.842 66.4458 102.82 66.3867L101.856 63.5074H101.391V66.3535C101.391 66.3904 101.38 66.42 101.358 66.4421C101.344 66.4642 101.322 66.4753 101.293 66.4753H100.362ZM101.802 62.5107C102.098 62.5107 102.311 62.4184 102.441 62.2338C102.571 62.0493 102.636 61.7613 102.636 61.37C102.636 60.9787 102.568 60.7019 102.43 60.5394C102.3 60.3696 102.091 60.2847 101.802 60.2847H101.391V62.5107H101.802Z" fill="white"/>
</g>
<path d="M35.3281 20.746V24.166C34.4681 24.786 33.4681 25.096 32.3281 25.096C31.6281 25.096 30.9941 24.988 30.4261 24.772C29.8621 24.552 29.3801 24.248 28.9801 23.86C28.5801 23.468 28.2721 23.002 28.0561 22.462C27.8401 21.922 27.7321 21.328 27.7321 20.68C27.7321 20.028 27.8361 19.432 28.0441 18.892C28.2521 18.348 28.5501 17.882 28.9381 17.494C29.3261 17.102 29.7941 16.8 30.3421 16.588C30.8901 16.372 31.5061 16.264 32.1901 16.264C32.5381 16.264 32.8601 16.292 33.1561 16.348C33.4561 16.4 33.7341 16.474 33.9901 16.57C34.2461 16.666 34.4821 16.782 34.6981 16.918C34.9141 17.054 35.1121 17.206 35.2921 17.374L34.8901 18.016C34.8261 18.116 34.7441 18.178 34.6441 18.202C34.5441 18.226 34.4361 18.202 34.3201 18.13C34.2041 18.062 34.0801 17.99 33.9481 17.914C33.8201 17.838 33.6721 17.768 33.5041 17.704C33.3361 17.636 33.1421 17.582 32.9221 17.542C32.7021 17.498 32.4421 17.476 32.1421 17.476C31.6861 17.476 31.2741 17.552 30.9061 17.704C30.5421 17.852 30.2301 18.066 29.9701 18.346C29.7101 18.622 29.5101 18.958 29.3701 19.354C29.2301 19.75 29.1601 20.192 29.1601 20.68C29.1601 21.196 29.2341 21.658 29.3821 22.066C29.5301 22.47 29.7401 22.814 30.0121 23.098C30.2841 23.378 30.6121 23.592 30.9961 23.74C31.3841 23.888 31.8161 23.962 32.2921 23.962C32.6481 23.962 32.9641 23.924 33.2401 23.848C33.5201 23.772 33.7941 23.666 34.0621 23.53V21.814H32.8561C32.7641 21.814 32.6921 21.79 32.6401 21.742C32.5881 21.69 32.5621 21.624 32.5621 21.544V20.746H35.3281ZM41.5926 20.5C41.9126 20.5 42.1926 20.462 42.4326 20.386C42.6726 20.306 42.8726 20.196 43.0326 20.056C43.1926 19.916 43.3126 19.75 43.3926 19.558C43.4726 19.362 43.5126 19.146 43.5126 18.91C43.5126 18.438 43.3566 18.078 43.0446 17.83C42.7326 17.582 42.2606 17.458 41.6286 17.458H40.4886V20.5H41.5926ZM45.6606 25H44.4066C44.1586 25 43.9786 24.904 43.8666 24.712L41.8506 21.802C41.7826 21.702 41.7086 21.63 41.6286 21.586C41.5486 21.542 41.4286 21.52 41.2686 21.52H40.4886V25H39.0846V16.36H41.6286C42.1966 16.36 42.6846 16.418 43.0926 16.534C43.5046 16.65 43.8426 16.816 44.1066 17.032C44.3706 17.244 44.5646 17.5 44.6886 17.8C44.8166 18.1 44.8806 18.434 44.8806 18.802C44.8806 19.102 44.8346 19.382 44.7426 19.642C44.6546 19.902 44.5246 20.138 44.3526 20.35C44.1846 20.562 43.9766 20.746 43.7286 20.902C43.4806 21.058 43.1986 21.18 42.8826 21.268C43.0546 21.372 43.2026 21.518 43.3266 21.706L45.6606 25ZM53.3738 21.76L52.1858 18.604C52.0898 18.36 51.9918 18.05 51.8918 17.674C51.8478 17.862 51.7998 18.036 51.7478 18.196C51.6958 18.352 51.6478 18.49 51.6038 18.61L50.4158 21.76H53.3738ZM56.0318 25H54.9458C54.8218 25 54.7218 24.97 54.6458 24.91C54.5698 24.846 54.5118 24.768 54.4718 24.676L53.7518 22.768H50.0318L49.3118 24.676C49.2798 24.756 49.2238 24.83 49.1438 24.898C49.0638 24.966 48.9638 25 48.8438 25H47.7578L51.1838 16.36H52.6058L56.0318 25ZM66.7241 20.68C66.7241 21.32 66.6201 21.906 66.4121 22.438C66.2041 22.966 65.9101 23.42 65.5301 23.8C65.1541 24.18 64.7001 24.476 64.1681 24.688C63.6401 24.896 63.0521 25 62.4041 25H59.1401V16.36H62.4041C63.0521 16.36 63.6401 16.466 64.1681 16.678C64.7001 16.886 65.1541 17.18 65.5301 17.56C65.9101 17.94 66.2041 18.396 66.4121 18.928C66.6201 19.456 66.7241 20.04 66.7241 20.68ZM65.2901 20.68C65.2901 20.184 65.2221 19.738 65.0861 19.342C64.9541 18.946 64.7621 18.612 64.5101 18.34C64.2621 18.068 63.9601 17.86 63.6041 17.716C63.2481 17.568 62.8481 17.494 62.4041 17.494H60.5501V23.866H62.4041C62.8481 23.866 63.2481 23.794 63.6041 23.65C63.9601 23.506 64.2621 23.298 64.5101 23.026C64.7621 22.75 64.9541 22.416 65.0861 22.024C65.2221 21.628 65.2901 21.18 65.2901 20.68ZM73.777 23.866C74.109 23.866 74.405 23.81 74.665 23.698C74.929 23.586 75.151 23.43 75.331 23.23C75.515 23.03 75.655 22.79 75.751 22.51C75.847 22.226 75.895 21.912 75.895 21.568V16.36H77.293V21.568C77.293 22.076 77.211 22.546 77.047 22.978C76.887 23.41 76.655 23.784 76.351 24.1C76.047 24.412 75.677 24.658 75.241 24.838C74.809 25.014 74.321 25.102 73.777 25.102C73.233 25.102 72.743 25.014 72.307 24.838C71.875 24.658 71.507 24.412 71.203 24.1C70.899 23.784 70.665 23.41 70.501 22.978C70.341 22.546 70.261 22.076 70.261 21.568V16.36H71.665V21.562C71.665 21.906 71.713 22.22 71.809 22.504C71.905 22.784 72.043 23.026 72.223 23.23C72.403 23.43 72.623 23.586 72.883 23.698C73.147 23.81 73.445 23.866 73.777 23.866ZM85.7128 21.76L84.5248 18.604C84.4288 18.36 84.3308 18.05 84.2308 17.674C84.1868 17.862 84.1388 18.036 84.0868 18.196C84.0348 18.352 83.9868 18.49 83.9428 18.61L82.7548 21.76H85.7128ZM88.3708 25H87.2848C87.1608 25 87.0608 24.97 86.9848 24.91C86.9088 24.846 86.8508 24.768 86.8108 24.676L86.0908 22.768H82.3708L81.6508 24.676C81.6188 24.756 81.5628 24.83 81.4828 24.898C81.4028 24.966 81.3028 25 81.1828 25H80.0968L83.5228 16.36H84.9448L88.3708 25ZM96.5814 17.53H93.8874V25H92.4894V17.53H89.7894V16.36H96.5814V17.53ZM105.278 23.866L105.272 25H99.8838V16.36H105.272V17.494H101.294V20.098H104.474V21.196H101.294V23.866H105.278Z" fill="white"/>
</g>
<defs>
<filter id="filter0_d" x="1" y="0" width="131.233" height="93.4483" filterUnits="userSpaceOnUse" color-interpolation-filters="sRGB">
<feFlood flood-opacity="0" result="BackgroundImageFix"/>
<feColorMatrix in="SourceAlpha" type="matrix" values="0 0 0 0 0 0 0 0 0 0 0 0 0 0 0 0 0 0 127 0"/>
<feOffset dy="4"/>
<feGaussianBlur stdDeviation="6"/>
<feColorMatrix type="matrix" values="0 0 0 0 0 0 0 0 0 0 0 0 0 0 0 0 0 0 0.15 0"/>
<feBlend mode="normal" in2="BackgroundImageFix" result="effect1_dropShadow"/>
<feBlend mode="normal" in="SourceGraphic" in2="effect1_dropShadow" result="shape"/>
</filter>
<clipPath id="clip0">
<rect width="132" height="94" fill="white"/>
</clipPath>
</defs>
</svg>
