<svg width="100" height="100" viewBox="0 0 100 100" fill="none" xmlns="http://www.w3.org/2000/svg">
<path d="M36.4 50.1L31.5 79.5L45.55 56.75L40 57L49.5 34H43.5C42.9 34 42.3 33.7 41.9 33.2C41.5 32.7 41.4 32 41.6 31.4L50.2 12H35.2L20 48H34.4C35 48 35.5 48.2 35.9 48.6C36.2 49 36.4 49.5 36.4 50.1Z" stroke="#998A09" stroke-width="2"/>
<path d="M51.5 88.5L56.4 59.1C56.4 58.5 56.2 58 55.9 57.6C55.5 57.2 55 57 54.4 57H40L55.2 21H70.2L61.6 40.4C61.4 41 61.5 41.7 61.9 42.2C62.3 42.7 62.9 43 63.5 43H79.6L51.5 88.5Z" stroke="#FDE408" stroke-width="2"/>
</svg>
