<svg id="Слой_1" data-name="Слой 1" xmlns="http://www.w3.org/2000/svg" xmlns:xlink="http://www.w3.org/1999/xlink" viewBox="0 0 711 721"><defs><style>.cls-1{fill:none;}.cls-2{clip-path:url(#clip-path);}.cls-3{fill:url(#Безымянный_градиент_3);}.cls-4{fill:url(#Безымянный_градиент_4);}.cls-5{fill:url(#Безымянный_градиент_2);}.cls-6{fill:url(#Безымянный_градиент_61);}.cls-7{fill:url(#Безымянный_градиент_55);}.cls-8{fill:url(#Безымянный_градиент_68);}</style><clipPath id="clip-path"><rect class="cls-1" width="711" height="721"/></clipPath><radialGradient id="Безымянный_градиент_3" cx="280.69" cy="149.08" r="512.09" gradientUnits="userSpaceOnUse"><stop offset="0" stop-color="#667eea"/><stop offset="1" stop-color="#764ba2"/></radialGradient><radialGradient id="Безымянный_градиент_4" cx="543.07" cy="-128.38" r="858.29" gradientUnits="userSpaceOnUse"><stop offset="0" stop-color="#ff9a9e"/><stop offset="0.99" stop-color="#fad0c4"/><stop offset="1" stop-color="#fad0c4"/></radialGradient><radialGradient id="Безымянный_градиент_2" cx="197.42" cy="155.75" r="746.79" gradientUnits="userSpaceOnUse"><stop offset="0.02" stop-color="#3f54d1"/><stop offset="0.4" stop-color="#5280e2"/><stop offset="0.77" stop-color="#15cdcb"/><stop offset="1" stop-color="#4fe0b5"/></radialGradient><radialGradient id="Безымянный_градиент_61" cx="272.67" cy="119.62" r="858.29" gradientUnits="userSpaceOnUse"><stop offset="0.24" stop-color="#403c8f"/><stop offset="0.32" stop-color="#3b498f"/><stop offset="0.47" stop-color="#2e6b90"/><stop offset="0.66" stop-color="#1c9c92"/></radialGradient><radialGradient id="Безымянный_градиент_55" cx="401.61" cy="-1.42" r="331.98" gradientUnits="userSpaceOnUse"><stop offset="0" stop-color="#6b4789"/><stop offset="1" stop-color="#713e7b"/></radialGradient><radialGradient id="Безымянный_градиент_68" cx="748.27" cy="-65.98" r="591.62" gradientUnits="userSpaceOnUse"><stop offset="0" stop-color="#0b3468"/><stop offset="0.33" stop-color="#102e66"/><stop offset="0.78" stop-color="#1f1c62"/><stop offset="0.88" stop-color="#231761"/></radialGradient></defs><g class="cls-2"><path class="cls-3" d="M417-376.84c.71-.84,1.44-1.68,2.16-2.51C279-346.47,59.65-272.64,16.5-196.5-36.6-102.81,55,4,156.5,17.5c112.41,15,51.37,130.71,57.78,150.4,22.58-67.61,61-135.39,81.42-204C331.05-154.51,336.62-283,417-376.84Z"/><path class="cls-4" d="M1331.75-100.62c-67.73-92.15-175.93-132.91-262.54-207.61-106.29-91.67-162-264.24-301.58-278.93-137.85-14.5-257.84,102.34-348.46,207.81,34-8,63.29-13.54,84.33-16.15C608-408.47,672-297.45,755-232.77,835.51-170.11,896.9-79,905.75,20.48a293.76,293.76,0,0,1,42.82,43.16c58.92,73.54,104.5,161.44,103.41,255.67-1.18,101.19-25,219.62-109.58,275.14-84,55.14-193.47-12-294-10.34-20.41.35-40.66,3.52-60.75,7.58C662.52,663,732.18,726.07,841.5,720.5c149.91-7.63,188.83-96.13,305.13-191,115-93.88,323-93.54,364.84-236C1553.19,151.48,1419.4,18.63,1331.75-100.62Z"/><path class="cls-5" d="M206.73,327.59c-18.19-53.19-10.28-106.18,7.41-159.28A125.5,125.5,0,0,0,197,200.68C169,280.3,193.5,371.11,234.54,444.9c40.6,73,107.13,131.69,186.31,158.32,54.62,18.37,110.12-.09,166.84-11.53-27.76-26.45-56.22-54-87.69-79.69C400.42,430.83,248.31,449.15,206.73,327.59Z"/><path class="cls-6" d="M942.4,594.45c84.6-55.52,108.4-174,109.58-275.14,1.09-94.23-44.49-182.13-103.41-255.67a293.76,293.76,0,0,0-42.82-43.16A276,276,0,0,1,906,67.29C896.42,184.9,854.37,456.81,755,520.5c-96.41,61.82-162.54-48-367.5-120.79C282.42,362.37,203,287.54,214.3,168.09l-.16.22c-17.69,53.1-25.6,106.09-7.41,159.28C248.31,449.15,400.42,430.83,500,512c31.47,25.65,59.93,53.24,87.69,79.69,20.09-4.06,40.34-7.23,60.75-7.58C748.93,582.42,858.37,649.59,942.4,594.45Z"/><path class="cls-7" d="M214.3,168.09C251.84,116.68,324,92.3,374.47,47.92,427.57,1.24,460.6-70,528.27-90.48,599.64-112,674.86-89.71,744.85-64c57.78,21.18,114.49,46.3,160.9,84.52C896.9-79,835.51-170.11,755-232.77,672-297.45,608-408.47,503.5-395.5c-21,2.61-50.37,8.18-84.33,16.15-.72.83-1.45,1.67-2.16,2.51C336.62-283,331.05-154.51,295.7-36.07c-20.47,68.58-58.84,136.36-81.42,204l0,.1A.28.28,0,0,0,214.3,168.09Z"/><path class="cls-8" d="M528.27-90.48C460.6-70,427.57,1.24,374.47,47.92,324,92.3,251.84,116.68,214.3,168.09,203,287.54,282.42,362.37,387.54,399.71,592.5,472.5,658.63,582.32,755,520.5,854.37,456.81,896.42,184.9,906,67.29a276,276,0,0,0-.21-46.81C859.34-17.74,802.63-42.86,744.85-64,674.86-89.71,599.64-112,528.27-90.48Z"/></g></svg>