<svg width="929" height="860" viewBox="0 0 929 860" fill="none" xmlns="http://www.w3.org/2000/svg">
<path fill-rule="evenodd" clip-rule="evenodd" d="M1264.33 248.818C1281.2 401.285 1271.54 584.411 1170.69 685.591C1070.52 786.081 939.984 723.48 808.5 747C706.406 765.263 589.824 829.643 488.289 807.658C379.595 784.123 281.662 709.751 215.13 608.388C147.891 505.947 182.681 337.147 205 211.5C226.15 92.439 153.802 -9.00055 223 -101C284.15 -182.299 417.901 -213.423 502.934 -258.324C592.601 -305.673 695.316 -287.765 791.786 -263.764C898.087 -237.317 1003.16 -199.935 1082.19 -114.207C1172.85 -15.8716 1248.62 106.838 1264.33 248.818Z" fill="url(#paint0_linear)"/>
<path fill-rule="evenodd" clip-rule="evenodd" d="M842.478 -63.0551C931.967 21.9888 1047.84 168.943 1025.82 290.418C1003.77 412.105 875.133 666.413 764.977 722.626C658.052 777.189 600.377 655.837 394.087 558.824C288.257 509.055 213.15 422.801 237.237 299.322C243.05 240.391 337.917 179.795 254.204 95.141C112.936 -47.715 486.928 -255.903 596.852 -258.672C707.157 -261.451 762.494 -139.065 842.478 -63.0551Z" fill="url(#paint1_radial)"/>
<path fill-rule="evenodd" clip-rule="evenodd" d="M994.5 -3.00002C1066.47 54.2511 1015.2 112.486 1013.29 204.423C1011.36 296.667 1011.72 361.308 958.013 436.321C903.716 512.157 894.771 571.559 806.114 600.528C717.483 629.488 652.581 568.994 567.396 531.057C494.47 498.579 406.235 534.318 361.519 468.183C316.994 402.331 353.706 315.088 355.705 235.624C357.636 158.848 340.071 80.9051 373.006 11.5296C410.237 -66.8937 463.349 -157.803 549.051 -171.644C635.148 -185.549 696.629 -91.1215 775.289 -53.4392C839.38 -22.7361 938.885 -47.2436 994.5 -3.00002Z" fill="url(#paint2_radial)"/>
<path fill-rule="evenodd" clip-rule="evenodd" d="M596.568 457.66C547.239 455.159 489.932 441.298 464.465 398.978C439.173 356.946 474.013 304.851 475.102 255.808C475.947 217.727 456.575 180.047 470.117 144.446C484.613 106.334 514.495 75.0022 550.878 56.5917C587.648 37.9856 632.404 27.7391 670.706 42.9444C707 57.3526 717.213 102.083 741.829 132.397C763.582 159.185 797.711 176.651 806.399 210.047C815.562 245.263 803.233 281.524 789.382 315.173C774.119 352.252 755.477 388.268 723.229 412.098C686.239 439.434 642.503 459.99 596.568 457.66Z" fill="url(#paint3_linear)"/>
<defs>
<linearGradient id="paint0_linear" x1="826" y1="751" x2="176" y2="-32" gradientUnits="userSpaceOnUse">
<stop stop-color="#060E71"/>
<stop offset="1" stop-color="#090873"/>
</linearGradient>
<radialGradient id="paint1_radial" cx="0" cy="0" r="1" gradientUnits="userSpaceOnUse" gradientTransform="translate(453 14.5) rotate(55.142) scale(700.732 840.479)">
<stop stop-color="#0808C2"/>
<stop offset="1" stop-color="#030A8A"/>
</radialGradient>
<radialGradient id="paint2_radial" cx="0" cy="0" r="1" gradientUnits="userSpaceOnUse" gradientTransform="translate(522.5 68) rotate(57.3601) scale(559.925 617.487)">
<stop stop-color="#1107CE"/>
<stop offset="1" stop-color="#1208C5"/>
</radialGradient>
<linearGradient id="paint3_linear" x1="592.051" y1="459.351" x2="666.978" y2="40.2249" gradientUnits="userSpaceOnUse">
<stop stop-color="#0B10DF"/>
<stop offset="1" stop-color="#060BF2"/>
</linearGradient>
</defs>
</svg>
