<svg width="132" height="94" viewBox="0 0 132 94" fill="none" xmlns="http://www.w3.org/2000/svg">
<g filter="url(#filter0_d)">
<rect x="119.733" y="11" width="66.4483" height="107.233" rx="9" transform="rotate(90 119.733 11)" fill="#0B0A8C"/>
<path d="M110.733 8L21.5 7.99999C16.5294 7.99999 12.5 12.0294 12.5 17L12.5 30.6207L119.733 30.6207L119.733 17C119.733 12.0294 115.703 8 110.733 8Z" fill="#0907CF"/>
<path d="M27.7544 66.3577V50.2494L38.5824 39.175L43.5042 44.2089V39.175H43.8733H47.3186H47.6877V48.4876L49.4104 50.2494V66.3577H41.7417H40.305V57.2857C41.193 56.7044 41.7816 55.6866 41.7816 54.5282C41.7816 52.7211 40.3492 51.2562 38.5824 51.2562C36.8155 51.2562 35.3832 52.7211 35.3832 54.5282C35.3832 55.6866 35.9717 56.7044 36.8597 57.2857V66.3577H35.4231H27.7544Z" fill="#F4440D"/>
<path d="M55.8338 53.6391C55.7847 53.6391 55.7416 53.6202 55.7048 53.5825C55.6802 53.5448 55.6679 53.4945 55.6679 53.4316V41.4923C55.6679 41.4294 55.6802 41.3791 55.7048 41.3414C55.7416 41.3037 55.7847 41.2848 55.8338 41.2848H58.0653C59.2087 41.2848 60.0447 41.6117 60.5734 42.2656C61.1143 42.9069 61.3848 43.9003 61.3848 45.2457C61.3848 46.5283 61.1082 47.5091 60.5549 48.1881C60.0017 48.8671 59.2025 49.2066 58.1575 49.2066H57.5858V53.4316C57.5858 53.4945 57.5674 53.5448 57.5305 53.5825C57.5059 53.6202 57.469 53.6391 57.4198 53.6391H55.8338ZM58.0653 47.3959C58.5448 47.3959 58.8952 47.2262 59.1165 46.8867C59.3501 46.5472 59.4669 46.0127 59.4669 45.2834C59.4669 44.4913 59.3624 43.9254 59.1534 43.5859C58.9444 43.2464 58.6001 43.0766 58.1206 43.0766H57.5858V47.3959H58.0653Z" fill="white"/>
<path d="M63.3028 53.6391C63.2536 53.6391 63.2106 53.6202 63.1737 53.5825C63.1491 53.5448 63.1368 53.4945 63.1368 53.4316V41.4923C63.1368 41.4294 63.1491 41.3791 63.1737 41.3414C63.2106 41.3037 63.2536 41.2848 63.3028 41.2848H65.7555C66.9112 41.2848 67.7534 41.574 68.2821 42.1524C68.823 42.7183 69.0935 43.6048 69.0935 44.8119C69.0935 46.5849 68.6202 47.7103 67.6735 48.1881V48.207L69.5361 53.375C69.5484 53.4002 69.5545 53.4379 69.5545 53.4882C69.5545 53.5888 69.5054 53.6391 69.407 53.6391H67.6919C67.5936 53.6391 67.5259 53.5888 67.4891 53.4882L65.8477 48.5842H65.0547V53.4316C65.0547 53.4945 65.0363 53.5448 64.9994 53.5825C64.9748 53.6202 64.9379 53.6391 64.8888 53.6391H63.3028ZM65.7555 46.8867C66.2596 46.8867 66.6223 46.7295 66.8436 46.4151C67.0649 46.1008 67.1755 45.6104 67.1755 44.9439C67.1755 44.2775 67.0587 43.806 66.8252 43.5293C66.6039 43.2401 66.2473 43.0955 65.7555 43.0955H65.0547V46.8867H65.7555Z" fill="white"/>
<path d="M71.33 53.6391C71.2808 53.6391 71.2378 53.6202 71.2009 53.5825C71.1763 53.5448 71.164 53.4945 71.164 53.4316V41.4923C71.164 41.4294 71.1763 41.3791 71.2009 41.3414C71.2378 41.3037 71.2808 41.2848 71.33 41.2848H72.916C72.9652 41.2848 73.002 41.3037 73.0266 41.3414C73.0635 41.3791 73.082 41.4294 73.082 41.4923V53.4316C73.082 53.4945 73.0635 53.5448 73.0266 53.5825C73.002 53.6202 72.9652 53.6391 72.916 53.6391H71.33Z" fill="white"/>
<path d="M77.0733 53.6391C76.9872 53.6391 76.9319 53.5825 76.9073 53.4693L74.5837 41.53V41.4546C74.5837 41.3414 74.6267 41.2848 74.7128 41.2848H76.4463C76.5446 41.2848 76.6061 41.3351 76.6307 41.4357L77.811 48.9048C77.9462 49.7096 78.063 50.6087 78.1614 51.602H78.1983C78.2843 50.7721 78.4073 49.8731 78.5671 48.9048L79.7289 41.4546C79.7535 41.3414 79.815 41.2848 79.9133 41.2848H81.6284C81.7637 41.2848 81.8129 41.3602 81.776 41.5111L79.4707 53.4693C79.4585 53.5825 79.4031 53.6391 79.3048 53.6391H77.0733Z" fill="white"/>
<path d="M89.262 53.4882C89.262 53.5888 89.2129 53.6391 89.1145 53.6391H87.381C87.2826 53.6391 87.2211 53.5888 87.1966 53.4882L86.7908 50.9419H84.375L83.9508 53.4693C83.9385 53.5825 83.877 53.6391 83.7664 53.6391H82.0697C81.9591 53.6391 81.9161 53.5636 81.9406 53.4127L84.3381 41.4546C84.375 41.3414 84.4487 41.2848 84.5594 41.2848H86.6249C86.7478 41.2848 86.8154 41.3414 86.8277 41.4546L89.2436 53.3939L89.262 53.4882ZM86.5142 49.2444L85.9794 45.9436C85.8196 45.0005 85.6905 44.1329 85.5921 43.3407H85.5552C85.42 44.4472 85.2971 45.3149 85.1864 45.9436L84.6516 49.2444H86.5142Z" fill="white"/>
<path d="M93.5907 53.7522C91.3777 53.7522 90.2711 52.4005 90.2711 49.697V45.2269C90.2711 43.8814 90.5539 42.8692 91.1195 42.1902C91.685 41.5111 92.5088 41.1716 93.5907 41.1716C94.6111 41.1716 95.4041 41.486 95.9697 42.1147C96.5352 42.7308 96.818 43.5796 96.818 44.661C96.818 44.9251 96.7995 45.1891 96.7627 45.4532C96.7381 45.5915 96.6827 45.6607 96.5967 45.6607H95.0107C94.8755 45.6607 94.8201 45.5852 94.8447 45.4343C94.857 45.3086 94.8632 45.1263 94.8632 44.8873C94.8632 43.6173 94.439 42.9823 93.5907 42.9823C93.1112 42.9823 92.7546 43.1647 92.521 43.5293C92.2998 43.894 92.1891 44.485 92.1891 45.3023V49.6027C92.1891 50.4326 92.2998 51.0299 92.521 51.3946C92.7546 51.7592 93.1112 51.9415 93.5907 51.9415C94.4513 51.9415 94.8816 51.3003 94.8816 50.0177C94.8816 49.7913 94.8755 49.6153 94.8632 49.4896C94.8632 49.3387 94.9185 49.2632 95.0291 49.2632H96.5782C96.7012 49.2632 96.7688 49.3387 96.7811 49.4896C96.7934 49.6153 96.7995 49.8039 96.7995 50.0554C96.7995 51.2248 96.5229 52.1364 95.9697 52.7903C95.4287 53.4316 94.6357 53.7522 93.5907 53.7522Z" fill="white"/>
<path d="M100.528 53.6391C100.478 53.6391 100.435 53.6202 100.399 53.5825C100.374 53.5448 100.362 53.4945 100.362 53.4316V49.3952L97.872 41.5489C97.8598 41.5237 97.8536 41.486 97.8536 41.4357C97.8536 41.3351 97.8966 41.2848 97.9827 41.2848H99.7716C99.8822 41.2848 99.9437 41.3351 99.956 41.4357L100.823 45.076C100.897 45.3777 100.946 45.6041 100.97 45.755C101.032 46.019 101.149 46.5346 101.321 47.3016H101.339C101.425 46.8615 101.597 46.1133 101.855 45.0571L102.722 41.4357C102.735 41.3351 102.79 41.2848 102.888 41.2848H104.64C104.702 41.2848 104.745 41.3099 104.769 41.3602C104.794 41.4105 104.794 41.4734 104.769 41.5489L102.28 49.3764V53.4316C102.28 53.4945 102.267 53.5448 102.243 53.5825C102.218 53.6202 102.181 53.6391 102.132 53.6391H100.528Z" fill="white"/>
<path d="M59.1628 66.3867C59.1628 66.4458 59.1339 66.4753 59.0761 66.4753H58.0583C58.0005 66.4753 57.9645 66.4458 57.95 66.3867L57.7118 64.8917H56.2933L56.0443 66.3757C56.0371 66.4421 56.001 66.4753 55.936 66.4753H54.9398C54.8749 66.4753 54.8496 66.431 54.864 66.3424L56.2717 59.3213C56.2933 59.2548 56.3366 59.2216 56.4016 59.2216H57.6144C57.6865 59.2216 57.7262 59.2548 57.7335 59.3213L59.1519 66.3314L59.1628 66.3867ZM57.5494 63.895L57.2354 61.957C57.1415 61.4032 57.0657 60.8938 57.008 60.4287H56.9863C56.9069 61.0784 56.8347 61.5878 56.7698 61.957L56.4558 63.895H57.5494Z" fill="white"/>
<path d="M61.7043 66.5418C60.4049 66.5418 59.7552 65.7481 59.7552 64.1608V61.5361C59.7552 60.7462 59.9213 60.1518 60.2533 59.7532C60.5854 59.3545 61.069 59.1551 61.7043 59.1551C62.3034 59.1551 62.769 59.3397 63.1011 59.7089C63.4331 60.0706 63.5992 60.569 63.5992 61.2039C63.5992 61.3589 63.5883 61.514 63.5667 61.669C63.5523 61.7502 63.5198 61.7908 63.4692 61.7908H62.538C62.4586 61.7908 62.4261 61.7466 62.4406 61.658C62.4478 61.5841 62.4514 61.4771 62.4514 61.3368C62.4514 60.5911 62.2024 60.2183 61.7043 60.2183C61.4228 60.2183 61.2134 60.3253 61.0763 60.5394C60.9463 60.7535 60.8814 61.1005 60.8814 61.5804V64.1054C60.8814 64.5927 60.9463 64.9434 61.0763 65.1575C61.2134 65.3716 61.4228 65.4786 61.7043 65.4786C62.2096 65.4786 62.4622 65.1021 62.4622 64.349C62.4622 64.2161 62.4586 64.1128 62.4514 64.039C62.4514 63.9504 62.4839 63.9061 62.5489 63.9061H63.4584C63.5306 63.9061 63.5703 63.9504 63.5775 64.039C63.5847 64.1128 63.5883 64.2235 63.5883 64.3712C63.5883 65.0578 63.4259 65.5931 63.1011 65.977C62.7835 66.3535 62.3179 66.5418 61.7043 66.5418Z" fill="white"/>
<path d="M66.5549 66.5418C65.2555 66.5418 64.6058 65.7481 64.6058 64.1608V61.5361C64.6058 60.7462 64.7719 60.1518 65.1039 59.7532C65.436 59.3545 65.9196 59.1551 66.5549 59.1551C67.154 59.1551 67.6196 59.3397 67.9517 59.7089C68.2837 60.0706 68.4498 60.569 68.4498 61.2039C68.4498 61.3589 68.4389 61.514 68.4173 61.669C68.4028 61.7502 68.3704 61.7908 68.3198 61.7908H67.3886C67.3092 61.7908 67.2767 61.7466 67.2912 61.658C67.2984 61.5841 67.302 61.4771 67.302 61.3368C67.302 60.5911 67.053 60.2183 66.5549 60.2183C66.2733 60.2183 66.064 60.3253 65.9269 60.5394C65.7969 60.7535 65.7319 61.1005 65.7319 61.5804V64.1054C65.7319 64.5927 65.7969 64.9434 65.9269 65.1575C66.064 65.3716 66.2733 65.4786 66.5549 65.4786C67.0602 65.4786 67.3128 65.1021 67.3128 64.349C67.3128 64.2161 67.3092 64.1128 67.302 64.039C67.302 63.9504 67.3345 63.9061 67.3995 63.9061H68.309C68.3812 63.9061 68.4209 63.9504 68.4281 64.039C68.4353 64.1128 68.4389 64.2235 68.4389 64.3712C68.4389 65.0578 68.2765 65.5931 67.9517 65.977C67.6341 66.3535 67.1685 66.5418 66.5549 66.5418Z" fill="white"/>
<path d="M69.7045 66.4753C69.6756 66.4753 69.6503 66.4642 69.6287 66.4421C69.607 66.42 69.5962 66.3904 69.5962 66.3535V59.3434C69.5962 59.3065 69.6034 59.277 69.6178 59.2548C69.6395 59.2327 69.6648 59.2216 69.6936 59.2216H72.5306C72.5955 59.2216 72.628 59.2622 72.628 59.3434V60.1518C72.628 60.2404 72.5955 60.2847 72.5306 60.2847H70.7223V62.2892H72.3681C72.4331 62.2892 72.4656 62.3298 72.4656 62.411V63.1751C72.4656 63.2564 72.4331 63.297 72.3681 63.297H70.7223V65.4122H72.5306C72.5955 65.4122 72.628 65.4565 72.628 65.5451V66.3535C72.628 66.4347 72.5955 66.4753 72.5306 66.4753H69.7045Z" fill="white"/>
<path d="M73.91 66.4753C73.8812 66.4753 73.8559 66.4642 73.8342 66.4421C73.8126 66.42 73.8018 66.3904 73.8018 66.3535V59.3434C73.8018 59.2622 73.8378 59.2216 73.91 59.2216H74.8196C74.8485 59.2216 74.8737 59.2327 74.8954 59.2548C74.917 59.277 74.9279 59.3065 74.9279 59.3434V65.4122H76.617C76.6892 65.4122 76.7253 65.4565 76.7253 65.5451V66.3535C76.7253 66.4347 76.6892 66.4753 76.617 66.4753H73.91Z" fill="white"/>
<path d="M77.7667 66.4753C77.7378 66.4753 77.7125 66.4642 77.6909 66.4421C77.6692 66.42 77.6584 66.3904 77.6584 66.3535V59.3434C77.6584 59.3065 77.6656 59.277 77.68 59.2548C77.7017 59.2327 77.7269 59.2216 77.7558 59.2216H80.5928C80.6577 59.2216 80.6902 59.2622 80.6902 59.3434V60.1518C80.6902 60.2404 80.6577 60.2847 80.5928 60.2847H78.7845V62.2892H80.4303C80.4953 62.2892 80.5278 62.3298 80.5278 62.411V63.1751C80.5278 63.2564 80.4953 63.297 80.4303 63.297H78.7845V65.4122H80.5928C80.6577 65.4122 80.6902 65.4565 80.6902 65.5451V66.3535C80.6902 66.4347 80.6577 66.4753 80.5928 66.4753H77.7667Z" fill="white"/>
<path d="M81.9614 66.4753C81.9325 66.4753 81.9073 66.4642 81.8856 66.4421C81.8712 66.42 81.8639 66.3904 81.8639 66.3535V59.3434C81.8639 59.3065 81.8712 59.277 81.8856 59.2548C81.9073 59.2327 81.9325 59.2216 81.9614 59.2216H83.4015C84.0801 59.2216 84.5745 59.3914 84.8849 59.731C85.2026 60.0632 85.3614 60.5837 85.3614 61.2925C85.3614 62.3335 85.0835 62.9943 84.5276 63.2748V63.2859L85.6213 66.3203C85.6285 66.335 85.6321 66.3572 85.6321 66.3867C85.6321 66.4458 85.6032 66.4753 85.5455 66.4753H84.5385C84.4807 66.4753 84.441 66.4458 84.4193 66.3867L83.4557 63.5074H82.9901V66.3535C82.9901 66.3904 82.9792 66.42 82.9576 66.4421C82.9431 66.4642 82.9215 66.4753 82.8926 66.4753H81.9614ZM83.4015 62.5107C83.6975 62.5107 83.9104 62.4184 84.0404 62.2338C84.1703 62.0493 84.2353 61.7613 84.2353 61.37C84.2353 60.9787 84.1667 60.7019 84.0295 60.5394C83.8996 60.3696 83.6903 60.2847 83.4015 60.2847H82.9901V62.5107H83.4015Z" fill="white"/>
<path d="M90.4099 66.3867C90.4099 66.4458 90.381 66.4753 90.3233 66.4753H89.3055C89.2477 66.4753 89.2116 66.4458 89.1972 66.3867L88.959 64.8917H87.5405L87.2915 66.3757C87.2842 66.4421 87.2482 66.4753 87.1832 66.4753H86.187C86.122 66.4753 86.0968 66.431 86.1112 66.3424L87.5189 59.3213C87.5405 59.2548 87.5838 59.2216 87.6488 59.2216H88.8615C88.9337 59.2216 88.9734 59.2548 88.9806 59.3213L90.3991 66.3314L90.4099 66.3867ZM88.7966 63.895L88.4825 61.957C88.3887 61.4032 88.3129 60.8938 88.2552 60.4287H88.2335C88.1541 61.0784 88.0819 61.5878 88.0169 61.957L87.7029 63.895H88.7966Z" fill="white"/>
<path d="M91.7577 66.4753C91.6927 66.4753 91.6602 66.4347 91.6602 66.3535V60.2847H90.5558C90.4908 60.2847 90.4583 60.2404 90.4583 60.1518V59.3434C90.4583 59.2622 90.4908 59.2216 90.5558 59.2216H93.88C93.9521 59.2216 93.9882 59.2622 93.9882 59.3434V60.1518C93.9882 60.2404 93.9521 60.2847 93.88 60.2847H92.7863V66.3535C92.7863 66.4347 92.7538 66.4753 92.6889 66.4753H91.7577Z" fill="white"/>
<path d="M96.66 66.5418C96.0248 66.5418 95.5411 66.3535 95.2091 65.977C94.877 65.5931 94.711 65.0283 94.711 64.2826V61.4365C94.711 60.676 94.877 60.1075 95.2091 59.731C95.5411 59.3471 96.0248 59.1551 96.66 59.1551C97.2953 59.1551 97.7789 59.3471 98.111 59.731C98.443 60.1075 98.6091 60.676 98.6091 61.4365V64.2826C98.6091 65.0283 98.443 65.5931 98.111 65.977C97.7789 66.3535 97.2953 66.5418 96.66 66.5418ZM96.66 65.4786C96.9416 65.4786 97.1473 65.379 97.2772 65.1796C97.4144 64.9803 97.483 64.6628 97.483 64.2272V61.4918C97.483 61.0415 97.4144 60.7166 97.2772 60.5173C97.1473 60.318 96.9416 60.2183 96.66 60.2183C96.3785 60.2183 96.1692 60.318 96.032 60.5173C95.9021 60.7166 95.8371 61.0415 95.8371 61.4918V64.2272C95.8371 64.6628 95.9021 64.9803 96.032 65.1796C96.1692 65.379 96.3785 65.4786 96.66 65.4786Z" fill="white"/>
<path d="M99.8622 66.4753C99.8334 66.4753 99.8081 66.4642 99.7864 66.4421C99.772 66.42 99.7648 66.3904 99.7648 66.3535V59.3434C99.7648 59.3065 99.772 59.277 99.7864 59.2548C99.8081 59.2327 99.8334 59.2216 99.8622 59.2216H101.302C101.981 59.2216 102.475 59.3914 102.786 59.731C103.103 60.0632 103.262 60.5837 103.262 61.2925C103.262 62.3335 102.984 62.9943 102.428 63.2748V63.2859L103.522 66.3203C103.529 66.335 103.533 66.3572 103.533 66.3867C103.533 66.4458 103.504 66.4753 103.446 66.4753H102.439C102.382 66.4753 102.342 66.4458 102.32 66.3867L101.356 63.5074H100.891V66.3535C100.891 66.3904 100.88 66.42 100.858 66.4421C100.844 66.4642 100.822 66.4753 100.793 66.4753H99.8622ZM101.302 62.5107C101.598 62.5107 101.811 62.4184 101.941 62.2338C102.071 62.0493 102.136 61.7613 102.136 61.37C102.136 60.9787 102.068 60.7019 101.93 60.5394C101.8 60.3696 101.591 60.2847 101.302 60.2847H100.891V62.5107H101.302Z" fill="white"/>
<path d="M30.0396 22.3765C30.2646 22.3765 30.4536 22.3495 30.6066 22.2955C30.7596 22.2415 30.8811 22.1695 30.9711 22.0795C31.0641 21.9895 31.1301 21.8845 31.1691 21.7645C31.2111 21.6445 31.2321 21.517 31.2321 21.382C31.2321 21.241 31.2096 21.115 31.1646 21.004C31.1196 20.89 31.0491 20.794 30.9531 20.716C30.8571 20.635 30.7326 20.5735 30.5796 20.5315C30.4296 20.4895 30.2481 20.4685 30.0351 20.4685H28.8156V22.3765H30.0396ZM28.8156 17.7505V19.6315H29.7786C30.1926 19.6315 30.5046 19.5565 30.7146 19.4065C30.9276 19.2565 31.0341 19.018 31.0341 18.691C31.0341 18.352 30.9381 18.1105 30.7461 17.9665C30.5541 17.8225 30.2541 17.7505 29.8461 17.7505H28.8156ZM29.8461 16.8145C30.2721 16.8145 30.6366 16.855 30.9396 16.936C31.2426 17.017 31.4901 17.1325 31.6821 17.2825C31.8771 17.4325 32.0196 17.614 32.1096 17.827C32.1996 18.04 32.2446 18.28 32.2446 18.547C32.2446 18.7 32.2221 18.847 32.1771 18.988C32.1321 19.126 32.0616 19.2565 31.9656 19.3795C31.8726 19.4995 31.7526 19.609 31.6056 19.708C31.4616 19.807 31.2891 19.891 31.0881 19.96C31.9821 20.161 32.4291 20.644 32.4291 21.409C32.4291 21.685 32.3766 21.94 32.2716 22.174C32.1666 22.408 32.0136 22.6105 31.8126 22.7815C31.6116 22.9495 31.3641 23.0815 31.0701 23.1775C30.7761 23.2735 30.4401 23.3215 30.0621 23.3215H27.6051V16.8145H29.8461ZM38.2269 22.3765C38.4519 22.3765 38.6394 22.3525 38.7894 22.3045C38.9424 22.2535 39.0654 22.1845 39.1584 22.0975C39.2514 22.0105 39.3174 21.9085 39.3564 21.7915C39.3954 21.6745 39.4149 21.5485 39.4149 21.4135C39.4149 21.2665 39.3954 21.133 39.3564 21.013C39.3174 20.893 39.2514 20.7925 39.1584 20.7115C39.0654 20.6275 38.9439 20.563 38.7939 20.518C38.6439 20.473 38.4564 20.4505 38.2314 20.4505H37.1694V22.3765H38.2269ZM38.2314 19.5055C38.6544 19.5055 39.0159 19.552 39.3159 19.645C39.6189 19.738 39.8649 19.8655 40.0539 20.0275C40.2459 20.1865 40.3869 20.3755 40.4769 20.5945C40.5669 20.8105 40.6119 21.043 40.6119 21.292C40.6119 21.598 40.5579 21.8755 40.4499 22.1245C40.3449 22.3735 40.1904 22.588 39.9864 22.768C39.7824 22.945 39.5319 23.0815 39.2349 23.1775C38.9409 23.2735 38.6049 23.3215 38.2269 23.3215H35.9589V16.8145H37.1694V19.5055H38.2314ZM42.7764 23.3215H41.5614V16.8145H42.7764V23.3215ZM51.9199 23.3215H50.7004V17.746H47.8744V23.3215H46.6594V16.8145H51.9199V23.3215ZM60.957 16.8145L58.329 22.417C58.236 22.612 58.137 22.7725 58.032 22.8985C57.927 23.0245 57.813 23.1235 57.69 23.1955C57.57 23.2675 57.4395 23.317 57.2985 23.344C57.1605 23.374 57.012 23.389 56.853 23.389C56.637 23.389 56.4795 23.3695 56.3805 23.3305C56.2815 23.2915 56.232 23.2345 56.232 23.1595V22.4035H56.583C56.649 22.4035 56.7165 22.3975 56.7855 22.3855C56.8545 22.3735 56.922 22.3495 56.988 22.3135C57.057 22.2775 57.123 22.2265 57.186 22.1605C57.249 22.0945 57.3075 22.0075 57.3615 21.8995L57.618 21.3775L55.008 16.8145H56.142C56.247 16.8145 56.331 16.84 56.394 16.891C56.457 16.942 56.5095 17.0065 56.5515 17.0845L57.816 19.4695C57.885 19.6015 57.9465 19.732 58.0005 19.861C58.0575 19.99 58.107 20.122 58.149 20.257C58.227 19.987 58.3275 19.7245 58.4505 19.4695L59.553 17.0845C59.586 17.0185 59.6355 16.957 59.7015 16.9C59.7675 16.843 59.8515 16.8145 59.9535 16.8145H60.957ZM68.2399 21.787C68.3059 21.787 68.3644 21.8125 68.4154 21.8635L68.8924 22.381C68.6284 22.708 68.3029 22.9585 67.9159 23.1325C67.5319 23.3065 67.0699 23.3935 66.5299 23.3935C66.0469 23.3935 65.6119 23.311 65.2249 23.146C64.8409 22.981 64.5124 22.7515 64.2394 22.4575C63.9664 22.1635 63.7564 21.8125 63.6094 21.4045C63.4654 20.9965 63.3934 20.551 63.3934 20.068C63.3934 19.579 63.4714 19.132 63.6274 18.727C63.7834 18.319 64.0024 17.968 64.2844 17.674C64.5694 17.38 64.9084 17.152 65.3014 16.99C65.6944 16.825 66.1294 16.7425 66.6064 16.7425C67.0804 16.7425 67.5004 16.8205 67.8664 16.9765C68.2354 17.1325 68.5489 17.3365 68.8069 17.5885L68.4019 18.151C68.3779 18.187 68.3464 18.2185 68.3074 18.2455C68.2714 18.2725 68.2204 18.286 68.1544 18.286C68.1094 18.286 68.0629 18.274 68.0149 18.25C67.9669 18.223 67.9144 18.1915 67.8574 18.1555C67.8004 18.1165 67.7344 18.0745 67.6594 18.0295C67.5844 17.9845 67.4974 17.944 67.3984 17.908C67.2994 17.869 67.1839 17.8375 67.0519 17.8135C66.9229 17.7865 66.7729 17.773 66.6019 17.773C66.3109 17.773 66.0439 17.8255 65.8009 17.9305C65.5609 18.0325 65.3539 18.1825 65.1799 18.3805C65.0059 18.5755 64.8709 18.8155 64.7749 19.1005C64.6789 19.3825 64.6309 19.705 64.6309 20.068C64.6309 20.434 64.6819 20.7595 64.7839 21.0445C64.8889 21.3295 65.0299 21.5695 65.2069 21.7645C65.3839 21.9595 65.5924 22.1095 65.8324 22.2145C66.0724 22.3165 66.3304 22.3675 66.6064 22.3675C66.7714 22.3675 66.9199 22.3585 67.0519 22.3405C67.1869 22.3225 67.3099 22.294 67.4209 22.255C67.5349 22.216 67.6414 22.1665 67.7404 22.1065C67.8424 22.0435 67.9429 21.967 68.0419 21.877C68.0719 21.85 68.1034 21.829 68.1364 21.814C68.1694 21.796 68.2039 21.787 68.2399 21.787ZM77.6731 23.3215H76.5751C76.4611 23.3215 76.3651 23.2915 76.2871 23.2315C76.2121 23.1715 76.1416 23.083 76.0756 22.966L74.6896 20.779C74.6536 20.716 74.6146 20.665 74.5726 20.626C74.5336 20.584 74.4901 20.551 74.4421 20.527C74.3971 20.5 74.3446 20.482 74.2846 20.473C74.2276 20.464 74.1616 20.4595 74.0866 20.4595H73.3621V23.3215H72.1516V16.8145H73.3621V19.5415H73.9741C74.0971 19.5415 74.2036 19.5205 74.2936 19.4785C74.3836 19.4365 74.4676 19.3585 74.5456 19.2445L75.9721 17.1385C76.0321 17.0425 76.1026 16.9645 76.1836 16.9045C76.2646 16.8445 76.3621 16.8145 76.4761 16.8145H77.5111L75.7426 19.4245C75.6676 19.5385 75.5806 19.633 75.4816 19.708C75.3826 19.783 75.2731 19.8415 75.1531 19.8835C75.3331 19.9345 75.4846 20.0155 75.6076 20.1265C75.7336 20.2345 75.8536 20.3845 75.9676 20.5765L77.6731 23.3215ZM86.3337 16.8145V23.3215H85.1187V20.4775H82.0632V23.3215H80.8482V16.8145H82.0632V19.6135H85.1187V16.8145H86.3337ZM95.6982 16.8145V23.3215H94.4832V19.2445C94.4832 19.0915 94.4862 18.931 94.4922 18.763C94.5012 18.595 94.5192 18.4165 94.5462 18.2275C94.4862 18.3955 94.4202 18.5515 94.3482 18.6955C94.2792 18.8365 94.2117 18.961 94.1457 19.069L91.6572 22.948C91.6302 22.993 91.5972 23.038 91.5582 23.083C91.5222 23.128 91.4817 23.1685 91.4367 23.2045C91.3917 23.2375 91.3422 23.266 91.2882 23.29C91.2342 23.311 91.1787 23.3215 91.1217 23.3215H90.2127V16.8145H91.4277V20.8915C91.4277 21.0445 91.4232 21.2065 91.4142 21.3775C91.4082 21.5455 91.3917 21.724 91.3647 21.913C91.4247 21.745 91.4892 21.589 91.5582 21.445C91.6302 21.301 91.7007 21.175 91.7697 21.067L94.2537 17.188C94.2807 17.143 94.3122 17.098 94.3482 17.053C94.3872 17.008 94.4292 16.969 94.4742 16.936C94.5192 16.9 94.5672 16.8715 94.6182 16.8505C94.6722 16.8265 94.7292 16.8145 94.7892 16.8145H95.6982ZM105.099 23.3215H104.001C103.887 23.3215 103.791 23.2915 103.713 23.2315C103.638 23.1715 103.567 23.083 103.501 22.966L102.115 20.779C102.079 20.716 102.04 20.665 101.998 20.626C101.959 20.584 101.916 20.551 101.868 20.527C101.823 20.5 101.77 20.482 101.71 20.473C101.653 20.464 101.587 20.4595 101.512 20.4595H100.788V23.3215H99.5773V16.8145H100.788V19.5415H101.4C101.523 19.5415 101.629 19.5205 101.719 19.4785C101.809 19.4365 101.893 19.3585 101.971 19.2445L103.398 17.1385C103.458 17.0425 103.528 16.9645 103.609 16.9045C103.69 16.8445 103.788 16.8145 103.902 16.8145H104.937L103.168 19.4245C103.093 19.5385 103.006 19.633 102.907 19.708C102.808 19.783 102.699 19.8415 102.579 19.8835C102.759 19.9345 102.91 20.0155 103.033 20.1265C103.159 20.2345 103.279 20.3845 103.393 20.5765L105.099 23.3215Z" fill="white"/>
</g>
<defs>
<filter id="filter0_d" x="0" y="0" width="132" height="94" filterUnits="userSpaceOnUse" color-interpolation-filters="sRGB">
<feFlood flood-opacity="0" result="BackgroundImageFix"/>
<feColorMatrix in="SourceAlpha" type="matrix" values="0 0 0 0 0 0 0 0 0 0 0 0 0 0 0 0 0 0 127 0"/>
<feOffset dy="4"/>
<feGaussianBlur stdDeviation="6"/>
<feColorMatrix type="matrix" values="0 0 0 0 0 0 0 0 0 0 0 0 0 0 0 0 0 0 0.15 0"/>
<feBlend mode="normal" in2="BackgroundImageFix" result="effect1_dropShadow"/>
<feBlend mode="normal" in="SourceGraphic" in2="effect1_dropShadow" result="shape"/>
</filter>
</defs>
</svg>
