<svg width="60" height="60" viewBox="0 0 60 60" fill="none" xmlns="http://www.w3.org/2000/svg">
<g clip-path="url(#clip0)">
<path d="M30.9455 3.95234C25.0617 8.8729 18.5242 12.2626 11.115 14.3402V35.5533C11.115 37.5215 11.5508 38.943 12.5315 40.6925C16.8898 49.1122 22.4467 53.0486 30.9455 56.7664C39.7712 52.9393 45.2191 48.8935 49.6864 40.2551C50.5581 38.8336 50.885 37.0841 50.885 35.5533V14.3402C43.4758 12.2626 36.9383 8.8729 30.9455 3.95234ZM30.1828 1.32804C30.6186 0.890654 31.3814 0.890654 31.8172 1.32804C37.9189 6.46729 44.6743 10.0757 52.4104 12.0439C52.9552 12.1533 53.5 12.7 53.5 13.3561V35.5533C53.5 37.8495 52.9552 39.3804 52.0835 41.4579C47.1804 50.8617 41.0787 55.3449 31.4903 59.3907C31.1634 59.5 30.8366 59.5 30.5097 59.3907C21.1392 55.4542 15.0375 51.0804 10.1344 41.8953C9.04479 39.8178 8.5 37.8495 8.5 35.5533V13.3561C8.5 12.8093 8.93584 12.2626 9.48063 12.1533C17.2167 10.0757 24.0811 6.46729 30.1828 1.32804Z" fill="white"/>
<path fill-rule="evenodd" clip-rule="evenodd" d="M25.1707 27.6804H25.6065V22.7598C25.6065 19.8075 28.0036 17.4019 30.9455 17.4019C33.8874 17.4019 36.3934 19.8075 36.3934 22.7598V27.6804H36.8293C37.8099 27.6804 38.5726 28.4458 38.5726 29.4299V38.0682C38.5726 39.0523 37.8099 39.9271 36.8293 39.9271H25.1707C24.19 39.9271 23.3184 39.0523 23.3184 38.0682V29.4299C23.3184 28.4458 24.19 27.6804 25.1707 27.6804ZM27.4588 27.6804H34.5411V22.7598C34.5411 20.7916 32.9067 19.2607 30.9455 19.2607C29.0932 19.2607 27.4588 20.7916 27.4588 22.7598V27.6804ZM30.9455 31.8355C32.0351 31.8355 32.9067 32.7103 32.9067 33.8037C32.9067 34.7878 32.0351 35.6626 30.9455 35.6626C29.9649 35.6626 29.0932 34.7878 29.0932 33.8037C29.0932 32.7103 29.9649 31.8355 30.9455 31.8355Z" fill="#D27E00"/>
</g>
<defs>
<clipPath id="clip0">
<rect width="45" height="58.5" fill="white" transform="translate(8.5 1)"/>
</clipPath>
</defs>
</svg>
