<svg width="100" height="100" viewBox="0 0 100 100" fill="none" xmlns="http://www.w3.org/2000/svg">
<path d="M46.4358 34.318L44.4484 36.2723C42.463 38.2245 39.2147 38.2245 37.2294 36.2723L33.2539 32.3638C31.0177 32.974 28.8936 33.8469 26.9172 34.947V40.4724C26.9172 43.2338 24.6202 45.4925 21.8127 45.4925H16.1942C15.0748 47.436 14.187 49.5253 13.5665 51.7241L17.5406 55.632C19.5266 57.5842 19.5259 60.779 17.5406 62.7313L13.5658 66.6404C14.1863 68.8386 15.0741 70.9279 16.1929 72.8708H21.8127C24.6202 72.8708 26.9172 75.1301 26.9172 77.8908V83.4155C28.8936 84.5156 31.0184 85.3893 33.2546 85.9995L37.2287 82.091C39.2147 80.1387 42.463 80.1387 44.4484 82.091L48.4239 86.0001C50.6593 85.3899 52.7841 84.5163 54.7606 83.4162V77.8908C54.7606 75.1294 57.0575 72.8708 59.8651 72.8708H65.4835C66.6029 70.9273 67.4907 68.8379 68.1113 66.6398L64.1365 62.7313C62.1511 60.779 62.1511 57.5842 64.1365 55.632L66.1239 53.6777M40.8385 49.1852C46.4529 49.1852 51.0045 53.6609 51.0045 59.1816C51.0045 64.7023 46.4529 69.178 40.8385 69.178C35.2242 69.178 30.6726 64.7023 30.6726 59.1816C30.6726 53.6609 35.2242 49.1852 40.8385 49.1852Z" stroke="#5C02EF" stroke-width="2"/>
<path fill-rule="evenodd" clip-rule="evenodd" d="M69.5621 17C71.2019 17.4551 72.7601 18.1066 74.2095 18.9275V23.0471C74.2095 25.1059 75.8939 26.7909 77.9528 26.7909H82.0725C82.8934 28.2403 83.5449 29.7984 84 31.4377L81.0851 34.3526C79.6292 35.8085 79.6292 38.191 81.0851 39.6469L84 42.5618C83.5449 44.2011 82.8939 45.7592 82.073 47.2086H77.9528C75.8939 47.2086 74.2095 48.893 74.2095 50.9524V55.073C72.7601 55.8934 71.2019 56.5449 69.5626 57L66.6472 54.0847C65.1913 52.6288 62.8092 52.6288 61.3528 54.0847L58.4384 56.9995C56.7986 56.5444 55.2404 55.8929 53.791 55.0725V50.9524C53.791 48.8936 52.1066 47.2086 50.0477 47.2086H45.9265C45.1061 45.7597 44.4551 44.2016 44 42.5623L46.9148 39.6469C48.3708 38.191 48.3713 35.8085 46.9148 34.3526L44.0005 31.4383C44.4556 29.7984 45.1066 28.2403 45.9275 26.7909H50.0477C52.1066 26.7909 53.791 25.1064 53.791 23.0471V18.9265C55.2404 18.1061 56.7981 17.4551 58.4379 17L61.3533 19.9148C62.8092 21.3707 65.1913 21.3707 66.6472 19.9148L69.5621 17ZM64 29.5448C68.1172 29.5448 71.455 32.8826 71.455 36.9998C71.455 41.1169 68.1172 44.4547 64 44.4547C59.8828 44.4547 56.545 41.1169 56.545 36.9998C56.545 32.8826 59.8828 29.5448 64 29.5448Z" stroke="#32F2FE" stroke-width="2"/>
</svg>
