<svg width="60" height="60" viewBox="0 0 60 60" fill="none" xmlns="http://www.w3.org/2000/svg">
<path d="M12.5068 13.6717C12.4235 13.7548 12.3575 13.8536 12.3124 13.9623C12.2673 14.071 12.2441 14.1876 12.2441 14.3052C12.2441 14.4229 12.2673 14.5395 12.3124 14.6482C12.3575 14.7569 12.4235 14.8557 12.5068 14.9388L20.4142 22.8508C20.5823 23.0188 20.8102 23.1132 21.0478 23.1132C21.2855 23.1132 21.5134 23.0188 21.6814 22.8508C21.8494 22.6827 21.9439 22.4548 21.9439 22.2172C21.9439 21.9795 21.8494 21.7516 21.6814 21.5836L13.7695 13.6717C13.6017 13.5049 13.3747 13.4113 13.1381 13.4113C12.9015 13.4113 12.6746 13.5049 12.5068 13.6717Z" fill="#F33B3B"/>
<path d="M38.065 18.0374V6.9911C38.065 6.7536 37.9706 6.52582 37.8027 6.35787C37.6347 6.18993 37.407 6.09558 37.1694 6.09558C36.9319 6.09558 36.7042 6.18993 36.5362 6.35787C36.3683 6.52582 36.2739 6.7536 36.2739 6.9911V18.0374C36.2739 18.2749 36.3683 18.5027 36.5362 18.6706C36.7042 18.8385 36.9319 18.9329 37.1694 18.9329C37.407 18.9329 37.6347 18.8385 37.8027 18.6706C37.9706 18.5027 38.065 18.2749 38.065 18.0374Z" fill="#F33B3B"/>
<path d="M24.18 2.17316C24.1506 2.05909 24.099 1.95192 24.0282 1.85778C23.9574 1.76365 23.8687 1.68438 23.7673 1.6245C23.6658 1.56463 23.5536 1.52533 23.4369 1.50883C23.3203 1.49234 23.2015 1.49899 23.0875 1.52839C22.9734 1.55779 22.8662 1.60937 22.7721 1.68018C22.678 1.751 22.5987 1.83967 22.5388 1.94112C22.4789 2.04257 22.4396 2.15482 22.4231 2.27146C22.4066 2.3881 22.4133 2.50685 22.4427 2.62092L25.1293 13.3672C25.1587 13.4813 25.2102 13.5884 25.2811 13.6826C25.3519 13.7767 25.4405 13.856 25.542 13.9159C25.6434 13.9757 25.7557 14.015 25.8723 14.0315C25.989 14.048 26.1077 14.0414 26.2218 14.012C26.3359 13.9826 26.443 13.931 26.5372 13.8602C26.6313 13.7894 26.7106 13.7007 26.7705 13.5992C26.8303 13.4978 26.8696 13.3855 26.8861 13.2689C26.9026 13.1523 26.896 13.0335 26.8666 12.9194L24.18 2.17316Z" fill="#F33B3B"/>
<path d="M12.3724 34.0895C15.1843 38.1193 15.1619 39.9372 15.144 41.7014C15.0097 54.5253 23.8978 58.488 29.1769 58.8059C29.5799 58.8283 29.9694 58.8417 30.359 58.8417C32.8002 58.8707 35.2197 58.3817 37.4581 57.4068C39.6964 56.432 41.7025 54.9936 43.344 53.1865L46.2769 49.9537L46.3261 49.8954L47.7813 48.288C48.2966 47.7723 48.6633 47.1273 48.843 46.4208C49.0227 45.7144 49.0088 44.9725 48.8026 44.2733C48.5964 43.5741 48.2056 42.9434 47.6713 42.4475C47.137 41.9516 46.479 41.6088 45.7664 41.4552C45.9063 40.9469 45.9342 40.4144 45.8483 39.8943C45.7625 39.3742 45.5648 38.8789 45.269 38.4426C44.9731 38.0064 44.5862 37.6394 44.1348 37.3672C43.6834 37.0949 43.1784 36.9238 42.6545 36.8656C42.8 36.4635 42.8757 36.0395 42.8784 35.6119C42.8808 34.678 42.5589 33.7723 41.9676 33.0496C41.3763 32.3268 40.5524 31.8318 39.6366 31.6492L44.4948 26.7731C44.8759 26.3931 45.1776 25.9411 45.3821 25.4433C45.5867 24.9456 45.6901 24.412 45.6862 23.8739C45.6823 23.3357 45.5713 22.8038 45.3596 22.309C45.1479 21.8142 44.8397 21.3666 44.4531 20.9922C44.0666 20.6178 43.6093 20.3241 43.108 20.1284C42.6067 19.9326 42.0714 19.8387 41.5334 19.8521C40.9954 19.8654 40.4655 19.9858 39.9745 20.2062C39.4835 20.4266 39.0414 20.7426 38.6739 21.1357C33.35 26.8178 26.7321 33.2835 24.1216 34.3447C22.5993 34.9716 22.2321 34.4835 21.0545 32.5537C20.2366 31.0417 19.1502 29.6913 17.8485 28.5686C16.2993 27.3104 14.4769 27.2746 12.9679 28.4701C11.2619 29.8178 11.0157 32.1372 12.3724 34.0895ZM44.9022 43.1611C45.1993 43.16 45.4937 43.218 45.7681 43.3318C46.0425 43.4456 46.2916 43.6128 46.5007 43.8238C46.7118 44.0377 46.8785 44.2912 46.9912 44.5697C47.1039 44.8482 47.1604 45.1463 47.1575 45.4467C47.1546 45.7472 47.0923 46.0441 46.9742 46.3204C46.8561 46.5967 46.6846 46.8469 46.4694 47.0566L45.05 48.6193C44.6698 48.7989 44.2438 48.8578 43.8292 48.7881C43.4146 48.7185 43.0312 48.5237 42.7306 48.2298L42.65 48.1447C42.2838 47.7856 42.0637 47.3035 42.0323 46.7916C42.0009 46.2797 42.1603 45.7743 42.4798 45.3731L44.7187 43.1343L44.9022 43.1611ZM43.559 39.1581C43.8905 39.4869 44.0858 39.9288 44.1057 40.3953C44.1256 40.8618 43.9687 41.3187 43.6664 41.6746C43.629 41.7089 43.5945 41.7463 43.5634 41.7865L40.9933 44.3566C40.6303 44.4894 40.2374 44.5178 39.8591 44.4387C39.4809 44.3595 39.1323 44.176 38.853 43.9089L38.7455 43.8014C38.3931 43.4354 38.1859 42.9536 38.1629 42.4459C38.1398 41.9383 38.3024 41.4397 38.6201 41.0432C38.9784 40.7656 40.4784 39.579 41.2754 38.894C41.63 38.6792 42.0461 38.5886 42.4579 38.6364C42.8698 38.6842 43.254 38.8678 43.55 39.1581H43.559ZM40.4246 34.0044C40.6356 34.2136 40.8029 34.4626 40.9167 34.737C41.0304 35.0115 41.0884 35.3058 41.0873 35.6029C41.0288 36.3303 40.692 37.0072 40.147 37.4925C39.6007 37.9671 38.4231 38.9119 37.5545 39.5925C37.1841 39.6982 36.7921 39.7024 36.4195 39.6048C36.0469 39.5071 35.7074 39.3111 35.4366 39.0372L35.3784 38.979C34.9707 38.571 34.7417 38.0178 34.7417 37.441C34.7417 36.8642 34.9707 36.311 35.3784 35.9029L37.4828 33.7984C37.9141 33.4712 38.4492 33.3114 38.9893 33.3484C39.5293 33.3855 40.0376 33.6169 40.4201 33.9999L40.4246 34.0044ZM14.0828 29.8537C14.9425 29.1731 15.8067 29.1999 16.7202 29.9387C17.8598 30.9325 18.8096 32.125 19.5231 33.4581C19.9386 34.2354 20.46 34.9512 21.0724 35.585C21.0891 35.6098 21.107 35.6337 21.1261 35.6566C21.2022 35.7372 22.9172 37.6134 21.1709 40.3402C21.0532 40.5401 21.0177 40.7779 21.0718 41.0034C21.126 41.2289 21.2655 41.4247 21.461 41.5494C21.6565 41.6742 21.8929 41.7182 22.1202 41.6722C22.3475 41.6262 22.5482 41.4938 22.6799 41.3029C23.174 40.5945 23.5043 39.785 23.6468 38.9331C23.7893 38.0812 23.7404 37.2082 23.5037 36.3775C23.9473 36.3168 24.3809 36.1979 24.7933 36.0238C28.3172 34.5775 36.5784 26.0029 39.9724 22.3805C40.1786 22.1582 40.4277 21.98 40.7048 21.8569C40.9819 21.7337 41.2811 21.6681 41.5843 21.6641C41.8879 21.6594 42.1894 21.7156 42.4709 21.8294C42.7524 21.9432 43.0082 22.1124 43.2231 22.3268C43.4337 22.5368 43.6007 22.7863 43.7146 23.061C43.8286 23.3357 43.8873 23.6302 43.8873 23.9275C43.8873 24.2249 43.8286 24.5194 43.7146 24.7941C43.6007 25.0687 43.4337 25.3182 43.2231 25.5283L34.1067 34.6268C33.7363 34.9954 33.4424 35.4336 33.2418 35.9162C33.0413 36.3987 32.938 36.9162 32.938 37.4387C32.938 37.9613 33.0413 38.4787 33.2418 38.9613C33.4424 39.4439 33.7363 39.882 34.1067 40.2507L34.156 40.2999C34.7727 40.9183 35.5777 41.3137 36.444 41.4238C36.2879 42.07 36.2998 42.7454 36.4785 43.3858C36.6572 44.0261 36.9967 44.61 37.4649 45.082L37.5007 45.1134L37.5366 45.1492C38.263 45.8691 39.2452 46.2716 40.2679 46.2686C40.2067 46.8408 40.2747 47.4195 40.4669 47.9619C40.6591 48.5044 40.9706 48.9968 41.3784 49.4029L41.4455 49.479C41.9636 49.9959 42.617 50.3559 43.3306 50.5178L41.9873 51.9999L41.9515 52.0402C40.3483 53.7662 38.3773 55.1095 36.1846 55.9706C33.9919 56.8317 31.6336 57.1886 29.2843 57.0148C26.9771 56.8148 24.7556 56.0455 22.8187 54.776C22.9575 54.776 23.1007 54.776 23.244 54.776H23.6246C25.8634 54.6328 27.9097 53.276 29.7366 50.7462C29.8684 50.553 29.9194 50.3158 29.8787 50.0855C29.838 49.8552 29.7087 49.6499 29.5186 49.5136C29.3285 49.3773 29.0927 49.3208 28.8614 49.3562C28.6302 49.3916 28.422 49.516 28.2813 49.7029C26.7903 51.7805 25.1918 52.891 23.5261 53.0029C21.2022 53.1551 19.4157 51.2969 19.3888 51.2701C19.3492 51.2287 19.3057 51.1912 19.259 51.1581C17.8575 48.9462 16.8948 45.9104 16.9396 41.7149C16.9664 39.3462 16.7515 37.2059 13.8455 33.0507C13.1694 32.1014 12.9858 30.7313 14.0828 29.8537Z" fill="white"/>
<path d="M28.0262 19.7522L26.0471 20.0388L27.48 21.4358L27.1397 23.406L28.9083 22.4746L30.677 23.406L30.3367 21.4358L31.7695 20.0388L29.7904 19.7522L28.9083 17.9612L28.0262 19.7522Z" fill="#EDA02B"/>
<path d="M30.9052 8.98359L31.5097 10.3448L32.2261 9.03284L33.7082 8.8806L32.6828 7.79702L32.9962 6.33732L31.6485 6.97762L30.3544 6.22986L30.547 7.71195L29.4365 8.71046L30.9052 8.98359Z" fill="#FF7337"/>
<path d="M18.9902 8.38365L17.9111 7.35828L17.7499 8.84037L16.438 9.55231L17.7992 10.1613L18.0723 11.6299L19.0708 10.5195L20.5529 10.7165L19.8052 9.42246L20.4499 8.07917L18.9902 8.38365Z" fill="#F33B3B"/>
</svg>
