<svg width="60" height="60" viewBox="0 0 60 60" fill="none" xmlns="http://www.w3.org/2000/svg">
<path d="M29.2353 43L29.2059 39.1095C28.5392 39.0717 27.8333 38.9391 27.0882 38.712C26.3431 38.4848 25.6961 38.2103 25.1471 37.8884L25.2941 39.0243H23.7059V33.0325H24.7353C24.8333 34.7742 25.3627 36.0426 26.3235 36.8377C27.3039 37.6139 28.5686 38.002 30.1176 38.002C31.2745 38.002 32.2157 37.6707 32.9412 37.0081C33.6667 36.3455 34.0294 35.4936 34.0294 34.4523C34.0294 33.6004 33.7843 32.8905 33.2941 32.3225C32.8235 31.7356 32.2059 31.215 31.4412 30.7607C30.6765 30.3063 29.8627 29.8709 29 29.4544C28.098 29 27.2255 28.5078 26.3824 27.9777C25.5392 27.4476 24.8431 26.8134 24.2941 26.0751C23.7647 25.3178 23.5 24.3807 23.5 23.2637C23.5 22.8093 23.598 22.3076 23.7941 21.7586C23.9902 21.2096 24.3039 20.6795 24.7353 20.1684C25.1667 19.6383 25.7353 19.2028 26.4412 18.8621C27.1667 18.5213 28.0392 18.3414 29.0588 18.3225V15H30.6471L30.6176 18.3225C31.1863 18.3793 31.7353 18.5024 32.2647 18.6917C32.8137 18.8621 33.3529 19.1366 33.8824 19.5152L33.7647 18.3225H35.2353V24.5132H34.1471C34.0882 23.6045 33.9118 22.762 33.6176 21.9858C33.3235 21.2096 32.8431 20.5849 32.1765 20.1116C31.5294 19.6383 30.6275 19.4016 29.4706 19.4016C28.6471 19.4016 27.9706 19.5625 27.4412 19.8844C26.9118 20.2062 26.5196 20.6227 26.2647 21.1339C26.0098 21.645 25.8824 22.1846 25.8824 22.7525C25.8824 23.4719 26.0882 24.0967 26.5 24.6268C26.9118 25.1569 27.451 25.6302 28.1176 26.0467C28.7843 26.4632 29.5 26.8702 30.2647 27.2677C31.0098 27.6464 31.7451 28.0345 32.4706 28.432C33.1961 28.8296 33.8627 29.2745 34.4706 29.7667C35.098 30.259 35.5882 30.8364 35.9412 31.499C36.3137 32.1616 36.5 32.9378 36.5 33.8276C36.5 34.6984 36.2843 35.522 35.8529 36.2982C35.4412 37.0744 34.8137 37.7181 33.9706 38.2292C33.1275 38.7214 32.0588 39.0149 30.7647 39.1095V43H29.2353Z" fill="#00A82F"/>
<path d="M47.5366 9.99512C42.9188 5.951 36.8706 3.5 30.25 3.5C15.7525 3.5 4 15.2525 4 29.75C4 36.3706 6.451 42.4188 10.4951 47.0366M47.5366 9.99512C53.0306 14.8066 56.5 21.8731 56.5 29.75C56.5 44.2475 44.7475 56 30.25 56C22.3731 56 15.3066 52.5306 10.4951 47.0366M47.5366 9.99512L39.7543 17.7565M10.4951 47.0366L19.1616 38.1228" stroke="white" stroke-width="2.5"/>
</svg>
