<svg width="150" height="15" viewBox="0 0 150 15" fill="none" xmlns="http://www.w3.org/2000/svg">
<path d="M137.11 15C136.296 15 135.525 14.9795 134.794 14.9384C134.064 14.8974 133.399 14.8153 132.799 14.6922C132.199 14.5759 131.679 14.3981 131.238 14.1587C130.804 13.9125 130.466 13.591 130.225 13.1943C129.991 12.7976 129.874 12.3051 129.874 11.7168C129.874 11.0739 130.001 10.5609 130.256 10.1779C130.511 9.78799 130.89 9.48704 131.393 9.275C131.896 9.05612 132.513 8.89539 133.243 8.79279C133.981 8.68335 134.897 8.59101 135.993 8.51577C138.474 8.33794 140.228 8.18404 141.255 8.05408C142.73 7.86256 143.467 7.61975 143.467 7.32563C143.467 6.92208 142.55 6.70662 140.717 6.67926H139.89C139.47 6.67926 139.036 6.68952 138.588 6.71004C137.526 6.76476 136.927 6.96996 136.789 7.32563H130.721C130.783 6.85368 130.993 6.40566 131.352 5.98159C131.71 5.55068 132.168 5.16764 132.727 4.83249C134.27 3.90226 136.641 3.43715 139.839 3.43715C141.555 3.43715 143.043 3.52265 144.304 3.69364C147.833 4.1656 149.597 5.37626 149.597 7.32563V13.42C149.597 13.6799 149.638 13.9227 149.721 14.1484C149.81 14.3673 149.903 14.5315 150 14.6409H144.066C143.908 14.3741 143.829 14.0732 143.829 13.738V13.3482C143.016 13.8885 142.013 14.2989 140.821 14.5793C139.628 14.8598 138.391 15 137.11 15ZM137.926 12.0349C139.67 12.0349 141.11 11.8365 142.247 11.4398C143.301 11.0636 143.829 10.5677 143.829 9.95215C143.512 10.13 142.016 10.3283 139.342 10.5472C137.723 10.6772 136.772 10.8037 136.489 10.9268C136.227 11.0363 136.097 11.197 136.097 11.4091C136.097 11.58 136.179 11.71 136.345 11.7989C136.648 11.9562 137.127 12.0349 137.781 12.0349H137.926Z" fill="#EBEAF6"/>
<path d="M127.796 14.6408H122.028V3.79614H127.796V14.6408ZM127.796 2.78042H122.028V0H127.796V2.78042Z" fill="#D0CEE6"/>
<path d="M118.948 14.6407H101.84V11.5628L109.965 7.31521H102.346V3.79608H118.813V6.8843L110.699 11.1216H118.948V14.6407Z" fill="#ABA7D0"/>
<path d="M90.2215 14.9999C89.6564 14.9999 88.9362 14.9828 88.061 14.9486C85.8902 14.8734 84.1605 14.5108 82.8718 13.8611C80.9973 12.8556 80.0601 11.3098 80.0601 9.22361C80.0601 7.14428 80.9973 5.60188 82.8718 4.59641C84.1398 3.94662 85.842 3.58069 87.9783 3.49861C88.8466 3.46441 89.5944 3.44731 90.2215 3.44731C90.8555 3.44731 91.6067 3.46441 92.475 3.49861C95.645 3.62173 97.8572 4.36044 99.1114 5.71474C99.7937 6.46029 100.193 7.41787 100.311 8.58749C100.366 9.13469 100.393 9.71266 100.393 10.3214H86.1797C86.3933 10.7865 86.7172 11.1319 87.1513 11.3577C87.5924 11.5834 88.0851 11.7304 88.6296 11.7988C89.1809 11.8604 89.7115 11.8912 90.2215 11.8912C90.759 11.8912 91.3551 11.8399 92.0098 11.7373C92.6714 11.6347 93.1779 11.4568 93.5294 11.2038H100.052C99.6455 12.2981 98.822 13.1839 97.5815 13.8611C96.8442 14.2304 96.0137 14.4972 95.0903 14.6613C94.1737 14.8255 93.2744 14.9212 92.3923 14.9486C91.5171 14.9828 90.7935 14.9999 90.2215 14.9999ZM94.2736 8.1258C93.8946 7.29133 93.0745 6.80228 91.8134 6.65864C91.269 6.59025 90.7383 6.55605 90.2215 6.55605C89.7115 6.55605 89.1843 6.59025 88.6399 6.65864C87.3788 6.80228 86.5587 7.29133 86.1797 8.1258H94.2736Z" fill="#8883BB"/>
<path d="M77.8689 14.6408H72.1008V8.78243C72.1008 8.24208 71.8493 7.76671 71.3462 7.35631C70.9947 7.11008 70.564 6.96302 70.0541 6.91514C69.6406 6.88094 69.2753 6.86384 68.9583 6.86384C67.8557 6.86384 66.9908 6.94934 66.3637 7.12034C65.0819 7.46917 64.441 8.17026 64.441 9.22361V14.6408H58.6729V3.79615H64.1722V5.01707C64.186 5.00339 64.2584 4.94867 64.3893 4.85291L64.441 4.82213C65.199 4.37754 66.1156 4.03896 67.1907 3.80641C68.2726 3.56701 69.2133 3.44731 70.0127 3.44731C70.7019 3.44731 71.4151 3.47125 72.1525 3.51913C72.8899 3.56017 73.5963 3.66277 74.2716 3.82693C74.947 3.99108 75.5534 4.23732 76.091 4.56564C76.6354 4.89395 77.0661 5.33512 77.3831 5.88916C77.707 6.43635 77.8689 7.12376 77.8689 7.95139V14.6408Z" fill="#665FA6"/>
<path d="M55.4686 14.6408H49.7005V8.78243C49.7005 8.4336 49.6316 8.14632 49.4937 7.92061C49.3628 7.68805 49.2043 7.49995 49.0182 7.35631C48.8322 7.21268 48.622 7.10666 48.3877 7.03826C48.1534 6.96986 47.9122 6.9254 47.6641 6.90488C47.416 6.87752 47.192 6.86384 46.9922 6.86384C46.1445 6.86384 45.476 6.94934 44.9867 7.12034C44.4975 7.2845 44.1494 7.54099 43.9427 7.88983C43.736 8.23866 43.6326 8.68325 43.6326 9.22361V14.6408H37.8644V8.78243C37.8644 8.4336 37.7955 8.14632 37.6577 7.92061C37.5268 7.68805 37.3648 7.49995 37.1719 7.35631C36.9858 7.21268 36.7756 7.10666 36.5413 7.03826C36.307 6.96986 36.0658 6.9254 35.8177 6.90488C35.5765 6.87752 35.3525 6.86384 35.1458 6.86384C34.2981 6.86384 33.6297 6.94934 33.1404 7.12034C32.6511 7.2845 32.3031 7.54099 32.0963 7.88983C31.8896 8.23866 31.7862 8.68325 31.7862 9.22361V14.6408H26.0181V3.79615H31.5174V5.01707C32.2066 4.51092 33.0094 4.12446 33.926 3.85771C34.8494 3.58411 35.7384 3.44731 36.593 3.44731C38.1367 3.44731 39.3633 3.55333 40.273 3.76537C41.4928 4.0458 42.3852 4.58957 42.9503 5.39668C43.0744 5.25988 43.2088 5.13335 43.3535 5.01707C44.0426 4.51092 44.8489 4.12446 45.7724 3.85771C46.6958 3.58411 47.5814 3.44731 48.429 3.44731C49.1251 3.44731 49.8108 3.47125 50.4861 3.51913C51.1684 3.56701 51.8058 3.67303 52.3985 3.83719C52.998 4.00134 53.5252 4.24758 53.9801 4.5759C54.4418 4.90421 54.8036 5.34196 55.0655 5.88916C55.3342 6.43635 55.4686 7.12718 55.4686 7.96165V14.6408Z" fill="#423990"/>
<path d="M24.6541 14.6408H17.6352L16.6738 12.8248H7.99062L7.01893 14.6408H0L8.66254 0.471924H16.0019L24.6541 14.6408ZM14.472 8.66954L12.3322 4.63742L10.1924 8.66954H14.472Z" fill="#110673"/>
</svg>
