<svg width="290" height="30" viewBox="0 0 290 30" fill="none" xmlns="http://www.w3.org/2000/svg">
<path opacity="0.1" d="M265.078 30.0005C263.506 30.0005 262.014 29.9595 260.602 29.8774C259.19 29.7953 257.904 29.6311 256.745 29.3849C255.586 29.1524 254.58 28.7967 253.727 28.3179C252.888 27.8254 252.235 27.1825 251.768 26.3891C251.315 25.5956 251.089 24.6107 251.089 23.4343C251.089 22.1484 251.335 21.1224 251.828 20.3563C252.321 19.5766 253.054 18.9747 254.027 18.5506C254.999 18.1129 256.192 17.7914 257.604 17.5862C259.03 17.3673 260.802 17.1826 262.92 17.0322C267.717 16.6765 271.107 16.3687 273.093 16.1088C275.944 15.7258 277.369 15.2401 277.369 14.6519C277.369 13.8448 275.597 13.4139 272.053 13.3592H270.454C269.642 13.3592 268.802 13.3797 267.936 13.4207C265.885 13.5302 264.725 13.9406 264.459 14.6519H252.728C252.848 13.708 253.254 12.812 253.947 11.9638C254.64 11.102 255.526 10.336 256.605 9.66566C259.589 7.80522 264.172 6.875 270.355 6.875C273.672 6.875 276.55 7.046 278.988 7.38799C285.81 8.33189 289.221 10.7532 289.221 14.6519V26.8405C289.221 27.3603 289.3 27.846 289.46 28.2974C289.634 28.7351 289.813 29.0634 290 29.2823H278.528C278.222 28.7488 278.069 28.1469 278.069 27.4766V26.6969C276.497 27.7775 274.558 28.5983 272.253 29.1592C269.948 29.7201 267.557 30.0005 265.078 30.0005ZM266.657 24.0704C270.028 24.0704 272.813 23.6736 275.011 22.8802C277.05 22.1278 278.069 21.1361 278.069 19.9049C277.456 20.2606 274.565 20.6573 269.395 21.095C266.264 21.3549 264.426 21.608 263.879 21.8542C263.373 22.0731 263.12 22.3946 263.12 22.8187C263.12 23.1607 263.28 23.4206 263.6 23.5984C264.186 23.913 265.112 24.0704 266.378 24.0704H266.657Z" fill="white"/>
<path opacity="0.18" d="M247.072 29.2814H235.92V7.59222H247.072V29.2814ZM247.072 5.56079H235.92V0H247.072V5.56079Z" fill="white"/>
<path opacity="0.3" d="M229.966 29.2809H196.89V23.1251L212.598 14.63H197.869V7.5918H229.706V13.7682L214.017 22.2427H229.966V29.2809Z" fill="white"/>
<path opacity="0.4" d="M174.428 29.9995C173.335 29.9995 171.943 29.9653 170.251 29.8969C166.054 29.7464 162.71 29.0214 160.218 27.7218C156.594 25.7109 154.782 22.6193 154.782 18.447C154.782 14.2884 156.594 11.2036 160.218 9.19272C162.67 7.89315 165.961 7.16129 170.091 6.99713C171.77 6.92873 173.215 6.89453 174.428 6.89453C175.653 6.89453 177.106 6.92873 178.784 6.99713C184.913 7.24336 189.19 8.72077 191.615 11.4293C192.934 12.9204 193.707 14.8356 193.933 17.1748C194.04 18.2692 194.093 19.4251 194.093 20.6426H166.613C167.026 21.5728 167.653 22.2637 168.492 22.7151C169.345 23.1665 170.297 23.4606 171.35 23.5974C172.416 23.7205 173.442 23.7821 174.428 23.7821C175.467 23.7821 176.619 23.6795 177.885 23.4743C179.164 23.2691 180.143 22.9134 180.823 22.4073H193.434C192.647 24.596 191.055 26.3676 188.657 27.7218C187.231 28.4605 185.626 28.9941 183.841 29.3224C182.069 29.6507 180.33 29.8422 178.625 29.8969C176.932 29.9653 175.533 29.9995 174.428 29.9995ZM182.262 16.2514C181.529 14.5825 179.944 13.6044 177.505 13.3171C176.453 13.1803 175.427 13.1119 174.428 13.1119C173.442 13.1119 172.422 13.1803 171.37 13.3171C168.932 13.6044 167.346 14.5825 166.613 16.2514H182.262Z" fill="white"/>
<path opacity="0.6" d="M150.546 29.2813H139.395V17.5647C139.395 16.484 138.908 15.5332 137.936 14.7125C137.256 14.22 136.423 13.9259 135.437 13.8301C134.638 13.7617 133.932 13.7275 133.319 13.7275C131.187 13.7275 129.515 13.8985 128.303 14.2405C125.825 14.9382 124.586 16.3403 124.586 18.447V29.2813H113.434V7.59219H124.066V10.034C124.093 10.0067 124.232 9.89722 124.486 9.70571L124.586 9.64415C126.051 8.75497 127.823 8.07782 129.902 7.61271C131.993 7.13393 133.812 6.89453 135.358 6.89453C136.69 6.89453 138.069 6.94241 139.494 7.03817C140.92 7.12025 142.286 7.32544 143.591 7.65375C144.897 7.98207 146.07 8.47453 147.109 9.13116C148.161 9.78778 148.994 10.6701 149.607 11.7782C150.233 12.8726 150.546 14.2474 150.546 15.9026V29.2813Z" fill="white"/>
<path opacity="0.8" d="M107.239 29.2813H96.0875V17.5647C96.0875 16.867 95.9543 16.2925 95.6878 15.841C95.4346 15.3759 95.1282 14.9997 94.7685 14.7125C94.4087 14.4252 94.0024 14.2132 93.5494 14.0764C93.0964 13.9396 92.6301 13.8506 92.1504 13.8096C91.6708 13.7549 91.2378 13.7275 90.8514 13.7275C89.2126 13.7275 87.9202 13.8985 86.9743 14.2405C86.0283 14.5688 85.3555 15.0818 84.9558 15.7795C84.5561 16.4771 84.3562 17.3663 84.3562 18.447V29.2813H73.2045V17.5647C73.2045 16.867 73.0713 16.2925 72.8048 15.841C72.5516 15.3759 72.2385 14.9997 71.8655 14.7125C71.5058 14.4252 71.0994 14.2132 70.6464 14.0764C70.1934 13.9396 69.7271 13.8506 69.2474 13.8096C68.7811 13.7549 68.3481 13.7275 67.9484 13.7275C66.3096 13.7275 65.0172 13.8985 64.0713 14.2405C63.1253 14.5688 62.4525 15.0818 62.0528 15.7795C61.6531 16.4771 61.4532 17.3663 61.4532 18.447V29.2813H50.3015V7.59219H60.9336V10.034C62.266 9.02172 63.8181 8.24882 65.5901 7.71531C67.3755 7.16813 69.0942 6.89453 70.7463 6.89453C73.7308 6.89453 76.1023 7.10657 77.861 7.53064C80.2193 8.0915 81.9447 9.17904 83.0372 10.7932C83.277 10.5196 83.5368 10.2666 83.8166 10.034C85.1489 9.02172 86.7078 8.24882 88.4931 7.71531C90.2785 7.16813 91.9905 6.89453 93.6293 6.89453C94.975 6.89453 96.3007 6.94241 97.6064 7.03817C98.9254 7.13393 100.158 7.34596 101.304 7.67427C102.463 8.00259 103.482 8.49505 104.361 9.15168C105.254 9.8083 105.953 10.6838 106.46 11.7782C106.979 12.8726 107.239 14.2542 107.239 15.9231V29.2813Z" fill="white"/>
<path opacity="0.95" d="M47.6646 29.2818H34.0947L32.236 25.6498H15.4485L13.5699 29.2818H0L16.7476 0.944336H30.937L47.6646 29.2818ZM27.9792 17.3394L23.8423 9.27526L19.7054 17.3394H27.9792Z" fill="white"/>
</svg>
