<svg width="179" height="19" viewBox="0 0 179 19" fill="none" xmlns="http://www.w3.org/2000/svg">
<path opacity="0.1" d="M163.617 18.5174C162.647 18.5174 161.726 18.4921 160.854 18.4414C159.982 18.3908 159.189 18.2894 158.473 18.1375C157.758 17.9939 157.137 17.7744 156.611 17.4789C156.093 17.1749 155.69 16.778 155.402 16.2883C155.122 15.7986 154.982 15.1906 154.982 14.4645C154.982 13.6708 155.135 13.0375 155.439 12.5646C155.743 12.0833 156.195 11.7118 156.796 11.4501C157.396 11.1799 158.132 10.9815 159.004 10.8548C159.884 10.7197 160.978 10.6057 162.285 10.5128C165.246 10.2933 167.339 10.1033 168.564 9.94288C170.324 9.70646 171.204 9.40671 171.204 9.04363C171.204 8.54545 170.11 8.27948 167.923 8.2457H166.936C166.434 8.2457 165.916 8.25837 165.381 8.2837C164.115 8.35125 163.399 8.60456 163.235 9.04363H155.994C156.068 8.46102 156.319 7.90796 156.746 7.38445C157.174 6.8525 157.721 6.37966 158.387 5.96592C160.229 4.81758 163.058 4.24341 166.874 4.24341C168.922 4.24341 170.698 4.34895 172.203 4.56005C176.414 5.14266 178.519 6.63719 178.519 9.04363V16.5669C178.519 16.8878 178.568 17.1875 178.667 17.4662C178.774 17.7364 178.885 17.939 179 18.0741H171.919C171.73 17.7448 171.636 17.3733 171.636 16.9596V16.4783C170.665 17.1453 169.469 17.6519 168.046 17.9981C166.623 18.3443 165.147 18.5174 163.617 18.5174ZM164.592 14.8571C166.673 14.8571 168.391 14.6122 169.748 14.1225C171.006 13.6581 171.636 13.0459 171.636 12.286C171.257 12.5055 169.473 12.7504 166.282 13.0206C164.349 13.181 163.214 13.3372 162.877 13.4892C162.565 13.6243 162.408 13.8227 162.408 14.0845C162.408 14.2956 162.507 14.456 162.705 14.5658C163.066 14.76 163.638 14.8571 164.419 14.8571H164.592Z" fill="white"/>
<path opacity="0.18" d="M152.503 18.0737H145.62V4.68623H152.503V18.0737ZM152.503 3.43235H145.62V0H152.503V3.43235Z" fill="white"/>
<path opacity="0.3" d="M141.944 18.0735H121.529V14.2738L131.225 9.0303H122.133V4.68604H141.784V8.49835L132.1 13.7292H141.944V18.0735Z" fill="white"/>
<path opacity="0.4" d="M107.664 18.517C106.99 18.517 106.13 18.4959 105.086 18.4536C102.495 18.3608 100.431 17.9132 98.8933 17.1111C96.6564 15.8699 95.538 13.9616 95.538 11.3863C95.538 8.81941 96.6564 6.91537 98.8933 5.67415C100.406 4.872 102.438 4.42027 104.987 4.31894C106.023 4.27672 106.916 4.25562 107.664 4.25562C108.421 4.25562 109.317 4.27672 110.353 4.31894C114.136 4.47093 116.776 5.38284 118.273 7.05469C119.087 7.97505 119.564 9.15716 119.704 10.601C119.769 11.2765 119.802 11.99 119.802 12.7415H102.841C103.096 13.3157 103.482 13.7421 104 14.0207C104.527 14.2994 105.115 14.4809 105.764 14.5653C106.422 14.6413 107.055 14.6793 107.664 14.6793C108.305 14.6793 109.017 14.616 109.798 14.4893C110.587 14.3627 111.192 14.1431 111.611 13.8307H119.395C118.91 15.1817 117.927 16.2752 116.447 17.1111C115.567 17.567 114.576 17.8964 113.474 18.099C112.38 18.3016 111.307 18.4199 110.254 18.4536C109.21 18.4959 108.346 18.517 107.664 18.517ZM112.499 10.0311C112.047 9.00095 111.069 8.39723 109.564 8.21992C108.914 8.13548 108.281 8.09326 107.664 8.09326C107.055 8.09326 106.426 8.13548 105.777 8.21992C104.272 8.39723 103.293 9.00095 102.841 10.0311H112.499Z" fill="white"/>
<path opacity="0.6" d="M92.9233 18.0737H86.04V10.8417C86.04 10.1746 85.7398 9.58779 85.1395 9.08117C84.7201 8.7772 84.2061 8.59566 83.5975 8.53655C83.1041 8.49433 82.6683 8.47322 82.29 8.47322C80.9742 8.47322 79.9421 8.57877 79.1937 8.78986C77.6641 9.22049 76.8993 10.086 76.8993 11.3863V18.0737H70.016V4.68624H76.5786V6.19344C76.595 6.17655 76.6814 6.109 76.8376 5.99079L76.8993 5.95279C77.8039 5.40395 78.8977 4.98599 80.1806 4.69891C81.4717 4.40338 82.5943 4.25562 83.5482 4.25562C84.3706 4.25562 85.2217 4.28517 86.1017 4.34427C86.9816 4.39494 87.8246 4.52159 88.6305 4.72424C89.4364 4.92689 90.1601 5.23086 90.8016 5.63615C91.4513 6.04145 91.9652 6.58607 92.3435 7.27C92.73 7.9455 92.9233 8.79408 92.9233 9.81577V18.0737Z" fill="white"/>
<path opacity="0.8" d="M66.1924 18.0737H59.3091V10.8417C59.3091 10.411 59.2269 10.0564 59.0624 9.77777C58.9061 9.49069 58.717 9.25848 58.4949 9.08117C58.2729 8.90385 58.0221 8.77297 57.7425 8.68854C57.4629 8.6041 57.175 8.54922 56.879 8.52389C56.5829 8.49011 56.3156 8.47322 56.0771 8.47322C55.0656 8.47322 54.2679 8.57877 53.684 8.78986C53.1001 8.99251 52.6848 9.30915 52.4381 9.73977C52.1914 10.1704 52.0681 10.7192 52.0681 11.3863V18.0737H45.1848V10.8417C45.1848 10.411 45.1025 10.0564 44.938 9.77777C44.7818 9.49069 44.5885 9.25848 44.3583 9.08117C44.1362 8.90385 43.8854 8.77297 43.6058 8.68854C43.3262 8.6041 43.0384 8.54922 42.7423 8.52389C42.4545 8.49011 42.1872 8.47322 41.9405 8.47322C40.929 8.47322 40.1313 8.57877 39.5474 8.78986C38.9635 8.99251 38.5482 9.30915 38.3015 9.73977C38.0547 10.1704 37.9314 10.7192 37.9314 11.3863V18.0737H31.0481V4.68624H37.6107V6.19344C38.433 5.5686 39.3911 5.09154 40.4849 4.76224C41.5869 4.42449 42.6477 4.25562 43.6675 4.25562C45.5096 4.25562 46.9734 4.38649 48.059 4.64825C49.5146 4.99444 50.5795 5.66571 51.2539 6.66206C51.4019 6.49319 51.5623 6.33698 51.735 6.19344C52.5574 5.5686 53.5196 5.09154 54.6215 4.76224C55.7235 4.42449 56.7803 4.25562 57.7918 4.25562C58.6224 4.25562 59.4407 4.28517 60.2466 4.34427C61.0607 4.40338 61.8214 4.53426 62.5287 4.7369C63.2442 4.93955 63.8733 5.24352 64.416 5.64882C64.967 6.05412 65.3988 6.59451 65.7113 7.27C66.032 7.9455 66.1924 8.79831 66.1924 9.82843V18.0737Z" fill="white"/>
<path opacity="0.95" d="M29.4205 18.0738H21.0446L19.8974 15.832H9.53546L8.37591 18.0738H0L10.3373 0.582764H19.0956L29.4205 18.0738ZM17.2699 10.7025L14.7164 5.72495L12.163 10.7025H17.2699Z" fill="white"/>
</svg>
