<svg width="14" height="15" viewBox="0 0 14 15" fill="none" xmlns="http://www.w3.org/2000/svg">
<path d="M12.6696 9.99572C12.2617 9.82127 11.9143 9.5305 11.6707 9.15975C11.4271 8.78899 11.2981 8.35468 11.2998 7.91106C11.3051 7.51506 11.4112 7.12694 11.608 6.78329C11.8048 6.43963 12.0859 6.15178 12.4248 5.94686C12.5015 5.89948 12.5678 5.83704 12.6196 5.76332C12.6715 5.6896 12.7079 5.60613 12.7266 5.51795C12.7452 5.42977 12.7458 5.33872 12.7283 5.2503C12.7108 5.16189 12.6756 5.07794 12.6247 5.00353C12.3201 4.56051 11.9229 4.18887 11.4607 3.91428C10.9984 3.63968 10.4821 3.46867 9.9473 3.41304C10.445 2.62313 10.6709 1.69217 10.5905 0.76199C10.5748 0.593085 10.4943 0.436825 10.3659 0.326C10.2375 0.215175 10.0711 0.158401 9.90172 0.16759C8.75702 0.269616 7.69587 0.80952 6.93948 1.67475C6.46 2.23034 6.12165 2.89341 5.95316 3.60769C5.60503 3.48988 5.24056 3.42749 4.87308 3.4228C4.19273 3.44208 3.52892 3.63682 2.94598 3.98814C2.36305 4.33946 1.88078 4.83544 1.54593 5.42799C0.287463 7.61288 1.05732 10.887 2.4206 12.8577C2.96747 13.6474 3.78811 14.8329 5.02606 14.8329C5.05048 14.8329 5.07522 14.8329 5.09996 14.8316C5.51474 14.8081 5.92082 14.703 6.29494 14.5224C6.59378 14.3709 6.92348 14.2902 7.25849 14.2867C7.57353 14.2905 7.88336 14.3676 8.16344 14.5119C8.57269 14.7056 9.01868 14.8092 9.47138 14.816C10.7468 14.7919 11.5 13.6916 12.0502 12.8876C12.4842 12.2489 12.8239 11.551 13.0586 10.8153C13.1087 10.6548 13.0964 10.4814 13.0243 10.3295C12.9522 10.1776 12.8256 10.0584 12.6696 9.99572ZM7.94892 2.5452C8.29907 2.15353 8.73781 1.85129 9.22854 1.6637C9.12118 2.19185 8.88363 2.68484 8.53746 3.09794C8.30249 3.37985 8.0166 3.61507 7.6947 3.79132L7.69274 3.79199C7.67386 3.7998 7.65498 3.80696 7.63608 3.81478C7.51173 3.8636 7.35808 3.92415 7.2396 3.96321C7.35402 3.43876 7.59787 2.95128 7.94892 2.5452ZM10.9499 12.135C10.4141 12.9176 9.99256 13.4729 9.44697 13.4827C9.18324 13.4819 8.92393 13.4149 8.69274 13.288C8.24582 13.0703 7.75563 12.9559 7.2585 12.9534C6.74408 12.956 6.23665 13.0727 5.77282 13.2952C5.54731 13.4103 5.30128 13.4798 5.04886 13.4996H5.029C4.487 13.4996 3.904 12.6578 3.51696 12.0985C2.54853 10.6988 1.6553 7.90975 2.70153 6.09334C2.92092 5.70028 3.23819 5.37061 3.62255 5.13631C4.00691 4.90202 4.44531 4.77106 4.89521 4.75614L4.91767 4.75548C5.29719 4.78773 5.6678 4.88808 6.01175 5.0517C6.09932 5.0862 6.18558 5.12071 6.27119 5.15261C6.293 5.16173 6.31546 5.17019 6.33824 5.17735C6.57549 5.27277 6.82749 5.3263 7.08304 5.33556C7.44487 5.3068 7.79831 5.21168 8.1257 5.05496C8.58721 4.83097 9.09452 4.71752 9.60747 4.72358C10.1561 4.74504 10.6829 4.94481 11.1078 5.29259C10.7447 5.62717 10.4555 6.03401 10.259 6.48699C10.0624 6.93996 9.96281 7.42903 9.96652 7.9228V7.92346C9.96275 8.52121 10.1107 9.11015 10.3965 9.63516C10.6823 10.1602 11.0966 10.6041 11.6006 10.9254C11.4251 11.3496 11.2071 11.7548 10.9499 12.135Z" fill="#ffffff"/>
</svg>
