<svg width="382" height="648" viewBox="0 0 382 648" fill="none" xmlns="http://www.w3.org/2000/svg">
<g filter="url(#filter0_ddd)">
<g clip-path="url(#clip0)">
<rect x="24.0002" y="8" width="333.333" height="600" rx="5" fill="white"/>
<rect width="333.333" height="25" transform="translate(24.0002 8)" fill="#F5F5F5"/>
<line x1="348.184" y1="15.256" x2="338.756" y2="24.6841" stroke="#100A44" stroke-width="1.66667"/>
<line y1="-0.833333" x2="13.3333" y2="-0.833333" transform="matrix(-0.707107 -0.707107 -0.707107 0.707107 347.595 25.2734)" stroke="#100A44" stroke-width="1.66667"/>
<g clip-path="url(#clip1)">
<path d="M330.667 62.1667C332.048 62.1667 333.167 61.0475 333.167 59.6667C333.167 58.286 332.048 57.1667 330.667 57.1667C329.286 57.1667 328.167 58.286 328.167 59.6667C328.167 61.0475 329.286 62.1667 330.667 62.1667Z" stroke="#A7A7A7" stroke-width="1.66667" stroke-linecap="round" stroke-linejoin="round"/>
<path d="M336.834 62.1667C336.723 62.418 336.69 62.6968 336.739 62.9672C336.788 63.2375 336.916 63.4869 337.109 63.6833L337.159 63.7333C337.314 63.8881 337.436 64.0719 337.52 64.2743C337.604 64.4766 337.647 64.6935 337.647 64.9125C337.647 65.1315 337.604 65.3484 337.52 65.5507C337.436 65.7531 337.314 65.9369 337.159 66.0917C337.004 66.2466 336.82 66.3696 336.618 66.4534C336.415 66.5373 336.198 66.5805 335.979 66.5805C335.76 66.5805 335.544 66.5373 335.341 66.4534C335.139 66.3696 334.955 66.2466 334.8 66.0917L334.75 66.0417C334.554 65.8495 334.304 65.7207 334.034 65.6717C333.764 65.6226 333.485 65.6557 333.234 65.7667C332.987 65.8723 332.777 66.0477 332.629 66.2713C332.481 66.4949 332.401 66.7568 332.4 67.025V67.1667C332.4 67.6087 332.225 68.0326 331.912 68.3452C331.6 68.6577 331.176 68.8333 330.734 68.8333C330.292 68.8333 329.868 68.6577 329.555 68.3452C329.243 68.0326 329.067 67.6087 329.067 67.1667V67.0917C329.06 66.8158 328.971 66.5483 328.811 66.3239C328.65 66.0995 328.426 65.9286 328.167 65.8333C327.916 65.7224 327.637 65.6893 327.366 65.7383C327.096 65.7873 326.847 65.9162 326.65 66.1083L326.6 66.1583C326.445 66.3133 326.262 66.4362 326.059 66.5201C325.857 66.604 325.64 66.6471 325.421 66.6471C325.202 66.6471 324.985 66.604 324.783 66.5201C324.581 66.4362 324.397 66.3133 324.242 66.1583C324.087 66.0035 323.964 65.8197 323.88 65.6174C323.796 65.4151 323.753 65.1982 323.753 64.9792C323.753 64.7601 323.796 64.5433 323.88 64.3409C323.964 64.1386 324.087 63.9548 324.242 63.8L324.292 63.75C324.484 63.5536 324.613 63.3042 324.662 63.0338C324.711 62.7635 324.678 62.4847 324.567 62.2333C324.461 61.9869 324.286 61.7767 324.062 61.6286C323.839 61.4805 323.577 61.4011 323.309 61.4H323.167C322.725 61.4 322.301 61.2244 321.988 60.9118C321.676 60.5993 321.5 60.1754 321.5 59.7333C321.5 59.2913 321.676 58.8674 321.988 58.5548C322.301 58.2423 322.725 58.0667 323.167 58.0667H323.242C323.518 58.0602 323.785 57.9709 324.01 57.8104C324.234 57.6499 324.405 57.4256 324.5 57.1667C324.611 56.9153 324.644 56.6365 324.595 56.3662C324.546 56.0958 324.417 55.8464 324.225 55.65L324.175 55.6C324.02 55.4452 323.897 55.2614 323.813 55.0591C323.73 54.8567 323.686 54.6399 323.686 54.4208C323.686 54.2018 323.73 53.9849 323.813 53.7826C323.897 53.5803 324.02 53.3965 324.175 53.2417C324.33 53.0867 324.514 52.9638 324.716 52.8799C324.919 52.796 325.135 52.7529 325.354 52.7529C325.573 52.7529 325.79 52.796 325.993 52.8799C326.195 52.9638 326.379 53.0867 326.534 53.2417L326.584 53.2917C326.78 53.4838 327.029 53.6127 327.3 53.6617C327.57 53.7107 327.849 53.6776 328.1 53.5667H328.167C328.413 53.461 328.624 53.2856 328.772 53.0621C328.92 52.8385 328.999 52.5765 329 52.3083V52.1667C329 51.7246 329.176 51.3007 329.488 50.9882C329.801 50.6756 330.225 50.5 330.667 50.5C331.109 50.5 331.533 50.6756 331.845 50.9882C332.158 51.3007 332.334 51.7246 332.334 52.1667V52.2417C332.335 52.5098 332.414 52.7718 332.562 52.9954C332.71 53.219 332.92 53.3944 333.167 53.5C333.418 53.6109 333.697 53.644 333.967 53.595C334.238 53.546 334.487 53.4171 334.684 53.225L334.734 53.175C334.888 53.02 335.072 52.8971 335.275 52.8132C335.477 52.7294 335.694 52.6862 335.913 52.6862C336.132 52.6862 336.349 52.7294 336.551 52.8132C336.753 52.8971 336.937 53.02 337.092 53.175C337.247 53.3298 337.37 53.5136 337.454 53.7159C337.538 53.9183 337.581 54.1351 337.581 54.3542C337.581 54.5732 337.538 54.7901 337.454 54.9924C337.37 55.1947 337.247 55.3785 337.092 55.5333L337.042 55.5833C336.85 55.7797 336.721 56.0292 336.672 56.2995C336.623 56.5698 336.656 56.8487 336.767 57.1V57.1667C336.873 57.4131 337.048 57.6233 337.272 57.7714C337.495 57.9195 337.757 57.9989 338.025 58H338.167C338.609 58 339.033 58.1756 339.345 58.4882C339.658 58.8007 339.834 59.2246 339.834 59.6667C339.834 60.1087 339.658 60.5326 339.345 60.8452C339.033 61.1577 338.609 61.3333 338.167 61.3333H338.092C337.824 61.3344 337.562 61.4139 337.338 61.5619C337.115 61.71 336.939 61.9202 336.834 62.1667V62.1667Z" stroke="#A7A7A7" stroke-width="1.66667" stroke-linecap="round" stroke-linejoin="round"/>
</g>
<path d="M49.7269 462.667H48.3202C48.1691 462.667 48.0424 462.627 47.9402 462.547C47.838 462.467 47.7424 462.349 47.6535 462.193L45.3802 458.84C45.3224 458.751 45.2646 458.678 45.2069 458.62C45.1491 458.558 45.0846 458.509 45.0135 458.473C44.9424 458.433 44.8624 458.407 44.7735 458.393C44.6846 458.376 44.5846 458.367 44.4735 458.367H43.3669V462.667H41.8069V453.067H43.3669V457.173H44.3069C44.5024 457.173 44.6669 457.142 44.8002 457.08C44.9335 457.018 45.0646 456.898 45.1935 456.72L47.4935 453.493C47.5691 453.369 47.6602 453.267 47.7669 453.187C47.878 453.107 48.0091 453.067 48.1602 453.067H49.4802L46.7335 456.96C46.6224 457.125 46.4958 457.26 46.3535 457.367C46.2113 457.473 46.0535 457.558 45.8802 457.62C46.1291 457.687 46.3402 457.796 46.5135 457.947C46.6913 458.098 46.858 458.307 47.0135 458.573L49.7269 462.667ZM54.184 459.693C53.6728 459.711 53.2417 459.753 52.8906 459.82C52.5395 459.882 52.2551 459.965 52.0373 460.067C51.8195 460.165 51.6617 460.282 51.564 460.42C51.4706 460.558 51.424 460.709 51.424 460.873C51.424 461.033 51.4484 461.171 51.4973 461.287C51.5506 461.398 51.6217 461.491 51.7106 461.567C51.804 461.638 51.9106 461.691 52.0306 461.727C52.1551 461.758 52.2906 461.773 52.4373 461.773C52.8106 461.773 53.1306 461.705 53.3973 461.567C53.6684 461.425 53.9306 461.22 54.184 460.953V459.693ZM50.384 456.813C51.1528 456.098 52.0684 455.74 53.1306 455.74C53.5217 455.74 53.8684 455.805 54.1706 455.933C54.4773 456.058 54.7328 456.236 54.9373 456.467C55.1462 456.698 55.304 456.973 55.4106 457.293C55.5217 457.609 55.5773 457.96 55.5773 458.347V462.667H54.9373C54.7995 462.667 54.6951 462.647 54.624 462.607C54.5528 462.562 54.4928 462.476 54.444 462.347L54.304 461.793C54.1306 461.949 53.9595 462.089 53.7906 462.213C53.6217 462.333 53.4462 462.436 53.264 462.52C53.0862 462.605 52.8928 462.667 52.684 462.707C52.4795 462.751 52.2528 462.773 52.004 462.773C51.7284 462.773 51.4706 462.736 51.2306 462.66C50.9951 462.585 50.7906 462.471 50.6173 462.32C50.444 462.165 50.3062 461.973 50.204 461.747C50.1062 461.52 50.0573 461.253 50.0573 460.947C50.0573 460.685 50.1262 460.429 50.264 460.18C50.4062 459.931 50.6373 459.709 50.9573 459.513C51.2817 459.313 51.7062 459.149 52.2306 459.02C52.7595 458.891 53.4106 458.818 54.184 458.8V458.347C54.184 457.858 54.0795 457.493 53.8706 457.253C53.6617 457.013 53.3551 456.893 52.9506 456.893C52.6751 456.893 52.444 456.929 52.2573 457C52.0706 457.067 51.9084 457.14 51.7706 457.22C51.6328 457.3 51.5106 457.376 51.404 457.447C51.2973 457.513 51.184 457.547 51.064 457.547C50.9662 457.547 50.8817 457.522 50.8106 457.473C50.744 457.42 50.6884 457.356 50.644 457.28L50.384 456.813ZM61.3497 456.253C61.4208 456.138 61.5163 456.045 61.6363 455.973C61.7608 455.902 61.8897 455.867 62.023 455.867H63.143L61.4697 458.42C61.363 458.593 61.2519 458.733 61.1363 458.84C61.0208 458.947 60.8786 459.029 60.7097 459.087C60.9275 459.149 61.1075 459.245 61.2497 459.373C61.3963 459.498 61.5275 459.66 61.643 459.86L63.3297 462.667H62.343C62.0897 462.667 61.8919 462.625 61.7497 462.54C61.6119 462.456 61.4941 462.331 61.3963 462.167L60.243 460.18C60.1497 460.011 60.0275 459.887 59.8763 459.807C59.7252 459.727 59.5541 459.687 59.363 459.687H58.6897V462.673H57.2563V455.867H58.6897V458.727H59.2697C59.4563 458.727 59.6119 458.691 59.7363 458.62C59.8608 458.549 59.9675 458.44 60.0563 458.293L61.3497 456.253ZM73.64 455.867V462.667H72.2067V458.407C72.2067 458.313 72.2111 458.211 72.22 458.1C72.2289 457.989 72.2422 457.876 72.26 457.76C72.2156 457.858 72.1711 457.949 72.1267 458.033C72.0867 458.113 72.0422 458.187 71.9933 458.253L69.04 462.313C68.9867 462.398 68.9156 462.48 68.8267 462.56C68.7378 462.636 68.6378 462.673 68.5267 462.673H67.66V455.867H69.0933V460.127C69.0933 460.22 69.0867 460.325 69.0733 460.44C69.0644 460.556 69.0511 460.671 69.0333 460.787C69.1222 460.582 69.2133 460.413 69.3067 460.28L72.26 456.227C72.3133 456.138 72.3844 456.056 72.4733 455.98C72.5622 455.905 72.6622 455.867 72.7733 455.867H73.64ZM80.188 457.2C80.1436 457.258 80.1013 457.302 80.0613 457.333C80.0213 457.365 79.9636 457.38 79.888 457.38C79.8125 457.38 79.7325 457.353 79.648 457.3C79.568 457.247 79.4702 457.189 79.3547 457.127C79.2436 457.06 79.108 457 78.948 456.947C78.788 456.893 78.588 456.867 78.348 456.867C78.0369 456.867 77.7636 456.922 77.528 457.033C77.2969 457.145 77.1013 457.305 76.9413 457.513C76.7858 457.718 76.668 457.969 76.588 458.267C76.5125 458.56 76.4747 458.891 76.4747 459.26C76.4747 459.642 76.5169 459.982 76.6013 460.28C76.6858 460.578 76.8058 460.829 76.9613 461.033C77.1213 461.238 77.3125 461.393 77.5347 461.5C77.7613 461.607 78.0147 461.66 78.2947 461.66C78.5702 461.66 78.7947 461.627 78.968 461.56C79.1413 461.493 79.2858 461.42 79.4013 461.34C79.5169 461.26 79.6147 461.187 79.6947 461.12C79.7791 461.053 79.868 461.02 79.9613 461.02C80.0769 461.02 80.1658 461.065 80.228 461.153L80.6347 461.68C80.4702 461.88 80.288 462.049 80.088 462.187C79.888 462.325 79.6769 462.438 79.4547 462.527C79.2325 462.611 79.0013 462.671 78.7613 462.707C78.5213 462.747 78.2791 462.767 78.0347 462.767C77.6125 462.767 77.2169 462.689 76.848 462.533C76.4836 462.373 76.1636 462.145 75.888 461.847C75.6169 461.545 75.4013 461.178 75.2413 460.747C75.0858 460.311 75.008 459.816 75.008 459.26C75.008 458.758 75.0791 458.293 75.2213 457.867C75.3636 457.436 75.5702 457.065 75.8413 456.753C76.1169 456.442 76.4569 456.2 76.8613 456.027C77.2658 455.849 77.7325 455.76 78.2613 455.76C78.7547 455.76 79.188 455.84 79.5613 456C79.9391 456.16 80.2747 456.387 80.568 456.68L80.188 457.2ZM87.5876 462.667H86.1609V456.947H83.2209V462.667H81.7876V455.867H87.5876V462.667ZM92.2797 455.76C92.7819 455.76 93.2352 455.842 93.6397 456.007C94.0486 456.171 94.3952 456.405 94.6797 456.707C94.9686 457.009 95.1908 457.376 95.3463 457.807C95.5019 458.238 95.5797 458.722 95.5797 459.26C95.5797 459.798 95.5019 460.282 95.3463 460.713C95.1908 461.145 94.9686 461.513 94.6797 461.82C94.3952 462.122 94.0486 462.356 93.6397 462.52C93.2352 462.685 92.7819 462.767 92.2797 462.767C91.773 462.767 91.3152 462.685 90.9063 462.52C90.5019 462.356 90.1552 462.122 89.8663 461.82C89.5775 461.513 89.3552 461.145 89.1997 460.713C89.0441 460.282 88.9663 459.798 88.9663 459.26C88.9663 458.722 89.0441 458.238 89.1997 457.807C89.3552 457.376 89.5775 457.009 89.8663 456.707C90.1552 456.405 90.5019 456.171 90.9063 456.007C91.3152 455.842 91.773 455.76 92.2797 455.76ZM92.2797 461.647C92.893 461.647 93.3486 461.442 93.6463 461.033C93.9486 460.62 94.0997 460.031 94.0997 459.267C94.0997 458.502 93.9486 457.913 93.6463 457.5C93.3486 457.082 92.893 456.873 92.2797 456.873C91.6575 456.873 91.1952 457.082 90.893 457.5C90.5908 457.913 90.4397 458.502 90.4397 459.267C90.4397 460.031 90.5908 460.62 90.893 461.033C91.1952 461.442 91.6575 461.647 92.2797 461.647ZM102.921 462.667H101.488V456.98H99.5946C99.5412 457.829 99.459 458.562 99.3479 459.18C99.2412 459.793 99.1124 460.313 98.9612 460.74C98.8101 461.167 98.6412 461.513 98.4546 461.78C98.2679 462.042 98.0701 462.247 97.8612 462.393C97.6524 462.54 97.4368 462.638 97.2146 462.687C96.9968 462.736 96.7768 462.76 96.5546 462.76C96.1235 462.76 95.9079 462.689 95.9079 462.547V461.647H96.2812C96.4279 461.647 96.5768 461.622 96.7279 461.573C96.8835 461.525 97.0324 461.429 97.1746 461.287C97.3168 461.14 97.4524 460.936 97.5812 460.673C97.7146 460.411 97.8346 460.067 97.9412 459.64C98.0524 459.209 98.1479 458.687 98.2279 458.073C98.3079 457.456 98.3701 456.72 98.4146 455.867H102.921V462.667ZM107.365 461.627C107.574 461.627 107.756 461.6 107.912 461.547C108.072 461.489 108.203 461.413 108.305 461.32C108.412 461.222 108.49 461.107 108.539 460.973C108.592 460.84 108.619 460.693 108.619 460.533C108.619 460.391 108.594 460.258 108.545 460.133C108.501 460.005 108.427 459.893 108.325 459.8C108.227 459.702 108.099 459.627 107.939 459.573C107.779 459.516 107.583 459.487 107.352 459.487H106.032V461.627H107.365ZM107.345 458.453C107.816 458.453 108.214 458.511 108.539 458.627C108.863 458.738 109.125 458.889 109.325 459.08C109.525 459.271 109.67 459.493 109.759 459.747C109.847 459.996 109.892 460.256 109.892 460.527C109.892 460.842 109.836 461.131 109.725 461.393C109.614 461.651 109.45 461.876 109.232 462.067C109.019 462.258 108.754 462.407 108.439 462.513C108.127 462.616 107.77 462.667 107.365 462.667H104.665V455.867H106.032V458.453H107.345ZM110.684 456.587C110.942 456.342 111.257 456.145 111.631 455.993C112.004 455.838 112.451 455.76 112.971 455.76C113.389 455.76 113.757 455.811 114.077 455.913C114.397 456.011 114.666 456.145 114.884 456.313C115.102 456.478 115.266 456.669 115.377 456.887C115.493 457.105 115.551 457.331 115.551 457.567C115.551 457.7 115.531 457.838 115.491 457.98C115.451 458.118 115.384 458.253 115.291 458.387C115.202 458.52 115.082 458.645 114.931 458.76C114.784 458.876 114.602 458.971 114.384 459.047C114.789 459.18 115.109 459.387 115.344 459.667C115.58 459.942 115.697 460.287 115.697 460.7C115.697 461.025 115.622 461.316 115.471 461.573C115.324 461.827 115.126 462.042 114.877 462.22C114.633 462.398 114.349 462.533 114.024 462.627C113.704 462.72 113.371 462.767 113.024 462.767C112.815 462.767 112.597 462.747 112.371 462.707C112.149 462.671 111.926 462.611 111.704 462.527C111.486 462.438 111.275 462.325 111.071 462.187C110.866 462.049 110.682 461.88 110.517 461.68L110.931 461.153C110.984 461.065 111.073 461.02 111.197 461.02C111.286 461.02 111.377 461.053 111.471 461.12C111.564 461.187 111.673 461.26 111.797 461.34C111.926 461.42 112.08 461.493 112.257 461.56C112.44 461.627 112.664 461.66 112.931 461.66C113.153 461.66 113.351 461.633 113.524 461.58C113.697 461.527 113.844 461.451 113.964 461.353C114.084 461.256 114.175 461.142 114.237 461.013C114.3 460.88 114.331 460.736 114.331 460.58C114.331 460.278 114.206 460.04 113.957 459.867C113.713 459.689 113.326 459.6 112.797 459.6H112.031V458.653H112.797C113.26 458.653 113.617 458.569 113.871 458.4C114.124 458.231 114.251 458.011 114.251 457.74C114.251 457.496 114.14 457.289 113.917 457.12C113.7 456.951 113.371 456.867 112.931 456.867C112.682 456.867 112.469 456.893 112.291 456.947C112.117 456.996 111.971 457.051 111.851 457.113C111.731 457.171 111.629 457.225 111.544 457.273C111.464 457.322 111.393 457.347 111.331 457.347C111.264 457.347 111.206 457.333 111.157 457.307C111.113 457.28 111.064 457.225 111.011 457.14L110.684 456.587ZM120.027 455.76C120.529 455.76 120.983 455.842 121.387 456.007C121.796 456.171 122.143 456.405 122.427 456.707C122.716 457.009 122.938 457.376 123.094 457.807C123.249 458.238 123.327 458.722 123.327 459.26C123.327 459.798 123.249 460.282 123.094 460.713C122.938 461.145 122.716 461.513 122.427 461.82C122.143 462.122 121.796 462.356 121.387 462.52C120.983 462.685 120.529 462.767 120.027 462.767C119.52 462.767 119.063 462.685 118.654 462.52C118.249 462.356 117.903 462.122 117.614 461.82C117.325 461.513 117.103 461.145 116.947 460.713C116.792 460.282 116.714 459.798 116.714 459.26C116.714 458.722 116.792 458.238 116.947 457.807C117.103 457.376 117.325 457.009 117.614 456.707C117.903 456.405 118.249 456.171 118.654 456.007C119.063 455.842 119.52 455.76 120.027 455.76ZM120.027 461.647C120.64 461.647 121.096 461.442 121.394 461.033C121.696 460.62 121.847 460.031 121.847 459.267C121.847 458.502 121.696 457.913 121.394 457.5C121.096 457.082 120.64 456.873 120.027 456.873C119.405 456.873 118.943 457.082 118.64 457.5C118.338 457.913 118.187 458.502 118.187 459.267C118.187 460.031 118.338 460.62 118.64 461.033C118.943 461.442 119.405 461.647 120.027 461.647ZM127.404 461.673C127.795 461.673 128.104 461.58 128.331 461.393C128.562 461.202 128.678 460.947 128.678 460.627C128.678 460.489 128.658 460.36 128.618 460.24C128.578 460.12 128.509 460.018 128.411 459.933C128.313 459.845 128.182 459.776 128.018 459.727C127.858 459.678 127.655 459.653 127.411 459.653H126.071V461.673H127.404ZM126.071 456.813V458.753H127.251C127.429 458.753 127.591 458.729 127.738 458.68C127.889 458.627 128.018 458.556 128.124 458.467C128.235 458.373 128.32 458.265 128.378 458.14C128.44 458.011 128.471 457.869 128.471 457.713C128.471 457.602 128.451 457.493 128.411 457.387C128.371 457.276 128.302 457.178 128.204 457.093C128.111 457.009 127.986 456.942 127.831 456.893C127.675 456.84 127.482 456.813 127.251 456.813H126.071ZM127.298 455.867C127.72 455.867 128.084 455.909 128.391 455.993C128.698 456.073 128.949 456.187 129.144 456.333C129.344 456.48 129.491 456.653 129.584 456.853C129.678 457.053 129.724 457.269 129.724 457.5C129.724 457.647 129.704 457.8 129.664 457.96C129.624 458.12 129.555 458.273 129.458 458.42C129.36 458.562 129.226 458.693 129.058 458.813C128.893 458.933 128.682 459.027 128.424 459.093C128.909 459.182 129.291 459.36 129.571 459.627C129.855 459.889 129.998 460.24 129.998 460.68C129.998 461.018 129.929 461.311 129.791 461.56C129.653 461.809 129.464 462.016 129.224 462.18C128.989 462.345 128.713 462.467 128.398 462.547C128.086 462.627 127.758 462.667 127.411 462.667H124.704V455.867H127.298ZM134.991 459.693C134.48 459.711 134.049 459.753 133.698 459.82C133.347 459.882 133.062 459.965 132.845 460.067C132.627 460.165 132.469 460.282 132.371 460.42C132.278 460.558 132.231 460.709 132.231 460.873C132.231 461.033 132.256 461.171 132.305 461.287C132.358 461.398 132.429 461.491 132.518 461.567C132.611 461.638 132.718 461.691 132.838 461.727C132.962 461.758 133.098 461.773 133.245 461.773C133.618 461.773 133.938 461.705 134.205 461.567C134.476 461.425 134.738 461.22 134.991 460.953V459.693ZM131.191 456.813C131.96 456.098 132.876 455.74 133.938 455.74C134.329 455.74 134.676 455.805 134.978 455.933C135.285 456.058 135.54 456.236 135.745 456.467C135.953 456.698 136.111 456.973 136.218 457.293C136.329 457.609 136.385 457.96 136.385 458.347V462.667H135.745C135.607 462.667 135.502 462.647 135.431 462.607C135.36 462.562 135.3 462.476 135.251 462.347L135.111 461.793C134.938 461.949 134.767 462.089 134.598 462.213C134.429 462.333 134.253 462.436 134.071 462.52C133.893 462.605 133.7 462.667 133.491 462.707C133.287 462.751 133.06 462.773 132.811 462.773C132.536 462.773 132.278 462.736 132.038 462.66C131.802 462.585 131.598 462.471 131.425 462.32C131.251 462.165 131.113 461.973 131.011 461.747C130.913 461.52 130.865 461.253 130.865 460.947C130.865 460.685 130.933 460.429 131.071 460.18C131.213 459.931 131.445 459.709 131.765 459.513C132.089 459.313 132.513 459.149 133.038 459.02C133.567 458.891 134.218 458.818 134.991 458.8V458.347C134.991 457.858 134.887 457.493 134.678 457.253C134.469 457.013 134.162 456.893 133.758 456.893C133.482 456.893 133.251 456.929 133.065 457C132.878 457.067 132.716 457.14 132.578 457.22C132.44 457.3 132.318 457.376 132.211 457.447C132.105 457.513 131.991 457.547 131.871 457.547C131.773 457.547 131.689 457.522 131.618 457.473C131.551 457.42 131.496 457.356 131.451 457.28L131.191 456.813ZM143.667 456.947H141.16V462.667H139.727V456.947H137.214V455.867H143.667V456.947ZM147.417 461.627C147.626 461.627 147.808 461.6 147.964 461.547C148.124 461.489 148.255 461.413 148.357 461.32C148.464 461.222 148.542 461.107 148.591 460.973C148.644 460.84 148.671 460.693 148.671 460.533C148.671 460.391 148.646 460.258 148.597 460.133C148.553 460.005 148.48 459.893 148.377 459.8C148.28 459.702 148.151 459.627 147.991 459.573C147.831 459.516 147.635 459.487 147.404 459.487H146.084V461.627H147.417ZM147.397 458.453C147.868 458.453 148.266 458.511 148.591 458.627C148.915 458.738 149.177 458.889 149.377 459.08C149.577 459.271 149.722 459.493 149.811 459.747C149.9 459.996 149.944 460.256 149.944 460.527C149.944 460.842 149.888 461.131 149.777 461.393C149.666 461.651 149.502 461.876 149.284 462.067C149.071 462.258 148.806 462.407 148.491 462.513C148.18 462.616 147.822 462.667 147.417 462.667H144.717V455.867H146.084V458.453H147.397ZM162.275 453.067L158.382 462.667H156.975L153.082 453.067H154.328C154.466 453.067 154.577 453.102 154.662 453.173C154.746 453.24 154.811 453.325 154.855 453.427L157.328 459.687C157.462 460.038 157.584 460.442 157.695 460.9C157.744 460.673 157.795 460.458 157.848 460.253C157.906 460.049 157.968 459.86 158.035 459.687L160.502 453.427C160.537 453.338 160.6 453.256 160.688 453.18C160.777 453.105 160.888 453.067 161.022 453.067H162.275ZM166.382 457.96C166.729 457.96 167.033 457.916 167.295 457.827C167.562 457.738 167.782 457.613 167.955 457.453C168.133 457.289 168.267 457.091 168.355 456.86C168.444 456.629 168.489 456.371 168.489 456.087C168.489 455.807 168.444 455.556 168.355 455.333C168.271 455.111 168.142 454.922 167.969 454.767C167.795 454.611 167.575 454.493 167.309 454.413C167.047 454.329 166.738 454.287 166.382 454.287H164.955V457.96H166.382ZM166.382 453.067C167.009 453.067 167.551 453.14 168.009 453.287C168.471 453.433 168.851 453.64 169.149 453.907C169.451 454.169 169.675 454.487 169.822 454.86C169.969 455.229 170.042 455.638 170.042 456.087C170.042 456.545 169.964 456.965 169.809 457.347C169.653 457.725 169.422 458.051 169.115 458.327C168.809 458.598 168.427 458.811 167.969 458.967C167.515 459.118 166.987 459.193 166.382 459.193H164.955V462.667H163.395V453.067H166.382ZM179.48 453.067V462.667H178.687C178.567 462.667 178.465 462.647 178.38 462.607C178.296 462.562 178.216 462.491 178.14 462.393L172.867 455.62C172.88 455.749 172.889 455.878 172.893 456.007C172.902 456.131 172.907 456.247 172.907 456.353V462.667H171.533V453.067H172.347C172.413 453.067 172.469 453.071 172.513 453.08C172.562 453.085 172.607 453.096 172.647 453.113C172.687 453.131 172.725 453.158 172.76 453.193C172.796 453.229 172.833 453.273 172.873 453.327L178.153 460.107C178.14 459.969 178.129 459.833 178.12 459.7C178.116 459.567 178.113 459.442 178.113 459.327V453.067H179.48Z" fill="#100A44"/>
<rect x="40.6669" y="554.667" width="300" height="33.3333" rx="3.33333" fill="#100A44"/>
<path d="M145.3 572.203H142.51V575.144H141.518V572.203H138.742V571.28H141.518V568.361H142.51V571.28H145.3V572.203ZM156.971 575.294V567.581H153.729C153.675 568.698 153.597 569.678 153.497 570.521C153.397 571.365 153.278 572.096 153.141 572.716C153.005 573.336 152.852 573.856 152.683 574.275C152.515 574.69 152.332 575.03 152.136 575.294H156.971ZM159.904 575.294V578.323C159.904 578.442 159.865 578.537 159.788 578.61C159.71 578.683 159.608 578.72 159.48 578.72H158.694V576.333H150.796V578.323C150.796 578.442 150.755 578.537 150.673 578.61C150.596 578.683 150.495 578.72 150.372 578.72H149.579V575.294H150.577C150.719 575.226 150.86 575.116 151.001 574.966C151.143 574.811 151.277 574.592 151.405 574.309C151.537 574.022 151.66 573.662 151.774 573.229C151.888 572.796 151.99 572.267 152.082 571.643C152.177 571.014 152.259 570.28 152.328 569.441C152.396 568.602 152.449 567.634 152.485 566.535H158.304V575.294H159.904ZM163.704 569.297C164.21 569.297 164.665 569.382 165.071 569.55C165.477 569.719 165.823 569.958 166.11 570.268C166.398 570.578 166.616 570.954 166.767 571.396C166.922 571.834 166.999 572.324 166.999 572.867C166.999 573.414 166.922 573.906 166.767 574.344C166.616 574.781 166.398 575.155 166.11 575.465C165.823 575.775 165.477 576.014 165.071 576.183C164.665 576.347 164.21 576.429 163.704 576.429C163.193 576.429 162.733 576.347 162.322 576.183C161.917 576.014 161.57 575.775 161.283 575.465C160.996 575.155 160.775 574.781 160.62 574.344C160.469 573.906 160.394 573.414 160.394 572.867C160.394 572.324 160.469 571.834 160.62 571.396C160.775 570.954 160.996 570.578 161.283 570.268C161.57 569.958 161.917 569.719 162.322 569.55C162.733 569.382 163.193 569.297 163.704 569.297ZM163.704 575.479C164.387 575.479 164.898 575.251 165.235 574.795C165.573 574.334 165.741 573.694 165.741 572.873C165.741 572.048 165.573 571.406 165.235 570.945C164.898 570.485 164.387 570.255 163.704 570.255C163.357 570.255 163.054 570.314 162.794 570.432C162.539 570.551 162.325 570.722 162.151 570.945C161.983 571.169 161.855 571.444 161.769 571.773C161.687 572.096 161.646 572.463 161.646 572.873C161.646 573.694 161.814 574.334 162.151 574.795C162.493 575.251 163.011 575.479 163.704 575.479ZM171.668 575.526C172.352 575.526 172.867 575.31 173.213 574.877C173.564 574.439 173.74 573.828 173.74 573.044C173.74 572.265 173.571 571.656 173.234 571.219C172.901 570.781 172.399 570.562 171.729 570.562C171.406 570.562 171.114 570.615 170.854 570.72C170.594 570.82 170.373 570.968 170.191 571.164C170.013 571.36 169.874 571.602 169.774 571.889C169.678 572.176 169.63 572.504 169.63 572.873C169.63 573.288 169.674 573.66 169.76 573.988C169.847 574.316 169.974 574.594 170.143 574.822C170.316 575.05 170.528 575.226 170.779 575.349C171.034 575.467 171.331 575.526 171.668 575.526ZM172.14 567.779C171.675 567.82 171.276 567.923 170.943 568.087C170.615 568.251 170.341 568.475 170.123 568.757C169.904 569.035 169.74 569.37 169.63 569.762C169.521 570.154 169.457 570.596 169.439 571.089C169.548 570.87 169.689 570.674 169.863 570.501C170.036 570.323 170.234 570.173 170.458 570.049C170.681 569.922 170.923 569.826 171.182 569.762C171.447 569.694 171.727 569.66 172.023 569.66C172.484 569.66 172.896 569.742 173.261 569.906C173.63 570.065 173.942 570.293 174.198 570.59C174.458 570.886 174.656 571.244 174.793 571.663C174.929 572.078 174.998 572.538 174.998 573.044C174.998 573.559 174.918 574.027 174.758 574.446C174.603 574.861 174.38 575.216 174.088 575.513C173.797 575.804 173.446 576.03 173.035 576.19C172.63 576.349 172.174 576.429 171.668 576.429C171.203 576.429 170.768 576.351 170.362 576.196C169.956 576.042 169.605 575.786 169.309 575.431C169.013 575.075 168.778 574.608 168.605 574.029C168.436 573.446 168.352 572.728 168.352 571.875C168.352 571.146 168.418 570.476 168.55 569.865C168.682 569.254 168.894 568.723 169.186 568.272C169.482 567.82 169.863 567.458 170.328 567.185C170.797 566.906 171.367 566.738 172.037 566.679L174.512 566.467L174.581 567.096C174.594 567.237 174.574 567.355 174.519 567.451C174.464 567.547 174.366 567.599 174.225 567.608L172.14 567.779ZM180.296 573.215C179.736 573.234 179.257 573.279 178.86 573.352C178.468 573.42 178.147 573.512 177.896 573.626C177.65 573.74 177.47 573.874 177.356 574.029C177.247 574.184 177.192 574.357 177.192 574.549C177.192 574.731 177.222 574.888 177.281 575.02C177.34 575.153 177.42 575.262 177.52 575.349C177.625 575.431 177.746 575.492 177.883 575.533C178.024 575.57 178.174 575.588 178.334 575.588C178.548 575.588 178.744 575.567 178.922 575.526C179.1 575.481 179.266 575.417 179.421 575.335C179.581 575.253 179.731 575.155 179.872 575.041C180.018 574.927 180.16 574.797 180.296 574.651V573.215ZM176.365 570.385C176.748 570.015 177.16 569.74 177.602 569.557C178.045 569.375 178.535 569.284 179.072 569.284C179.46 569.284 179.804 569.347 180.105 569.475C180.406 569.603 180.659 569.781 180.864 570.008C181.069 570.236 181.224 570.512 181.329 570.836C181.434 571.159 181.486 571.515 181.486 571.902V576.333H180.946C180.827 576.333 180.736 576.315 180.672 576.279C180.609 576.238 180.558 576.16 180.522 576.046L180.385 575.39C180.203 575.558 180.025 575.709 179.852 575.841C179.679 575.969 179.496 576.078 179.305 576.169C179.113 576.256 178.908 576.322 178.69 576.367C178.475 576.418 178.236 576.443 177.972 576.443C177.703 576.443 177.45 576.406 177.213 576.333C176.976 576.256 176.768 576.142 176.59 575.991C176.417 575.841 176.278 575.652 176.173 575.424C176.073 575.191 176.023 574.918 176.023 574.603C176.023 574.33 176.098 574.068 176.249 573.817C176.399 573.562 176.643 573.336 176.98 573.14C177.317 572.944 177.757 572.785 178.3 572.661C178.842 572.534 179.508 572.461 180.296 572.443V571.902C180.296 571.365 180.18 570.959 179.948 570.685C179.715 570.407 179.376 570.268 178.929 570.268C178.628 570.268 178.375 570.307 178.17 570.385C177.969 570.457 177.794 570.542 177.643 570.638C177.498 570.729 177.37 570.813 177.26 570.891C177.156 570.963 177.051 571 176.946 571C176.864 571 176.793 570.979 176.734 570.938C176.675 570.893 176.625 570.838 176.584 570.774L176.365 570.385ZM186 575.479C186.456 575.479 186.816 575.374 187.08 575.164C187.345 574.95 187.477 574.658 187.477 574.289C187.477 574.125 187.452 573.977 187.402 573.844C187.351 573.708 187.269 573.589 187.155 573.489C187.041 573.389 186.889 573.311 186.697 573.256C186.51 573.202 186.28 573.174 186.007 573.174H184.509V575.479H186ZM184.509 570.227V572.402H185.843C186.043 572.402 186.228 572.374 186.396 572.32C186.57 572.26 186.718 572.181 186.841 572.08C186.964 571.975 187.06 571.852 187.128 571.711C187.196 571.565 187.231 571.406 187.231 571.232C187.231 571.105 187.208 570.982 187.162 570.863C187.117 570.74 187.039 570.633 186.93 570.542C186.82 570.446 186.677 570.371 186.499 570.316C186.321 570.257 186.102 570.227 185.843 570.227H184.509ZM185.877 569.407C186.305 569.407 186.672 569.45 186.978 569.537C187.283 569.623 187.534 569.742 187.73 569.892C187.926 570.038 188.069 570.211 188.161 570.412C188.252 570.612 188.297 570.827 188.297 571.055C188.297 571.205 188.277 571.362 188.236 571.526C188.195 571.691 188.122 571.848 188.017 571.998C187.917 572.149 187.778 572.285 187.6 572.408C187.427 572.527 187.208 572.62 186.943 572.689C187.472 572.78 187.88 572.965 188.167 573.243C188.455 573.516 188.598 573.879 188.598 574.33C188.598 574.667 188.53 574.961 188.393 575.212C188.261 575.458 188.076 575.665 187.839 575.834C187.607 576.003 187.333 576.128 187.019 576.21C186.704 576.292 186.367 576.333 186.007 576.333H183.34V569.407H185.877ZM196.066 569.407V576.333H194.849V571.629C194.849 571.538 194.854 571.44 194.863 571.335C194.872 571.23 194.883 571.125 194.897 571.02C194.856 571.112 194.815 571.196 194.774 571.273C194.733 571.351 194.689 571.422 194.644 571.485L191.3 576.032C191.25 576.105 191.186 576.176 191.109 576.244C191.036 576.308 190.954 576.34 190.863 576.34H190.124V569.414H191.348V574.118C191.348 574.204 191.344 574.3 191.335 574.405C191.325 574.505 191.314 574.608 191.3 574.713C191.341 574.626 191.382 574.546 191.423 574.473C191.464 574.396 191.505 574.325 191.546 574.261L194.89 569.714C194.94 569.642 195.004 569.573 195.082 569.509C195.159 569.441 195.243 569.407 195.335 569.407H196.066ZM203.747 570.337H201.088V576.333H199.871V570.337H197.211V569.407H203.747V570.337ZM207.568 575.444C207.814 575.444 208.026 575.415 208.204 575.355C208.386 575.292 208.536 575.205 208.655 575.096C208.773 574.982 208.862 574.849 208.922 574.699C208.981 574.549 209.01 574.385 209.01 574.207C209.01 574.043 208.985 573.89 208.935 573.749C208.885 573.603 208.801 573.475 208.682 573.366C208.568 573.256 208.418 573.17 208.231 573.106C208.044 573.042 207.816 573.01 207.547 573.01H206.077V575.444H207.568ZM207.547 572.121C208.026 572.121 208.427 572.178 208.751 572.292C209.079 572.406 209.341 572.559 209.537 572.75C209.738 572.942 209.881 573.163 209.968 573.414C210.054 573.664 210.098 573.924 210.098 574.193C210.098 574.503 210.043 574.79 209.934 575.055C209.824 575.314 209.662 575.54 209.448 575.732C209.234 575.918 208.969 576.067 208.655 576.176C208.34 576.281 207.978 576.333 207.568 576.333H204.908V569.407H206.077V572.121H207.547ZM219.771 570.638C219.735 570.688 219.698 570.726 219.662 570.754C219.625 570.781 219.575 570.795 219.511 570.795C219.443 570.795 219.368 570.767 219.286 570.713C219.204 570.653 219.101 570.59 218.978 570.521C218.859 570.453 218.711 570.391 218.534 570.337C218.36 570.277 218.146 570.248 217.891 570.248C217.549 570.248 217.248 570.309 216.988 570.432C216.728 570.551 216.51 570.724 216.332 570.952C216.159 571.18 216.026 571.456 215.935 571.779C215.849 572.103 215.805 572.465 215.805 572.867C215.805 573.286 215.853 573.66 215.949 573.988C216.045 574.312 216.179 574.585 216.352 574.808C216.53 575.027 216.742 575.196 216.988 575.314C217.239 575.428 217.519 575.485 217.829 575.485C218.126 575.485 218.369 575.451 218.561 575.383C218.752 575.31 218.91 575.23 219.033 575.144C219.16 575.057 219.265 574.979 219.347 574.911C219.434 574.838 219.518 574.802 219.6 574.802C219.701 574.802 219.778 574.84 219.833 574.918L220.175 575.362C220.024 575.549 219.853 575.709 219.662 575.841C219.47 575.973 219.263 576.085 219.04 576.176C218.821 576.263 218.591 576.326 218.349 576.367C218.107 576.408 217.861 576.429 217.61 576.429C217.177 576.429 216.774 576.349 216.4 576.19C216.031 576.03 215.71 575.8 215.436 575.499C215.163 575.194 214.948 574.82 214.793 574.378C214.638 573.936 214.561 573.432 214.561 572.867C214.561 572.351 214.632 571.875 214.773 571.438C214.919 571 215.128 570.624 215.402 570.309C215.68 569.99 216.02 569.742 216.421 569.564C216.826 569.386 217.291 569.297 217.816 569.297C218.303 569.297 218.732 569.377 219.101 569.537C219.475 569.692 219.805 569.913 220.093 570.2L219.771 570.638ZM225.235 573.215C224.674 573.234 224.196 573.279 223.799 573.352C223.407 573.42 223.086 573.512 222.835 573.626C222.589 573.74 222.409 573.874 222.295 574.029C222.185 574.184 222.131 574.357 222.131 574.549C222.131 574.731 222.16 574.888 222.22 575.02C222.279 575.153 222.359 575.262 222.459 575.349C222.564 575.431 222.685 575.492 222.821 575.533C222.963 575.57 223.113 575.588 223.273 575.588C223.487 575.588 223.683 575.567 223.861 575.526C224.038 575.481 224.205 575.417 224.36 575.335C224.519 575.253 224.67 575.155 224.811 575.041C224.957 574.927 225.098 574.797 225.235 574.651V573.215ZM221.303 570.385C221.686 570.015 222.099 569.74 222.541 569.557C222.983 569.375 223.473 569.284 224.011 569.284C224.398 569.284 224.743 569.347 225.043 569.475C225.344 569.603 225.597 569.781 225.802 570.008C226.008 570.236 226.163 570.512 226.267 570.836C226.372 571.159 226.425 571.515 226.425 571.902V576.333H225.885C225.766 576.333 225.675 576.315 225.611 576.279C225.547 576.238 225.497 576.16 225.461 576.046L225.324 575.39C225.141 575.558 224.964 575.709 224.79 575.841C224.617 575.969 224.435 576.078 224.243 576.169C224.052 576.256 223.847 576.322 223.628 576.367C223.414 576.418 223.175 576.443 222.91 576.443C222.641 576.443 222.388 576.406 222.151 576.333C221.914 576.256 221.707 576.142 221.529 575.991C221.356 575.841 221.217 575.652 221.112 575.424C221.012 575.191 220.961 574.918 220.961 574.603C220.961 574.33 221.037 574.068 221.187 573.817C221.337 573.562 221.581 573.336 221.919 573.14C222.256 572.944 222.696 572.785 223.238 572.661C223.781 572.534 224.446 572.461 225.235 572.443V571.902C225.235 571.365 225.119 570.959 224.886 570.685C224.654 570.407 224.314 570.268 223.867 570.268C223.567 570.268 223.314 570.307 223.108 570.385C222.908 570.457 222.732 570.542 222.582 570.638C222.436 570.729 222.308 570.813 222.199 570.891C222.094 570.963 221.989 571 221.885 571C221.802 571 221.732 570.979 221.673 570.938C221.613 570.893 221.563 570.838 221.522 570.774L221.303 570.385ZM234.221 569.407V576.333H233.003V571.629C233.003 571.538 233.008 571.44 233.017 571.335C233.026 571.23 233.038 571.125 233.051 571.02C233.01 571.112 232.969 571.196 232.928 571.273C232.887 571.351 232.844 571.422 232.798 571.485L229.455 576.032C229.405 576.105 229.341 576.176 229.263 576.244C229.19 576.308 229.108 576.34 229.017 576.34H228.279V569.414H229.503V574.118C229.503 574.204 229.498 574.3 229.489 574.405C229.48 574.505 229.468 574.608 229.455 574.713C229.496 574.626 229.537 574.546 229.578 574.473C229.619 574.396 229.66 574.325 229.701 574.261L233.044 569.714C233.095 569.642 233.158 569.573 233.236 569.509C233.313 569.441 233.398 569.407 233.489 569.407H234.221ZM231.328 567.732C231.515 567.732 231.672 567.711 231.8 567.67C231.928 567.624 232.03 567.554 232.108 567.458C232.19 567.362 232.249 567.239 232.285 567.089C232.322 566.938 232.34 566.754 232.34 566.535H233.051C233.138 566.535 233.204 566.574 233.25 566.651C233.295 566.729 233.318 566.813 233.318 566.904C233.318 567.132 233.272 567.337 233.181 567.52C233.09 567.702 232.958 567.859 232.785 567.991C232.616 568.119 232.409 568.217 232.162 568.285C231.916 568.354 231.638 568.388 231.328 568.388C231.018 568.388 230.74 568.354 230.494 568.285C230.248 568.217 230.038 568.119 229.865 567.991C229.696 567.859 229.566 567.702 229.475 567.52C229.384 567.337 229.338 567.132 229.338 566.904C229.338 566.813 229.361 566.729 229.407 566.651C229.452 566.574 229.519 566.535 229.605 566.535H230.316C230.316 566.754 230.334 566.938 230.371 567.089C230.407 567.239 230.464 567.362 230.542 567.458C230.624 567.554 230.729 567.624 230.856 567.67C230.984 567.711 231.141 567.732 231.328 567.732ZM241.902 570.337H239.242V576.333H238.025V570.337H235.365V569.407H241.902V570.337Z" fill="white"/>
<path d="M70.8469 518.367H67.7535V526.833H66.4669V518.367H63.3669V517.28H70.8469V518.367ZM73.2035 519.973C73.6969 519.973 74.1413 520.056 74.5369 520.22C74.9324 520.385 75.2702 520.618 75.5502 520.92C75.8302 521.222 76.0435 521.589 76.1902 522.02C76.3413 522.447 76.4169 522.925 76.4169 523.453C76.4169 523.987 76.3413 524.467 76.1902 524.893C76.0435 525.32 75.8302 525.685 75.5502 525.987C75.2702 526.289 74.9324 526.522 74.5369 526.687C74.1413 526.847 73.6969 526.927 73.2035 526.927C72.7058 526.927 72.2569 526.847 71.8569 526.687C71.4613 526.522 71.1235 526.289 70.8435 525.987C70.5635 525.685 70.348 525.32 70.1969 524.893C70.0502 524.467 69.9769 523.987 69.9769 523.453C69.9769 522.925 70.0502 522.447 70.1969 522.02C70.348 521.589 70.5635 521.222 70.8435 520.92C71.1235 520.618 71.4613 520.385 71.8569 520.22C72.2569 520.056 72.7058 519.973 73.2035 519.973ZM73.2035 526C73.8702 526 74.368 525.778 74.6969 525.333C75.0258 524.885 75.1902 524.26 75.1902 523.46C75.1902 522.656 75.0258 522.029 74.6969 521.58C74.368 521.131 73.8702 520.907 73.2035 520.907C72.8658 520.907 72.5702 520.965 72.3169 521.08C72.068 521.196 71.8591 521.362 71.6902 521.58C71.5258 521.798 71.4013 522.067 71.3169 522.387C71.2369 522.702 71.1969 523.06 71.1969 523.46C71.1969 524.26 71.3613 524.885 71.6902 525.333C72.0235 525.778 72.528 526 73.2035 526ZM83.6467 526.833H82.46V521.013H80.3267C80.2733 521.871 80.1933 522.613 80.0867 523.24C79.98 523.862 79.8511 524.393 79.7 524.833C79.5533 525.269 79.3867 525.625 79.2 525.9C79.0178 526.171 78.8244 526.382 78.62 526.533C78.42 526.685 78.2111 526.787 77.9933 526.84C77.78 526.893 77.5667 526.92 77.3533 526.92C76.9756 526.92 76.7867 526.86 76.7867 526.74V525.987H77.1333C77.2844 525.987 77.4378 525.96 77.5933 525.907C77.7489 525.853 77.9 525.751 78.0467 525.6C78.1978 525.449 78.3422 525.238 78.48 524.967C78.6178 524.691 78.7422 524.336 78.8533 523.9C78.9689 523.46 79.0667 522.929 79.1467 522.307C79.2311 521.68 79.2956 520.938 79.34 520.08H83.6467V526.833ZM88.1195 525.967C88.3595 525.967 88.5661 525.938 88.7395 525.88C88.9173 525.818 89.0639 525.733 89.1795 525.627C89.295 525.516 89.3817 525.387 89.4395 525.24C89.4973 525.093 89.5261 524.933 89.5261 524.76C89.5261 524.6 89.5017 524.451 89.4528 524.313C89.4039 524.171 89.3217 524.047 89.2061 523.94C89.095 523.833 88.9484 523.749 88.7661 523.687C88.5839 523.625 88.3617 523.593 88.0995 523.593H86.6661V525.967H88.1195ZM88.0995 522.727C88.5661 522.727 88.9573 522.782 89.2728 522.893C89.5928 523.005 89.8484 523.153 90.0395 523.34C90.235 523.527 90.375 523.742 90.4595 523.987C90.5439 524.231 90.5861 524.485 90.5861 524.747C90.5861 525.049 90.5328 525.329 90.4261 525.587C90.3195 525.84 90.1617 526.06 89.9528 526.247C89.7439 526.429 89.4861 526.573 89.1795 526.68C88.8728 526.782 88.5195 526.833 88.1195 526.833H85.5261V520.08H86.6661V522.727H88.0995ZM96.0063 520.413C96.0686 520.316 96.1508 520.236 96.253 520.173C96.3552 520.111 96.4641 520.08 96.5797 520.08H97.5063L95.753 522.653C95.6463 522.818 95.5352 522.953 95.4197 523.06C95.3041 523.162 95.1619 523.242 94.993 523.3C95.2063 523.358 95.3863 523.449 95.533 523.573C95.6797 523.693 95.8108 523.849 95.9263 524.04L97.6997 526.833H96.873C96.6597 526.833 96.4952 526.798 96.3797 526.727C96.2641 526.656 96.1641 526.553 96.0797 526.42L94.7663 524.32C94.5575 523.973 94.2441 523.8 93.8263 523.8H93.0997V526.84H91.9063V520.08H93.0997V523H93.7397C94.0952 523 94.373 522.849 94.573 522.547L96.0063 520.413ZM101.394 519.973C101.887 519.973 102.331 520.056 102.727 520.22C103.123 520.385 103.46 520.618 103.74 520.92C104.02 521.222 104.234 521.589 104.38 522.02C104.531 522.447 104.607 522.925 104.607 523.453C104.607 523.987 104.531 524.467 104.38 524.893C104.234 525.32 104.02 525.685 103.74 525.987C103.46 526.289 103.123 526.522 102.727 526.687C102.331 526.847 101.887 526.927 101.394 526.927C100.896 526.927 100.447 526.847 100.047 526.687C99.6514 526.522 99.3136 526.289 99.0336 525.987C98.7536 525.685 98.5381 525.32 98.387 524.893C98.2403 524.467 98.167 523.987 98.167 523.453C98.167 522.925 98.2403 522.447 98.387 522.02C98.5381 521.589 98.7536 521.222 99.0336 520.92C99.3136 520.618 99.6514 520.385 100.047 520.22C100.447 520.056 100.896 519.973 101.394 519.973ZM101.394 526C102.06 526 102.558 525.778 102.887 525.333C103.216 524.885 103.38 524.26 103.38 523.46C103.38 522.656 103.216 522.029 102.887 521.58C102.558 521.131 102.06 520.907 101.394 520.907C101.056 520.907 100.76 520.965 100.507 521.08C100.258 521.196 100.049 521.362 99.8803 521.58C99.7159 521.798 99.5914 522.067 99.507 522.387C99.427 522.702 99.387 523.06 99.387 523.46C99.387 524.26 99.5514 524.885 99.8803 525.333C100.214 525.778 100.718 526 101.394 526ZM114.177 525.967V521.013H112.037C111.992 521.707 111.93 522.32 111.85 522.853C111.77 523.387 111.677 523.856 111.57 524.26C111.468 524.66 111.352 525 111.224 525.28C111.099 525.56 110.968 525.789 110.83 525.967H114.177ZM116.564 525.933V528.793C116.564 528.909 116.53 528.998 116.464 529.06C116.401 529.127 116.319 529.16 116.217 529.16H115.49V526.833H109.81V528.82C109.81 528.905 109.784 528.982 109.73 529.053C109.681 529.125 109.599 529.16 109.484 529.16H108.737V525.967H108.957C109.112 525.967 109.266 525.94 109.417 525.887C109.572 525.833 109.721 525.733 109.864 525.587C110.006 525.436 110.139 525.225 110.264 524.953C110.392 524.682 110.508 524.329 110.61 523.893C110.712 523.458 110.801 522.929 110.877 522.307C110.952 521.68 111.012 520.938 111.057 520.08H115.33V525.933H116.564ZM123.686 526.833H122.499V521.013H120.366C120.312 521.871 120.232 522.613 120.126 523.24C120.019 523.862 119.89 524.393 119.739 524.833C119.592 525.269 119.426 525.625 119.239 525.9C119.057 526.171 118.863 526.382 118.659 526.533C118.459 526.685 118.25 526.787 118.032 526.84C117.819 526.893 117.606 526.92 117.392 526.92C117.015 526.92 116.826 526.86 116.826 526.74V525.987H117.172C117.323 525.987 117.477 525.96 117.632 525.907C117.788 525.853 117.939 525.751 118.086 525.6C118.237 525.449 118.381 525.238 118.519 524.967C118.657 524.691 118.781 524.336 118.892 523.9C119.008 523.46 119.106 522.929 119.186 522.307C119.27 521.68 119.335 520.938 119.379 520.08H123.686V526.833ZM129.119 523.233V520.88H127.985C127.732 520.88 127.519 520.918 127.345 520.993C127.172 521.065 127.032 521.158 126.925 521.273C126.823 521.385 126.75 521.511 126.705 521.653C126.661 521.791 126.639 521.929 126.639 522.067C126.639 522.431 126.772 522.718 127.039 522.927C127.305 523.131 127.67 523.233 128.132 523.233H129.119ZM130.252 520.08V526.833H129.119V523.987H128.599C128.474 523.987 128.37 523.998 128.285 524.02C128.205 524.038 128.134 524.065 128.072 524.1C128.014 524.136 127.963 524.182 127.919 524.24C127.874 524.293 127.827 524.356 127.779 524.427L126.299 526.42C126.223 526.562 126.13 526.667 126.019 526.733C125.912 526.8 125.754 526.833 125.545 526.833H124.719L126.679 524.287C126.839 524.02 127.05 523.842 127.312 523.753C126.97 523.709 126.681 523.629 126.445 523.513C126.21 523.398 126.016 523.262 125.865 523.107C125.719 522.947 125.612 522.771 125.545 522.58C125.479 522.389 125.445 522.196 125.445 522C125.445 521.769 125.49 521.538 125.579 521.307C125.672 521.076 125.819 520.871 126.019 520.693C126.219 520.511 126.476 520.365 126.792 520.253C127.112 520.138 127.499 520.08 127.952 520.08H130.252ZM138.399 519.973C138.892 519.973 139.337 520.056 139.732 520.22C140.128 520.385 140.466 520.618 140.746 520.92C141.026 521.222 141.239 521.589 141.386 522.02C141.537 522.447 141.612 522.925 141.612 523.453C141.612 523.987 141.537 524.467 141.386 524.893C141.239 525.32 141.026 525.685 140.746 525.987C140.466 526.289 140.128 526.522 139.732 526.687C139.337 526.847 138.892 526.927 138.399 526.927C137.901 526.927 137.452 526.847 137.052 526.687C136.657 526.522 136.319 526.289 136.039 525.987C135.759 525.685 135.543 525.32 135.392 524.893C135.246 524.467 135.172 523.987 135.172 523.453C135.172 522.925 135.246 522.447 135.392 522.02C135.543 521.589 135.759 521.222 136.039 520.92C136.319 520.618 136.657 520.385 137.052 520.22C137.452 520.056 137.901 519.973 138.399 519.973ZM138.399 526C139.066 526 139.563 525.778 139.892 525.333C140.221 524.885 140.386 524.26 140.386 523.46C140.386 522.656 140.221 522.029 139.892 521.58C139.563 521.131 139.066 520.907 138.399 520.907C138.061 520.907 137.766 520.965 137.512 521.08C137.263 521.196 137.054 521.362 136.886 521.58C136.721 521.798 136.597 522.067 136.512 522.387C136.432 522.702 136.392 523.06 136.392 523.46C136.392 524.26 136.557 524.885 136.886 525.333C137.219 525.778 137.723 526 138.399 526ZM148.744 526.833H147.551V520.987H144.311V526.833H143.117V520.08H148.744V526.833ZM151.824 525.207C152.041 525.5 152.279 525.707 152.537 525.827C152.795 525.947 153.084 526.007 153.404 526.007C154.035 526.007 154.519 525.782 154.857 525.333C155.195 524.885 155.364 524.245 155.364 523.413C155.364 522.973 155.324 522.596 155.244 522.28C155.168 521.965 155.057 521.707 154.91 521.507C154.764 521.302 154.584 521.153 154.37 521.06C154.157 520.967 153.915 520.92 153.644 520.92C153.257 520.92 152.917 521.009 152.624 521.187C152.335 521.365 152.068 521.616 151.824 521.94V525.207ZM151.764 521.127C152.048 520.776 152.377 520.493 152.75 520.28C153.124 520.067 153.55 519.96 154.03 519.96C154.421 519.96 154.775 520.036 155.09 520.187C155.406 520.333 155.675 520.553 155.897 520.847C156.119 521.136 156.29 521.496 156.41 521.927C156.53 522.358 156.59 522.853 156.59 523.413C156.59 523.911 156.524 524.376 156.39 524.807C156.257 525.233 156.064 525.605 155.81 525.92C155.561 526.231 155.255 526.478 154.89 526.66C154.53 526.838 154.124 526.927 153.67 526.927C153.257 526.927 152.901 526.858 152.604 526.72C152.31 526.578 152.05 526.382 151.824 526.133V529.12H150.63V520.08H151.344C151.513 520.08 151.617 520.162 151.657 520.327L151.764 521.127ZM162.611 522.72C162.611 522.445 162.571 522.193 162.491 521.967C162.416 521.736 162.302 521.538 162.151 521.373C162.005 521.205 161.825 521.076 161.611 520.987C161.398 520.893 161.156 520.847 160.885 520.847C160.316 520.847 159.865 521.013 159.531 521.347C159.202 521.676 158.998 522.133 158.918 522.72H162.611ZM163.571 525.887C163.425 526.065 163.249 526.22 163.045 526.353C162.84 526.482 162.62 526.589 162.385 526.673C162.153 526.758 161.913 526.82 161.665 526.86C161.416 526.905 161.169 526.927 160.925 526.927C160.458 526.927 160.027 526.849 159.631 526.693C159.24 526.533 158.9 526.302 158.611 526C158.327 525.693 158.105 525.316 157.945 524.867C157.785 524.418 157.705 523.902 157.705 523.32C157.705 522.849 157.776 522.409 157.918 522C158.065 521.591 158.273 521.238 158.545 520.94C158.816 520.638 159.147 520.402 159.538 520.233C159.929 520.06 160.369 519.973 160.858 519.973C161.262 519.973 161.636 520.042 161.978 520.18C162.325 520.313 162.622 520.509 162.871 520.767C163.125 521.02 163.322 521.336 163.465 521.713C163.607 522.087 163.678 522.513 163.678 522.993C163.678 523.18 163.658 523.305 163.618 523.367C163.578 523.429 163.502 523.46 163.391 523.46H158.878C158.891 523.887 158.949 524.258 159.051 524.573C159.158 524.889 159.305 525.153 159.491 525.367C159.678 525.576 159.9 525.733 160.158 525.84C160.416 525.942 160.705 525.993 161.025 525.993C161.322 525.993 161.578 525.96 161.791 525.893C162.009 525.822 162.196 525.747 162.351 525.667C162.507 525.587 162.636 525.513 162.738 525.447C162.845 525.376 162.936 525.34 163.011 525.34C163.109 525.34 163.185 525.378 163.238 525.453L163.571 525.887ZM169.737 525.967V521.013H167.597C167.552 521.707 167.49 522.32 167.41 522.853C167.33 523.387 167.237 523.856 167.13 524.26C167.028 524.66 166.912 525 166.783 525.28C166.659 525.56 166.528 525.789 166.39 525.967H169.737ZM172.123 525.933V528.793C172.123 528.909 172.09 528.998 172.023 529.06C171.961 529.127 171.879 529.16 171.777 529.16H171.05V526.833H165.37V528.82C165.37 528.905 165.343 528.982 165.29 529.053C165.241 529.125 165.159 529.16 165.043 529.16H164.297V525.967H164.517C164.672 525.967 164.826 525.94 164.977 525.887C165.132 525.833 165.281 525.733 165.423 525.587C165.566 525.436 165.699 525.225 165.823 524.953C165.952 524.682 166.068 524.329 166.17 523.893C166.272 523.458 166.361 522.929 166.437 522.307C166.512 521.68 166.572 520.938 166.617 520.08H170.89V525.933H172.123ZM177.728 522.72C177.728 522.445 177.688 522.193 177.608 521.967C177.533 521.736 177.42 521.538 177.268 521.373C177.122 521.205 176.942 521.076 176.728 520.987C176.515 520.893 176.273 520.847 176.002 520.847C175.433 520.847 174.982 521.013 174.648 521.347C174.32 521.676 174.115 522.133 174.035 522.72H177.728ZM178.688 525.887C178.542 526.065 178.366 526.22 178.162 526.353C177.957 526.482 177.737 526.589 177.502 526.673C177.271 526.758 177.031 526.82 176.782 526.86C176.533 526.905 176.286 526.927 176.042 526.927C175.575 526.927 175.144 526.849 174.748 526.693C174.357 526.533 174.017 526.302 173.728 526C173.444 525.693 173.222 525.316 173.062 524.867C172.902 524.418 172.822 523.902 172.822 523.32C172.822 522.849 172.893 522.409 173.035 522C173.182 521.591 173.391 521.238 173.662 520.94C173.933 520.638 174.264 520.402 174.655 520.233C175.046 520.06 175.486 519.973 175.975 519.973C176.38 519.973 176.753 520.042 177.095 520.18C177.442 520.313 177.74 520.509 177.988 520.767C178.242 521.02 178.44 521.336 178.582 521.713C178.724 522.087 178.795 522.513 178.795 522.993C178.795 523.18 178.775 523.305 178.735 523.367C178.695 523.429 178.62 523.46 178.508 523.46H173.995C174.008 523.887 174.066 524.258 174.168 524.573C174.275 524.889 174.422 525.153 174.608 525.367C174.795 525.576 175.017 525.733 175.275 525.84C175.533 525.942 175.822 525.993 176.142 525.993C176.44 525.993 176.695 525.96 176.908 525.893C177.126 525.822 177.313 525.747 177.468 525.667C177.624 525.587 177.753 525.513 177.855 525.447C177.962 525.376 178.053 525.34 178.128 525.34C178.226 525.34 178.302 525.378 178.355 525.453L178.688 525.887ZM186.173 526.833H184.986V521.013H182.853C182.799 521.871 182.719 522.613 182.613 523.24C182.506 523.862 182.377 524.393 182.226 524.833C182.079 525.269 181.913 525.625 181.726 525.9C181.544 526.171 181.35 526.382 181.146 526.533C180.946 526.685 180.737 526.787 180.519 526.84C180.306 526.893 180.093 526.92 179.879 526.92C179.502 526.92 179.313 526.86 179.313 526.74V525.987H179.659C179.81 525.987 179.964 525.96 180.119 525.907C180.275 525.853 180.426 525.751 180.573 525.6C180.724 525.449 180.868 525.238 181.006 524.967C181.144 524.691 181.268 524.336 181.379 523.9C181.495 523.46 181.593 522.929 181.673 522.307C181.757 521.68 181.822 520.938 181.866 520.08H186.173V526.833ZM192.572 522.72C192.572 522.445 192.532 522.193 192.452 521.967C192.377 521.736 192.263 521.538 192.112 521.373C191.966 521.205 191.786 521.076 191.572 520.987C191.359 520.893 191.117 520.847 190.846 520.847C190.277 520.847 189.826 521.013 189.492 521.347C189.163 521.676 188.959 522.133 188.879 522.72H192.572ZM193.532 525.887C193.386 526.065 193.21 526.22 193.006 526.353C192.801 526.482 192.581 526.589 192.346 526.673C192.114 526.758 191.874 526.82 191.626 526.86C191.377 526.905 191.13 526.927 190.886 526.927C190.419 526.927 189.988 526.849 189.592 526.693C189.201 526.533 188.861 526.302 188.572 526C188.288 525.693 188.066 525.316 187.906 524.867C187.746 524.418 187.666 523.902 187.666 523.32C187.666 522.849 187.737 522.409 187.879 522C188.026 521.591 188.234 521.238 188.506 520.94C188.777 520.638 189.108 520.402 189.499 520.233C189.89 520.06 190.33 519.973 190.819 519.973C191.223 519.973 191.597 520.042 191.939 520.18C192.286 520.313 192.583 520.509 192.832 520.767C193.086 521.02 193.283 521.336 193.426 521.713C193.568 522.087 193.639 522.513 193.639 522.993C193.639 523.18 193.619 523.305 193.579 523.367C193.539 523.429 193.463 523.46 193.352 523.46H188.839C188.852 523.887 188.91 524.258 189.012 524.573C189.119 524.889 189.266 525.153 189.452 525.367C189.639 525.576 189.861 525.733 190.119 525.84C190.377 525.942 190.666 525.993 190.986 525.993C191.283 525.993 191.539 525.96 191.752 525.893C191.97 525.822 192.157 525.747 192.312 525.667C192.468 525.587 192.597 525.513 192.699 525.447C192.806 525.376 192.897 525.34 192.972 525.34C193.07 525.34 193.146 525.378 193.199 525.453L193.532 525.887ZM190.326 518.24C190.326 518.342 190.306 518.438 190.266 518.527C190.226 518.616 190.17 518.693 190.099 518.76C190.028 518.827 189.946 518.88 189.852 518.92C189.763 518.96 189.668 518.98 189.566 518.98C189.468 518.98 189.374 518.96 189.286 518.92C189.197 518.88 189.117 518.827 189.046 518.76C188.979 518.693 188.926 518.616 188.886 518.527C188.846 518.438 188.826 518.342 188.826 518.24C188.826 518.138 188.846 518.04 188.886 517.947C188.926 517.853 188.979 517.773 189.046 517.707C189.117 517.636 189.197 517.58 189.286 517.54C189.374 517.5 189.468 517.48 189.566 517.48C189.668 517.48 189.763 517.5 189.852 517.54C189.946 517.58 190.028 517.636 190.099 517.707C190.17 517.773 190.226 517.853 190.266 517.947C190.306 518.04 190.326 518.138 190.326 518.24ZM192.866 518.24C192.866 518.342 192.846 518.438 192.806 518.527C192.766 518.616 192.71 518.693 192.639 518.76C192.572 518.827 192.492 518.88 192.399 518.92C192.31 518.96 192.214 518.98 192.112 518.98C192.01 518.98 191.912 518.96 191.819 518.92C191.73 518.88 191.652 518.827 191.586 518.76C191.519 518.693 191.466 518.616 191.426 518.527C191.386 518.438 191.366 518.342 191.366 518.24C191.366 518.138 191.386 518.04 191.426 517.947C191.466 517.853 191.519 517.773 191.586 517.707C191.652 517.636 191.73 517.58 191.819 517.54C191.912 517.5 192.01 517.48 192.112 517.48C192.214 517.48 192.31 517.5 192.399 517.54C192.492 517.58 192.572 517.636 192.639 517.707C192.71 517.773 192.766 517.853 192.806 517.947C192.846 518.04 192.866 518.138 192.866 518.24ZM200.723 520.08V526.833H199.53V523.673H196.29V526.833H195.096V520.08H196.29V522.773H199.53V520.08H200.723ZM208.236 520.08V526.833H207.043V523.673H203.803V526.833H202.609V520.08H203.803V522.773H207.043V520.08H208.236ZM212.716 525.967C212.956 525.967 213.162 525.938 213.336 525.88C213.514 525.818 213.66 525.733 213.776 525.627C213.891 525.516 213.978 525.387 214.036 525.24C214.094 525.093 214.122 524.933 214.122 524.76C214.122 524.6 214.098 524.451 214.049 524.313C214 524.171 213.918 524.047 213.802 523.94C213.691 523.833 213.545 523.749 213.362 523.687C213.18 523.625 212.958 523.593 212.696 523.593H211.256V525.967H212.716ZM212.696 522.727C213.162 522.727 213.554 522.782 213.869 522.893C214.189 523.005 214.445 523.153 214.636 523.34C214.831 523.527 214.971 523.742 215.056 523.987C215.14 524.231 215.182 524.485 215.182 524.747C215.182 525.049 215.129 525.329 215.022 525.587C214.916 525.84 214.758 526.06 214.549 526.247C214.34 526.429 214.082 526.573 213.776 526.68C213.469 526.782 213.116 526.833 212.716 526.833H210.122V520.08H211.256V522.727H212.696ZM217.856 520.08V526.833H216.669V520.08H217.856ZM225.292 526.833H224.152C224.054 526.833 223.976 526.809 223.918 526.76C223.865 526.707 223.82 526.649 223.785 526.587L222.085 523.94C222.067 524.002 222.047 524.065 222.025 524.127C222.007 524.185 221.98 524.238 221.945 524.287L220.372 526.587C220.327 526.649 220.278 526.707 220.225 526.76C220.176 526.809 220.107 526.833 220.018 526.833H218.958L221.325 523.367L219.052 520.08H220.192C220.289 520.08 220.36 520.096 220.405 520.127C220.449 520.158 220.489 520.202 220.525 520.26L222.185 522.793C222.22 522.665 222.276 522.54 222.352 522.42L223.805 520.287C223.845 520.225 223.887 520.176 223.932 520.14C223.98 520.1 224.038 520.08 224.105 520.08H225.198L222.925 523.307L225.292 526.833ZM234.497 521.28C234.461 521.329 234.426 521.367 234.39 521.393C234.355 521.42 234.306 521.433 234.244 521.433C234.177 521.433 234.104 521.407 234.024 521.353C233.944 521.296 233.844 521.233 233.724 521.167C233.608 521.1 233.464 521.04 233.29 520.987C233.121 520.929 232.913 520.9 232.664 520.9C232.33 520.9 232.037 520.96 231.784 521.08C231.53 521.196 231.317 521.365 231.144 521.587C230.975 521.809 230.846 522.078 230.757 522.393C230.673 522.709 230.63 523.062 230.63 523.453C230.63 523.862 230.677 524.227 230.77 524.547C230.864 524.862 230.995 525.129 231.164 525.347C231.337 525.56 231.544 525.725 231.784 525.84C232.028 525.951 232.301 526.007 232.604 526.007C232.893 526.007 233.13 525.973 233.317 525.907C233.504 525.836 233.657 525.758 233.777 525.673C233.901 525.589 234.004 525.513 234.084 525.447C234.168 525.376 234.25 525.34 234.33 525.34C234.428 525.34 234.504 525.378 234.557 525.453L234.89 525.887C234.744 526.069 234.577 526.225 234.39 526.353C234.204 526.482 234.001 526.591 233.784 526.68C233.57 526.765 233.346 526.827 233.11 526.867C232.875 526.907 232.635 526.927 232.39 526.927C231.968 526.927 231.575 526.849 231.21 526.693C230.85 526.538 230.537 526.313 230.27 526.02C230.004 525.722 229.795 525.358 229.644 524.927C229.493 524.496 229.417 524.005 229.417 523.453C229.417 522.951 229.486 522.487 229.624 522.06C229.766 521.633 229.97 521.267 230.237 520.96C230.508 520.649 230.839 520.407 231.23 520.233C231.626 520.06 232.079 519.973 232.59 519.973C233.066 519.973 233.484 520.051 233.844 520.207C234.208 520.358 234.53 520.573 234.81 520.853L234.497 521.28ZM239.824 523.793C239.277 523.811 238.811 523.856 238.424 523.927C238.042 523.993 237.729 524.082 237.484 524.193C237.244 524.305 237.069 524.436 236.957 524.587C236.851 524.738 236.797 524.907 236.797 525.093C236.797 525.271 236.826 525.425 236.884 525.553C236.942 525.682 237.02 525.789 237.117 525.873C237.22 525.953 237.337 526.013 237.471 526.053C237.609 526.089 237.755 526.107 237.911 526.107C238.12 526.107 238.311 526.087 238.484 526.047C238.657 526.002 238.82 525.94 238.971 525.86C239.126 525.78 239.273 525.685 239.411 525.573C239.553 525.462 239.691 525.336 239.824 525.193V523.793ZM235.991 521.033C236.364 520.673 236.766 520.405 237.197 520.227C237.629 520.049 238.106 519.96 238.631 519.96C239.009 519.96 239.344 520.022 239.637 520.147C239.931 520.271 240.177 520.445 240.377 520.667C240.577 520.889 240.729 521.158 240.831 521.473C240.933 521.789 240.984 522.136 240.984 522.513V526.833H240.457C240.342 526.833 240.253 526.816 240.191 526.78C240.129 526.74 240.08 526.665 240.044 526.553L239.911 525.913C239.733 526.078 239.56 526.225 239.391 526.353C239.222 526.478 239.044 526.585 238.857 526.673C238.671 526.758 238.471 526.822 238.257 526.867C238.049 526.916 237.815 526.94 237.557 526.94C237.295 526.94 237.049 526.905 236.817 526.833C236.586 526.758 236.384 526.647 236.211 526.5C236.042 526.353 235.906 526.169 235.804 525.947C235.706 525.72 235.657 525.453 235.657 525.147C235.657 524.88 235.731 524.625 235.877 524.38C236.024 524.131 236.262 523.911 236.591 523.72C236.92 523.529 237.349 523.373 237.877 523.253C238.406 523.129 239.055 523.058 239.824 523.04V522.513C239.824 521.989 239.711 521.593 239.484 521.327C239.257 521.056 238.926 520.92 238.491 520.92C238.197 520.92 237.951 520.958 237.751 521.033C237.555 521.105 237.384 521.187 237.237 521.28C237.095 521.369 236.971 521.451 236.864 521.527C236.762 521.598 236.66 521.633 236.557 521.633C236.477 521.633 236.409 521.613 236.351 521.573C236.293 521.529 236.244 521.476 236.204 521.413L235.991 521.033ZM248.585 520.08V526.833H247.398V522.247C247.398 522.158 247.403 522.062 247.412 521.96C247.421 521.858 247.432 521.756 247.445 521.653C247.405 521.742 247.365 521.825 247.325 521.9C247.285 521.976 247.243 522.045 247.198 522.107L243.938 526.54C243.89 526.611 243.827 526.68 243.752 526.747C243.681 526.809 243.601 526.84 243.512 526.84H242.792V520.087H243.985V524.673C243.985 524.758 243.981 524.851 243.972 524.953C243.963 525.051 243.952 525.151 243.938 525.253C243.978 525.169 244.018 525.091 244.058 525.02C244.098 524.945 244.138 524.876 244.178 524.813L247.438 520.38C247.487 520.309 247.55 520.242 247.625 520.18C247.701 520.113 247.783 520.08 247.872 520.08H248.585ZM245.765 518.447C245.947 518.447 246.101 518.427 246.225 518.387C246.35 518.342 246.45 518.273 246.525 518.18C246.605 518.087 246.663 517.967 246.698 517.82C246.734 517.673 246.752 517.493 246.752 517.28H247.445C247.53 517.28 247.594 517.318 247.638 517.393C247.683 517.469 247.705 517.551 247.705 517.64C247.705 517.862 247.661 518.062 247.572 518.24C247.483 518.418 247.354 518.571 247.185 518.7C247.021 518.825 246.818 518.92 246.578 518.987C246.338 519.053 246.067 519.087 245.765 519.087C245.463 519.087 245.192 519.053 244.952 518.987C244.712 518.92 244.507 518.825 244.338 518.7C244.174 518.571 244.047 518.418 243.958 518.24C243.87 518.062 243.825 517.862 243.825 517.64C243.825 517.551 243.847 517.469 243.892 517.393C243.936 517.318 244.001 517.28 244.085 517.28H244.778C244.778 517.493 244.796 517.673 244.832 517.82C244.867 517.967 244.923 518.087 244.998 518.18C245.078 518.273 245.181 518.342 245.305 518.387C245.43 518.427 245.583 518.447 245.765 518.447ZM256.074 520.987H253.481V526.833H252.294V520.987H249.701V520.08H256.074V520.987ZM259.779 519.973C260.272 519.973 260.717 520.056 261.112 520.22C261.508 520.385 261.846 520.618 262.126 520.92C262.406 521.222 262.619 521.589 262.766 522.02C262.917 522.447 262.992 522.925 262.992 523.453C262.992 523.987 262.917 524.467 262.766 524.893C262.619 525.32 262.406 525.685 262.126 525.987C261.846 526.289 261.508 526.522 261.112 526.687C260.717 526.847 260.272 526.927 259.779 526.927C259.281 526.927 258.832 526.847 258.432 526.687C258.037 526.522 257.699 526.289 257.419 525.987C257.139 525.685 256.923 525.32 256.772 524.893C256.626 524.467 256.552 523.987 256.552 523.453C256.552 522.925 256.626 522.447 256.772 522.02C256.923 521.589 257.139 521.222 257.419 520.92C257.699 520.618 258.037 520.385 258.432 520.22C258.832 520.056 259.281 519.973 259.779 519.973ZM259.779 526C260.446 526 260.943 525.778 261.272 525.333C261.601 524.885 261.766 524.26 261.766 523.46C261.766 522.656 261.601 522.029 261.272 521.58C260.943 521.131 260.446 520.907 259.779 520.907C259.441 520.907 259.146 520.965 258.892 521.08C258.643 521.196 258.435 521.362 258.266 521.58C258.101 521.798 257.977 522.067 257.892 522.387C257.812 522.702 257.772 523.06 257.772 523.46C257.772 524.26 257.937 524.885 258.266 525.333C258.599 525.778 259.103 526 259.779 526ZM267.091 526C267.535 526 267.886 525.898 268.144 525.693C268.402 525.485 268.531 525.2 268.531 524.84C268.531 524.68 268.506 524.536 268.457 524.407C268.409 524.273 268.329 524.158 268.217 524.06C268.106 523.962 267.957 523.887 267.771 523.833C267.589 523.78 267.364 523.753 267.097 523.753H265.637V526H267.091ZM265.637 520.88V523H266.937C267.133 523 267.313 522.973 267.477 522.92C267.646 522.862 267.791 522.785 267.911 522.687C268.031 522.585 268.124 522.465 268.191 522.327C268.257 522.185 268.291 522.029 268.291 521.86C268.291 521.736 268.269 521.616 268.224 521.5C268.18 521.38 268.104 521.276 267.997 521.187C267.891 521.093 267.751 521.02 267.577 520.967C267.404 520.909 267.191 520.88 266.937 520.88H265.637ZM266.971 520.08C267.389 520.08 267.746 520.122 268.044 520.207C268.342 520.291 268.586 520.407 268.777 520.553C268.969 520.696 269.109 520.865 269.197 521.06C269.286 521.256 269.331 521.465 269.331 521.687C269.331 521.833 269.311 521.987 269.271 522.147C269.231 522.307 269.16 522.46 269.057 522.607C268.96 522.753 268.824 522.887 268.651 523.007C268.482 523.122 268.269 523.213 268.011 523.28C268.526 523.369 268.924 523.549 269.204 523.82C269.484 524.087 269.624 524.44 269.624 524.88C269.624 525.209 269.557 525.496 269.424 525.74C269.295 525.98 269.115 526.182 268.884 526.347C268.657 526.511 268.391 526.633 268.084 526.713C267.777 526.793 267.449 526.833 267.097 526.833H264.497V520.08H266.971Z" fill="#100A44"/>
<path d="M48.1669 529.667C52.309 529.667 55.6669 526.309 55.6669 522.167C55.6669 518.025 52.309 514.667 48.1669 514.667C44.0247 514.667 40.6669 518.025 40.6669 522.167C40.6669 526.309 44.0247 529.667 48.1669 529.667Z" fill="white" stroke="#15CDCB" stroke-width="0.833333"/>
<path d="M48.1669 526.333C50.4681 526.333 52.3336 524.468 52.3336 522.167C52.3336 519.865 50.4681 518 48.1669 518C45.8657 518 44.0002 519.865 44.0002 522.167C44.0002 524.468 45.8657 526.333 48.1669 526.333Z" fill="#15CDCB"/>
<path d="M70.4669 495.82V488.3H67.3069C67.2535 489.389 67.178 490.345 67.0802 491.167C66.9824 491.989 66.8669 492.702 66.7335 493.307C66.6002 493.911 66.4513 494.418 66.2869 494.827C66.1224 495.231 65.9446 495.562 65.7535 495.82H70.4669ZM73.3269 495.82V498.773C73.3269 498.889 73.2891 498.982 73.2135 499.053C73.138 499.125 73.038 499.16 72.9135 499.16H72.1469V496.833H64.4469V498.773C64.4469 498.889 64.4069 498.982 64.3269 499.053C64.2513 499.125 64.1535 499.16 64.0335 499.16H63.2602V495.82H64.2335C64.3713 495.753 64.5091 495.647 64.6469 495.5C64.7846 495.349 64.9158 495.136 65.0402 494.86C65.1691 494.58 65.2891 494.229 65.4002 493.807C65.5113 493.385 65.6113 492.869 65.7002 492.26C65.7935 491.647 65.8735 490.931 65.9402 490.113C66.0069 489.296 66.058 488.351 66.0935 487.28H71.7669V495.82H73.3269ZM80.5086 496.833H79.322V491.013H77.1886C77.1353 491.871 77.0553 492.613 76.9486 493.24C76.842 493.862 76.7131 494.393 76.562 494.833C76.4153 495.269 76.2486 495.625 76.062 495.9C75.8798 496.171 75.6864 496.382 75.482 496.533C75.282 496.685 75.0731 496.787 74.8553 496.84C74.642 496.893 74.4286 496.92 74.2153 496.92C73.8375 496.92 73.6486 496.86 73.6486 496.74V495.987H73.9953C74.1464 495.987 74.2998 495.96 74.4553 495.907C74.6109 495.853 74.762 495.751 74.9086 495.6C75.0598 495.449 75.2042 495.238 75.342 494.967C75.4798 494.691 75.6042 494.336 75.7153 493.9C75.8309 493.46 75.9286 492.929 76.0086 492.307C76.0931 491.68 76.1575 490.938 76.202 490.08H80.5086V496.833ZM85.9415 493.233V490.88H84.8081C84.5548 490.88 84.3415 490.918 84.1681 490.993C83.9948 491.065 83.8548 491.158 83.7481 491.273C83.6459 491.385 83.5726 491.511 83.5281 491.653C83.4837 491.791 83.4615 491.929 83.4615 492.067C83.4615 492.431 83.5948 492.718 83.8615 492.927C84.1281 493.131 84.4926 493.233 84.9548 493.233H85.9415ZM87.0748 490.08V496.833H85.9415V493.987H85.4215C85.297 493.987 85.1926 493.998 85.1081 494.02C85.0281 494.038 84.957 494.065 84.8948 494.1C84.837 494.136 84.7859 494.182 84.7415 494.24C84.697 494.293 84.6503 494.356 84.6015 494.427L83.1215 496.42C83.0459 496.562 82.9526 496.667 82.8415 496.733C82.7348 496.8 82.577 496.833 82.3681 496.833H81.5415L83.5015 494.287C83.6615 494.02 83.8726 493.842 84.1348 493.753C83.7926 493.709 83.5037 493.629 83.2681 493.513C83.0326 493.398 82.8392 493.262 82.6881 493.107C82.5415 492.947 82.4348 492.771 82.3681 492.58C82.3015 492.389 82.2681 492.196 82.2681 492C82.2681 491.769 82.3126 491.538 82.4015 491.307C82.4948 491.076 82.6415 490.871 82.8415 490.693C83.0415 490.511 83.2992 490.365 83.6148 490.253C83.9348 490.138 84.3215 490.08 84.7748 490.08H87.0748ZM94.9684 496C95.4129 496 95.764 495.898 96.0218 495.693C96.2795 495.485 96.4084 495.2 96.4084 494.84C96.4084 494.68 96.384 494.536 96.3351 494.407C96.2862 494.273 96.2062 494.158 96.0951 494.06C95.984 493.962 95.8351 493.887 95.6484 493.833C95.4662 493.78 95.2418 493.753 94.9751 493.753H93.5151V496H94.9684ZM93.5151 490.88V493H94.8151C95.0107 493 95.1907 492.973 95.3551 492.92C95.524 492.862 95.6684 492.785 95.7884 492.687C95.9084 492.585 96.0018 492.465 96.0684 492.327C96.1351 492.185 96.1684 492.029 96.1684 491.86C96.1684 491.736 96.1462 491.616 96.1018 491.5C96.0573 491.38 95.9818 491.276 95.8751 491.187C95.7684 491.093 95.6284 491.02 95.4551 490.967C95.2818 490.909 95.0684 490.88 94.8151 490.88H93.5151ZM94.8484 490.08C95.2662 490.08 95.624 490.122 95.9218 490.207C96.2195 490.291 96.464 490.407 96.6551 490.553C96.8462 490.696 96.9862 490.865 97.0751 491.06C97.164 491.256 97.2084 491.465 97.2084 491.687C97.2084 491.833 97.1884 491.987 97.1484 492.147C97.1084 492.307 97.0373 492.46 96.9351 492.607C96.8373 492.753 96.7018 492.887 96.5284 493.007C96.3595 493.122 96.1462 493.213 95.8884 493.28C96.404 493.369 96.8018 493.549 97.0818 493.82C97.3618 494.087 97.5018 494.44 97.5018 494.88C97.5018 495.209 97.4351 495.496 97.3018 495.74C97.1729 495.98 96.9929 496.182 96.7618 496.347C96.5351 496.511 96.2684 496.633 95.9618 496.713C95.6551 496.793 95.3262 496.833 94.9751 496.833H92.3751V490.08H94.8484ZM103.69 491.28C103.654 491.329 103.619 491.367 103.583 491.393C103.547 491.42 103.499 491.433 103.436 491.433C103.37 491.433 103.296 491.407 103.216 491.353C103.136 491.296 103.036 491.233 102.916 491.167C102.801 491.1 102.656 491.04 102.483 490.987C102.314 490.929 102.105 490.9 101.856 490.9C101.523 490.9 101.23 490.96 100.976 491.08C100.723 491.196 100.51 491.365 100.336 491.587C100.167 491.809 100.039 492.078 99.9497 492.393C99.8652 492.709 99.823 493.062 99.823 493.453C99.823 493.862 99.8697 494.227 99.963 494.547C100.056 494.862 100.187 495.129 100.356 495.347C100.53 495.56 100.736 495.725 100.976 495.84C101.221 495.951 101.494 496.007 101.796 496.007C102.085 496.007 102.323 495.973 102.51 495.907C102.696 495.836 102.85 495.758 102.97 495.673C103.094 495.589 103.196 495.513 103.276 495.447C103.361 495.376 103.443 495.34 103.523 495.34C103.621 495.34 103.696 495.378 103.75 495.453L104.083 495.887C103.936 496.069 103.77 496.225 103.583 496.353C103.396 496.482 103.194 496.591 102.976 496.68C102.763 496.765 102.539 496.827 102.303 496.867C102.067 496.907 101.827 496.927 101.583 496.927C101.161 496.927 100.767 496.849 100.403 496.693C100.043 496.538 99.7297 496.313 99.463 496.02C99.1963 495.722 98.9875 495.358 98.8363 494.927C98.6852 494.496 98.6097 494.005 98.6097 493.453C98.6097 492.951 98.6786 492.487 98.8163 492.06C98.9586 491.633 99.163 491.267 99.4297 490.96C99.7008 490.649 100.032 490.407 100.423 490.233C100.819 490.06 101.272 489.973 101.783 489.973C102.259 489.973 102.676 490.051 103.036 490.207C103.401 490.358 103.723 490.573 104.003 490.853L103.69 491.28ZM109.76 492.72C109.76 492.445 109.72 492.193 109.64 491.967C109.564 491.736 109.451 491.538 109.3 491.373C109.153 491.205 108.973 491.076 108.76 490.987C108.546 490.893 108.304 490.847 108.033 490.847C107.464 490.847 107.013 491.013 106.68 491.347C106.351 491.676 106.146 492.133 106.066 492.72H109.76ZM110.72 495.887C110.573 496.065 110.397 496.22 110.193 496.353C109.989 496.482 109.769 496.589 109.533 496.673C109.302 496.758 109.062 496.82 108.813 496.86C108.564 496.905 108.317 496.927 108.073 496.927C107.606 496.927 107.175 496.849 106.78 496.693C106.389 496.533 106.049 496.302 105.76 496C105.475 495.693 105.253 495.316 105.093 494.867C104.933 494.418 104.853 493.902 104.853 493.32C104.853 492.849 104.924 492.409 105.066 492C105.213 491.591 105.422 491.238 105.693 490.94C105.964 490.638 106.295 490.402 106.686 490.233C107.077 490.06 107.517 489.973 108.006 489.973C108.411 489.973 108.784 490.042 109.126 490.18C109.473 490.313 109.771 490.509 110.02 490.767C110.273 491.02 110.471 491.336 110.613 491.713C110.755 492.087 110.826 492.513 110.826 492.993C110.826 493.18 110.806 493.305 110.766 493.367C110.726 493.429 110.651 493.46 110.54 493.46H106.026C106.04 493.887 106.097 494.258 106.2 494.573C106.306 494.889 106.453 495.153 106.64 495.367C106.826 495.576 107.049 495.733 107.306 495.84C107.564 495.942 107.853 495.993 108.173 495.993C108.471 495.993 108.726 495.96 108.94 495.893C109.157 495.822 109.344 495.747 109.5 495.667C109.655 495.587 109.784 495.513 109.886 495.447C109.993 495.376 110.084 495.34 110.16 495.34C110.257 495.34 110.333 495.378 110.386 495.453L110.72 495.887ZM117.739 496.833H116.599C116.502 496.833 116.424 496.809 116.366 496.76C116.313 496.707 116.268 496.649 116.233 496.587L114.533 493.94C114.515 494.002 114.495 494.065 114.473 494.127C114.455 494.185 114.428 494.238 114.393 494.287L112.819 496.587C112.775 496.649 112.726 496.707 112.673 496.76C112.624 496.809 112.555 496.833 112.466 496.833H111.406L113.773 493.367L111.499 490.08H112.639C112.737 490.08 112.808 490.096 112.853 490.127C112.897 490.158 112.937 490.202 112.973 490.26L114.633 492.793C114.668 492.665 114.724 492.54 114.799 492.42L116.253 490.287C116.293 490.225 116.335 490.176 116.379 490.14C116.428 490.1 116.486 490.08 116.553 490.08H117.646L115.373 493.307L117.739 496.833ZM126.945 491.28C126.909 491.329 126.874 491.367 126.838 491.393C126.803 491.42 126.754 491.433 126.692 491.433C126.625 491.433 126.552 491.407 126.472 491.353C126.392 491.296 126.292 491.233 126.172 491.167C126.056 491.1 125.912 491.04 125.738 490.987C125.569 490.929 125.36 490.9 125.112 490.9C124.778 490.9 124.485 490.96 124.232 491.08C123.978 491.196 123.765 491.365 123.592 491.587C123.423 491.809 123.294 492.078 123.205 492.393C123.12 492.709 123.078 493.062 123.078 493.453C123.078 493.862 123.125 494.227 123.218 494.547C123.312 494.862 123.443 495.129 123.612 495.347C123.785 495.56 123.992 495.725 124.232 495.84C124.476 495.951 124.749 496.007 125.052 496.007C125.34 496.007 125.578 495.973 125.765 495.907C125.952 495.836 126.105 495.758 126.225 495.673C126.349 495.589 126.452 495.513 126.532 495.447C126.616 495.376 126.698 495.34 126.778 495.34C126.876 495.34 126.952 495.378 127.005 495.453L127.338 495.887C127.192 496.069 127.025 496.225 126.838 496.353C126.652 496.482 126.449 496.591 126.232 496.68C126.018 496.765 125.794 496.827 125.558 496.867C125.323 496.907 125.083 496.927 124.838 496.927C124.416 496.927 124.023 496.849 123.658 496.693C123.298 496.538 122.985 496.313 122.718 496.02C122.452 495.722 122.243 495.358 122.092 494.927C121.94 494.496 121.865 494.005 121.865 493.453C121.865 492.951 121.934 492.487 122.072 492.06C122.214 491.633 122.418 491.267 122.685 490.96C122.956 490.649 123.287 490.407 123.678 490.233C124.074 490.06 124.527 489.973 125.038 489.973C125.514 489.973 125.932 490.051 126.292 490.207C126.656 490.358 126.978 490.573 127.258 490.853L126.945 491.28ZM131.342 489.973C131.835 489.973 132.279 490.056 132.675 490.22C133.07 490.385 133.408 490.618 133.688 490.92C133.968 491.222 134.182 491.589 134.328 492.02C134.479 492.447 134.555 492.925 134.555 493.453C134.555 493.987 134.479 494.467 134.328 494.893C134.182 495.32 133.968 495.685 133.688 495.987C133.408 496.289 133.07 496.522 132.675 496.687C132.279 496.847 131.835 496.927 131.342 496.927C130.844 496.927 130.395 496.847 129.995 496.687C129.599 496.522 129.262 496.289 128.982 495.987C128.702 495.685 128.486 495.32 128.335 494.893C128.188 494.467 128.115 493.987 128.115 493.453C128.115 492.925 128.188 492.447 128.335 492.02C128.486 491.589 128.702 491.222 128.982 490.92C129.262 490.618 129.599 490.385 129.995 490.22C130.395 490.056 130.844 489.973 131.342 489.973ZM131.342 496C132.008 496 132.506 495.778 132.835 495.333C133.164 494.885 133.328 494.26 133.328 493.46C133.328 492.656 133.164 492.029 132.835 491.58C132.506 491.131 132.008 490.907 131.342 490.907C131.004 490.907 130.708 490.965 130.455 491.08C130.206 491.196 129.997 491.362 129.828 491.58C129.664 491.798 129.539 492.067 129.455 492.387C129.375 492.702 129.335 493.06 129.335 493.46C129.335 494.26 129.499 494.885 129.828 495.333C130.162 495.778 130.666 496 131.342 496ZM140.58 492.72C140.58 492.445 140.54 492.193 140.46 491.967C140.384 491.736 140.271 491.538 140.12 491.373C139.973 491.205 139.793 491.076 139.58 490.987C139.367 490.893 139.124 490.847 138.853 490.847C138.284 490.847 137.833 491.013 137.5 491.347C137.171 491.676 136.967 492.133 136.887 492.72H140.58ZM141.54 495.887C141.393 496.065 141.218 496.22 141.013 496.353C140.809 496.482 140.589 496.589 140.353 496.673C140.122 496.758 139.882 496.82 139.633 496.86C139.384 496.905 139.138 496.927 138.893 496.927C138.427 496.927 137.996 496.849 137.6 496.693C137.209 496.533 136.869 496.302 136.58 496C136.296 495.693 136.073 495.316 135.913 494.867C135.753 494.418 135.673 493.902 135.673 493.32C135.673 492.849 135.744 492.409 135.887 492C136.033 491.591 136.242 491.238 136.513 490.94C136.784 490.638 137.116 490.402 137.507 490.233C137.898 490.06 138.338 489.973 138.827 489.973C139.231 489.973 139.604 490.042 139.947 490.18C140.293 490.313 140.591 490.509 140.84 490.767C141.093 491.02 141.291 491.336 141.433 491.713C141.576 492.087 141.647 492.513 141.647 492.993C141.647 493.18 141.627 493.305 141.587 493.367C141.547 493.429 141.471 493.46 141.36 493.46H136.847C136.86 493.887 136.918 494.258 137.02 494.573C137.127 494.889 137.273 495.153 137.46 495.367C137.647 495.576 137.869 495.733 138.127 495.84C138.384 495.942 138.673 495.993 138.993 495.993C139.291 495.993 139.547 495.96 139.76 495.893C139.978 495.822 140.164 495.747 140.32 495.667C140.476 495.587 140.604 495.513 140.707 495.447C140.813 495.376 140.904 495.34 140.98 495.34C141.078 495.34 141.153 495.378 141.207 495.453L141.54 495.887ZM147.706 495.967V491.013H145.566C145.521 491.707 145.459 492.32 145.379 492.853C145.299 493.387 145.206 493.856 145.099 494.26C144.997 494.66 144.881 495 144.752 495.28C144.628 495.56 144.497 495.789 144.359 495.967H147.706ZM150.092 495.933V498.793C150.092 498.909 150.059 498.998 149.992 499.06C149.93 499.127 149.848 499.16 149.746 499.16H149.019V496.833H143.339V498.82C143.339 498.905 143.312 498.982 143.259 499.053C143.21 499.125 143.128 499.16 143.012 499.16H142.266V495.967H142.486C142.641 495.967 142.794 495.94 142.946 495.887C143.101 495.833 143.25 495.733 143.392 495.587C143.534 495.436 143.668 495.225 143.792 494.953C143.921 494.682 144.037 494.329 144.139 493.893C144.241 493.458 144.33 492.929 144.406 492.307C144.481 491.68 144.541 490.938 144.586 490.08H148.859V495.933H150.092ZM156.921 490.08V496.833H155.728V493.673H152.488V496.833H151.294V490.08H152.488V492.773H155.728V490.08H156.921ZM164.601 490.08V496.833H163.414V492.247C163.414 492.158 163.418 492.062 163.427 491.96C163.436 491.858 163.447 491.756 163.461 491.653C163.421 491.742 163.381 491.825 163.341 491.9C163.301 491.976 163.258 492.045 163.214 492.107L159.954 496.54C159.905 496.611 159.843 496.68 159.767 496.747C159.696 496.809 159.616 496.84 159.527 496.84H158.807V490.087H160.001V494.673C160.001 494.758 159.996 494.851 159.987 494.953C159.978 495.051 159.967 495.151 159.954 495.253C159.994 495.169 160.034 495.091 160.074 495.02C160.114 494.945 160.154 494.876 160.194 494.813L163.454 490.38C163.503 490.309 163.565 490.242 163.641 490.18C163.716 490.113 163.798 490.08 163.887 490.08H164.601ZM172.103 490.08V496.833H170.91V493.673H167.67V496.833H166.477V490.08H167.67V492.773H170.91V490.08H172.103ZM178.51 492.72C178.51 492.445 178.47 492.193 178.39 491.967C178.314 491.736 178.201 491.538 178.05 491.373C177.903 491.205 177.723 491.076 177.51 490.987C177.296 490.893 177.054 490.847 176.783 490.847C176.214 490.847 175.763 491.013 175.43 491.347C175.101 491.676 174.896 492.133 174.816 492.72H178.51ZM179.47 495.887C179.323 496.065 179.147 496.22 178.943 496.353C178.739 496.482 178.519 496.589 178.283 496.673C178.052 496.758 177.812 496.82 177.563 496.86C177.314 496.905 177.067 496.927 176.823 496.927C176.356 496.927 175.925 496.849 175.53 496.693C175.139 496.533 174.799 496.302 174.51 496C174.225 495.693 174.003 495.316 173.843 494.867C173.683 494.418 173.603 493.902 173.603 493.32C173.603 492.849 173.674 492.409 173.816 492C173.963 491.591 174.172 491.238 174.443 490.94C174.714 490.638 175.045 490.402 175.436 490.233C175.827 490.06 176.267 489.973 176.756 489.973C177.161 489.973 177.534 490.042 177.876 490.18C178.223 490.313 178.521 490.509 178.77 490.767C179.023 491.02 179.221 491.336 179.363 491.713C179.505 492.087 179.576 492.513 179.576 492.993C179.576 493.18 179.556 493.305 179.516 493.367C179.476 493.429 179.401 493.46 179.29 493.46H174.776C174.79 493.887 174.847 494.258 174.95 494.573C175.056 494.889 175.203 495.153 175.39 495.367C175.576 495.576 175.799 495.733 176.056 495.84C176.314 495.942 176.603 495.993 176.923 495.993C177.221 495.993 177.476 495.96 177.69 495.893C177.907 495.822 178.094 495.747 178.25 495.667C178.405 495.587 178.534 495.513 178.636 495.447C178.743 495.376 178.834 495.34 178.91 495.34C179.007 495.34 179.083 495.378 179.136 495.453L179.47 495.887ZM186.661 490.08V496.833H185.467V493.673H182.227V496.833H181.034V490.08H182.227V492.773H185.467V490.08H186.661ZM194.34 490.08V496.833H193.154V492.247C193.154 492.158 193.158 492.062 193.167 491.96C193.176 491.858 193.187 491.756 193.2 491.653C193.16 491.742 193.12 491.825 193.08 491.9C193.04 491.976 192.998 492.045 192.954 492.107L189.694 496.54C189.645 496.611 189.583 496.68 189.507 496.747C189.436 496.809 189.356 496.84 189.267 496.84H188.547V490.087H189.74V494.673C189.74 494.758 189.736 494.851 189.727 494.953C189.718 495.051 189.707 495.151 189.694 495.253C189.734 495.169 189.774 495.091 189.814 495.02C189.854 494.945 189.894 494.876 189.934 494.813L193.194 490.38C193.243 490.309 193.305 490.242 193.38 490.18C193.456 490.113 193.538 490.08 193.627 490.08H194.34ZM202.01 490.08V496.833H200.823V492.247C200.823 492.158 200.827 492.062 200.836 491.96C200.845 491.858 200.856 491.756 200.87 491.653C200.83 491.742 200.79 491.825 200.75 491.9C200.71 491.976 200.667 492.045 200.623 492.107L197.363 496.54C197.314 496.611 197.252 496.68 197.176 496.747C197.105 496.809 197.025 496.84 196.936 496.84H196.216V490.087H197.41V494.673C197.41 494.758 197.405 494.851 197.396 494.953C197.387 495.051 197.376 495.151 197.363 495.253C197.403 495.169 197.443 495.091 197.483 495.02C197.523 494.945 197.563 494.876 197.603 494.813L200.863 490.38C200.912 490.309 200.974 490.242 201.05 490.18C201.125 490.113 201.207 490.08 201.296 490.08H202.01ZM199.19 488.447C199.372 488.447 199.525 488.427 199.65 488.387C199.774 488.342 199.874 488.273 199.95 488.18C200.03 488.087 200.087 487.967 200.123 487.82C200.158 487.673 200.176 487.493 200.176 487.28H200.87C200.954 487.28 201.018 487.318 201.063 487.393C201.107 487.469 201.13 487.551 201.13 487.64C201.13 487.862 201.085 488.062 200.996 488.24C200.907 488.418 200.778 488.571 200.61 488.7C200.445 488.825 200.243 488.92 200.003 488.987C199.763 489.053 199.492 489.087 199.19 489.087C198.887 489.087 198.616 489.053 198.376 488.987C198.136 488.92 197.932 488.825 197.763 488.7C197.598 488.571 197.472 488.418 197.383 488.24C197.294 488.062 197.25 487.862 197.25 487.64C197.25 487.551 197.272 487.469 197.316 487.393C197.361 487.318 197.425 487.28 197.51 487.28H198.203C198.203 487.493 198.221 487.673 198.256 487.82C198.292 487.967 198.347 488.087 198.423 488.18C198.503 488.273 198.605 488.342 198.73 488.387C198.854 488.427 199.007 488.447 199.19 488.447Z" fill="#100A44"/>
<path d="M48.1669 499.667C52.309 499.667 55.6669 496.309 55.6669 492.167C55.6669 488.025 52.309 484.667 48.1669 484.667C44.0247 484.667 40.6669 488.025 40.6669 492.167C40.6669 496.309 44.0247 499.667 48.1669 499.667Z" fill="white" stroke="#323130" stroke-width="0.833333"/>
<line x1="40.6669" y1="429.25" x2="340.667" y2="429.25" stroke="#DDDDDD" stroke-width="0.833333"/>
<path d="M151.317 271H150.017V262.467H145.244V271H143.951V261.447H151.317V271ZM156.114 264.14C156.607 264.14 157.052 264.222 157.447 264.387C157.843 264.551 158.18 264.784 158.46 265.087C158.74 265.389 158.954 265.756 159.1 266.187C159.252 266.613 159.327 267.091 159.327 267.62C159.327 268.153 159.252 268.633 159.1 269.06C158.954 269.487 158.74 269.851 158.46 270.153C158.18 270.456 157.843 270.689 157.447 270.853C157.052 271.013 156.607 271.093 156.114 271.093C155.616 271.093 155.167 271.013 154.767 270.853C154.372 270.689 154.034 270.456 153.754 270.153C153.474 269.851 153.258 269.487 153.107 269.06C152.96 268.633 152.887 268.153 152.887 267.62C152.887 267.091 152.96 266.613 153.107 266.187C153.258 265.756 153.474 265.389 153.754 265.087C154.034 264.784 154.372 264.551 154.767 264.387C155.167 264.222 155.616 264.14 156.114 264.14ZM156.114 270.167C156.78 270.167 157.278 269.944 157.607 269.5C157.936 269.051 158.1 268.427 158.1 267.627C158.1 266.822 157.936 266.196 157.607 265.747C157.278 265.298 156.78 265.073 156.114 265.073C155.776 265.073 155.48 265.131 155.227 265.247C154.978 265.362 154.769 265.529 154.6 265.747C154.436 265.964 154.312 266.233 154.227 266.553C154.147 266.869 154.107 267.227 154.107 267.627C154.107 268.427 154.272 269.051 154.6 269.5C154.934 269.944 155.438 270.167 156.114 270.167ZM165.238 270.133V265.18H163.098C163.054 265.873 162.991 266.487 162.911 267.02C162.831 267.553 162.738 268.022 162.631 268.427C162.529 268.827 162.414 269.167 162.285 269.447C162.16 269.727 162.029 269.956 161.891 270.133H165.238ZM167.625 270.1V272.96C167.625 273.076 167.591 273.164 167.525 273.227C167.463 273.293 167.38 273.327 167.278 273.327H166.551V271H160.871V272.987C160.871 273.071 160.845 273.149 160.791 273.22C160.743 273.291 160.66 273.327 160.545 273.327H159.798V270.133H160.018C160.174 270.133 160.327 270.107 160.478 270.053C160.634 270 160.783 269.9 160.925 269.753C161.067 269.602 161.2 269.391 161.325 269.12C161.454 268.849 161.569 268.496 161.671 268.06C161.774 267.624 161.863 267.096 161.938 266.473C162.014 265.847 162.074 265.104 162.118 264.247H166.391V270.1H167.625ZM172.927 264.58C172.989 264.482 173.071 264.402 173.174 264.34C173.276 264.278 173.385 264.247 173.5 264.247H174.427L172.674 266.82C172.567 266.984 172.456 267.12 172.34 267.227C172.225 267.329 172.083 267.409 171.914 267.467C172.127 267.524 172.307 267.616 172.454 267.74C172.6 267.86 172.731 268.016 172.847 268.207L174.62 271H173.794C173.58 271 173.416 270.964 173.3 270.893C173.185 270.822 173.085 270.72 173 270.587L171.687 268.487C171.478 268.14 171.165 267.967 170.747 267.967H170.02V271.007H168.827V264.247H170.02V267.167H170.66C171.016 267.167 171.294 267.016 171.494 266.713L172.927 264.58ZM181.648 271H180.461V265.18H178.328C178.275 266.038 178.195 266.78 178.088 267.407C177.981 268.029 177.852 268.56 177.701 269C177.555 269.436 177.388 269.791 177.201 270.067C177.019 270.338 176.826 270.549 176.621 270.7C176.421 270.851 176.212 270.953 175.995 271.007C175.781 271.06 175.568 271.087 175.355 271.087C174.977 271.087 174.788 271.027 174.788 270.907V270.153H175.135C175.286 270.153 175.439 270.127 175.595 270.073C175.75 270.02 175.901 269.918 176.048 269.767C176.199 269.616 176.344 269.404 176.481 269.133C176.619 268.858 176.744 268.502 176.855 268.067C176.97 267.627 177.068 267.096 177.148 266.473C177.232 265.847 177.297 265.104 177.341 264.247H181.648V271ZM189.381 270.167C190.003 270.167 190.468 269.944 190.774 269.5C191.081 269.051 191.234 268.427 191.234 267.627C191.234 266.822 191.081 266.196 190.774 265.747C190.468 265.298 190.003 265.073 189.381 265.073C188.759 265.073 188.294 265.298 187.988 265.747C187.681 266.196 187.528 266.822 187.528 267.627C187.528 268.427 187.681 269.051 187.988 269.5C188.294 269.944 188.759 270.167 189.381 270.167ZM186.361 267.16C186.401 266.698 186.496 266.28 186.648 265.907C186.803 265.533 187.01 265.216 187.268 264.953C187.53 264.691 187.836 264.491 188.188 264.353C188.543 264.211 188.941 264.14 189.381 264.14C189.852 264.14 190.276 264.222 190.654 264.387C191.036 264.551 191.361 264.784 191.628 265.087C191.894 265.389 192.099 265.756 192.241 266.187C192.388 266.613 192.461 267.091 192.461 267.62C192.461 268.153 192.388 268.633 192.241 269.06C192.094 269.487 191.885 269.851 191.614 270.153C191.343 270.456 191.019 270.689 190.641 270.853C190.263 271.013 189.843 271.093 189.381 271.093C188.932 271.093 188.528 271.022 188.168 270.88C187.812 270.738 187.505 270.536 187.248 270.273C186.99 270.007 186.783 269.684 186.628 269.307C186.476 268.929 186.385 268.502 186.354 268.027H184.721V271H183.528V264.247H184.721V267.16H186.361ZM198.937 264.247V271H197.751V268.133C197.173 268.284 196.628 268.38 196.117 268.42C195.611 268.456 195.166 268.416 194.784 268.3C194.406 268.184 194.106 267.982 193.884 267.693C193.666 267.4 193.557 266.996 193.557 266.48V264.247H194.751V266.3C194.751 266.624 194.815 266.88 194.944 267.067C195.077 267.253 195.271 267.382 195.524 267.453C195.777 267.524 196.091 267.544 196.464 267.513C196.837 267.482 197.266 267.409 197.751 267.293V264.247H198.937ZM205.339 266.887C205.339 266.611 205.299 266.36 205.219 266.133C205.144 265.902 205.03 265.704 204.879 265.54C204.733 265.371 204.553 265.242 204.339 265.153C204.126 265.06 203.884 265.013 203.613 265.013C203.044 265.013 202.593 265.18 202.259 265.513C201.93 265.842 201.726 266.3 201.646 266.887H205.339ZM206.299 270.053C206.153 270.231 205.977 270.387 205.773 270.52C205.568 270.649 205.348 270.756 205.113 270.84C204.881 270.924 204.641 270.987 204.393 271.027C204.144 271.071 203.897 271.093 203.653 271.093C203.186 271.093 202.755 271.016 202.359 270.86C201.968 270.7 201.628 270.469 201.339 270.167C201.055 269.86 200.833 269.482 200.673 269.033C200.513 268.584 200.433 268.069 200.433 267.487C200.433 267.016 200.504 266.576 200.646 266.167C200.793 265.758 201.001 265.404 201.273 265.107C201.544 264.804 201.875 264.569 202.266 264.4C202.657 264.227 203.097 264.14 203.586 264.14C203.99 264.14 204.364 264.209 204.706 264.347C205.053 264.48 205.35 264.676 205.599 264.933C205.853 265.187 206.05 265.502 206.193 265.88C206.335 266.253 206.406 266.68 206.406 267.16C206.406 267.347 206.386 267.471 206.346 267.533C206.306 267.596 206.23 267.627 206.119 267.627H201.606C201.619 268.053 201.677 268.424 201.779 268.74C201.886 269.056 202.033 269.32 202.219 269.533C202.406 269.742 202.628 269.9 202.886 270.007C203.144 270.109 203.433 270.16 203.753 270.16C204.05 270.16 204.306 270.127 204.519 270.06C204.737 269.989 204.924 269.913 205.079 269.833C205.235 269.753 205.364 269.68 205.466 269.613C205.573 269.542 205.664 269.507 205.739 269.507C205.837 269.507 205.913 269.544 205.966 269.62L206.299 270.053ZM213.49 264.247V271H212.297V267.84H209.057V271H207.863V264.247H209.057V266.94H212.297V264.247H213.49ZM221.17 264.247V271H219.983V266.413C219.983 266.324 219.988 266.229 219.996 266.127C220.005 266.024 220.016 265.922 220.03 265.82C219.99 265.909 219.95 265.991 219.91 266.067C219.87 266.142 219.828 266.211 219.783 266.273L216.523 270.707C216.474 270.778 216.412 270.847 216.336 270.913C216.265 270.976 216.185 271.007 216.096 271.007H215.376V264.253H216.57V268.84C216.57 268.924 216.565 269.018 216.556 269.12C216.548 269.218 216.536 269.318 216.523 269.42C216.563 269.336 216.603 269.258 216.643 269.187C216.683 269.111 216.723 269.042 216.763 268.98L220.023 264.547C220.072 264.476 220.134 264.409 220.21 264.347C220.285 264.28 220.368 264.247 220.456 264.247H221.17ZM227.566 266.887C227.566 266.611 227.526 266.36 227.446 266.133C227.37 265.902 227.257 265.704 227.106 265.54C226.959 265.371 226.779 265.242 226.566 265.153C226.352 265.06 226.11 265.013 225.839 265.013C225.27 265.013 224.819 265.18 224.486 265.513C224.157 265.842 223.952 266.3 223.872 266.887H227.566ZM228.526 270.053C228.379 270.231 228.204 270.387 227.999 270.52C227.795 270.649 227.575 270.756 227.339 270.84C227.108 270.924 226.868 270.987 226.619 271.027C226.37 271.071 226.124 271.093 225.879 271.093C225.412 271.093 224.981 271.016 224.586 270.86C224.195 270.7 223.855 270.469 223.566 270.167C223.281 269.86 223.059 269.482 222.899 269.033C222.739 268.584 222.659 268.069 222.659 267.487C222.659 267.016 222.73 266.576 222.872 266.167C223.019 265.758 223.228 265.404 223.499 265.107C223.77 264.804 224.101 264.569 224.492 264.4C224.884 264.227 225.324 264.14 225.812 264.14C226.217 264.14 226.59 264.209 226.932 264.347C227.279 264.48 227.577 264.676 227.826 264.933C228.079 265.187 228.277 265.502 228.419 265.88C228.561 266.253 228.632 266.68 228.632 267.16C228.632 267.347 228.612 267.471 228.572 267.533C228.532 267.596 228.457 267.627 228.346 267.627H223.832C223.846 268.053 223.904 268.424 224.006 268.74C224.112 269.056 224.259 269.32 224.446 269.533C224.632 269.742 224.855 269.9 225.112 270.007C225.37 270.109 225.659 270.16 225.979 270.16C226.277 270.16 226.532 270.127 226.746 270.06C226.964 269.989 227.15 269.913 227.306 269.833C227.461 269.753 227.59 269.68 227.692 269.613C227.799 269.542 227.89 269.507 227.966 269.507C228.064 269.507 228.139 269.544 228.192 269.62L228.526 270.053ZM229.89 270.267C229.89 270.151 229.91 270.042 229.95 269.94C229.994 269.838 230.052 269.749 230.123 269.673C230.199 269.598 230.288 269.538 230.39 269.493C230.492 269.449 230.601 269.427 230.717 269.427C230.832 269.427 230.941 269.449 231.043 269.493C231.146 269.538 231.234 269.598 231.31 269.673C231.386 269.749 231.446 269.838 231.49 269.94C231.534 270.042 231.557 270.151 231.557 270.267C231.557 270.387 231.534 270.498 231.49 270.6C231.446 270.698 231.386 270.784 231.31 270.86C231.234 270.936 231.146 270.993 231.043 271.033C230.941 271.078 230.832 271.1 230.717 271.1C230.601 271.1 230.492 271.078 230.39 271.033C230.288 270.993 230.199 270.936 230.123 270.86C230.052 270.784 229.994 270.698 229.95 270.6C229.91 270.498 229.89 270.387 229.89 270.267ZM233.041 270.267C233.041 270.151 233.061 270.042 233.101 269.94C233.146 269.838 233.203 269.749 233.274 269.673C233.35 269.598 233.439 269.538 233.541 269.493C233.643 269.449 233.752 269.427 233.868 269.427C233.983 269.427 234.092 269.449 234.194 269.493C234.297 269.538 234.386 269.598 234.461 269.673C234.537 269.749 234.597 269.838 234.641 269.94C234.686 270.042 234.708 270.151 234.708 270.267C234.708 270.387 234.686 270.498 234.641 270.6C234.597 270.698 234.537 270.784 234.461 270.86C234.386 270.936 234.297 270.993 234.194 271.033C234.092 271.078 233.983 271.1 233.868 271.1C233.752 271.1 233.643 271.078 233.541 271.033C233.439 270.993 233.35 270.936 233.274 270.86C233.203 270.784 233.146 270.698 233.101 270.6C233.061 270.498 233.041 270.387 233.041 270.267ZM236.192 270.267C236.192 270.151 236.212 270.042 236.252 269.94C236.297 269.838 236.354 269.749 236.425 269.673C236.501 269.598 236.59 269.538 236.692 269.493C236.794 269.449 236.903 269.427 237.019 269.427C237.134 269.427 237.243 269.449 237.345 269.493C237.448 269.538 237.537 269.598 237.612 269.673C237.688 269.749 237.748 269.838 237.792 269.94C237.837 270.042 237.859 270.151 237.859 270.267C237.859 270.387 237.837 270.498 237.792 270.6C237.748 270.698 237.688 270.784 237.612 270.86C237.537 270.936 237.448 270.993 237.345 271.033C237.243 271.078 237.134 271.1 237.019 271.1C236.903 271.1 236.794 271.078 236.692 271.033C236.59 270.993 236.501 270.936 236.425 270.86C236.354 270.784 236.297 270.698 236.252 270.6C236.212 270.498 236.192 270.387 236.192 270.267Z" fill="#100A44"/>
<g filter="url(#filter1_d)">
<ellipse cx="190.667" cy="124.667" rx="58.3333" ry="58.3333" fill="url(#paint0_radial)"/>
</g>
<rect x="157.334" y="216.333" width="66.6667" height="33.3333" rx="16.6667" fill="#15CDCB"/>
<path fill-rule="evenodd" clip-rule="evenodd" d="M207.334 243C212.856 243 217.334 238.523 217.334 233C217.334 227.477 212.856 223 207.334 223C201.811 223 197.334 227.477 197.334 233C197.334 238.523 201.811 243 207.334 243Z" fill="white"/>
</g>
</g>
<defs>
<filter id="filter0_ddd" x="0.000244141" y="0" width="381.333" height="648" filterUnits="userSpaceOnUse" color-interpolation-filters="sRGB">
<feFlood flood-opacity="0" result="BackgroundImageFix"/>
<feColorMatrix in="SourceAlpha" type="matrix" values="0 0 0 0 0 0 0 0 0 0 0 0 0 0 0 0 0 0 127 0"/>
<feOffset/>
<feGaussianBlur stdDeviation="0.5"/>
<feColorMatrix type="matrix" values="0 0 0 0 0 0 0 0 0 0 0 0 0 0 0 0 0 0 0.04 0"/>
<feBlend mode="normal" in2="BackgroundImageFix" result="effect1_dropShadow"/>
<feColorMatrix in="SourceAlpha" type="matrix" values="0 0 0 0 0 0 0 0 0 0 0 0 0 0 0 0 0 0 127 0"/>
<feOffset dy="2"/>
<feGaussianBlur stdDeviation="3"/>
<feColorMatrix type="matrix" values="0 0 0 0 0 0 0 0 0 0 0 0 0 0 0 0 0 0 0.04 0"/>
<feBlend mode="normal" in2="effect1_dropShadow" result="effect2_dropShadow"/>
<feColorMatrix in="SourceAlpha" type="matrix" values="0 0 0 0 0 0 0 0 0 0 0 0 0 0 0 0 0 0 127 0"/>
<feOffset dy="16"/>
<feGaussianBlur stdDeviation="12"/>
<feColorMatrix type="matrix" values="0 0 0 0 0 0 0 0 0 0 0 0 0 0 0 0 0 0 0.06 0"/>
<feBlend mode="normal" in2="effect2_dropShadow" result="effect3_dropShadow"/>
<feBlend mode="normal" in="SourceGraphic" in2="effect3_dropShadow" result="shape"/>
</filter>
<filter id="filter1_d" x="119.834" y="57.9999" width="141.667" height="141.667" filterUnits="userSpaceOnUse" color-interpolation-filters="sRGB">
<feFlood flood-opacity="0" result="BackgroundImageFix"/>
<feColorMatrix in="SourceAlpha" type="matrix" values="0 0 0 0 0 0 0 0 0 0 0 0 0 0 0 0 0 0 127 0"/>
<feOffset dy="4.16667"/>
<feGaussianBlur stdDeviation="6.25"/>
<feColorMatrix type="matrix" values="0 0 0 0 0 0 0 0 0 0 0 0 0 0 0 0 0 0 0.15 0"/>
<feBlend mode="normal" in2="BackgroundImageFix" result="effect1_dropShadow"/>
<feBlend mode="normal" in="SourceGraphic" in2="effect1_dropShadow" result="shape"/>
</filter>
<radialGradient id="paint0_radial" cx="0" cy="0" r="1" gradientUnits="userSpaceOnUse" gradientTransform="translate(153.686 81.4968) rotate(48.1522) scale(113.412)">
<stop stop-color="#3F54D1"/>
<stop offset="0.401042" stop-color="#5280E2"/>
<stop offset="0.770833" stop-color="#15CDCB"/>
<stop offset="1" stop-color="#4FE0B5"/>
</radialGradient>
<clipPath id="clip0">
<rect x="24.0002" y="8" width="333.333" height="600" rx="5" fill="white"/>
</clipPath>
<clipPath id="clip1">
<rect width="20" height="20" fill="white" transform="translate(320.667 49.6667)"/>
</clipPath>
</defs>
</svg>
