<svg width="840" height="897" viewBox="0 0 840 897" fill="none" xmlns="http://www.w3.org/2000/svg">
<path fill-rule="evenodd" clip-rule="evenodd" d="M1180.98 319.307C1179.8 420.496 1156 538.926 1071.4 594.446C987.367 649.587 877.931 582.424 777.44 584.115C699.412 585.428 623.819 628.1 549.851 603.222C470.667 576.59 404.135 517.919 363.535 444.905C322.504 371.115 297.95 280.305 326.017 200.676C352.614 125.221 443.372 100.737 503.465 47.9186C556.568 1.24384 589.598 -70.0233 657.273 -90.4807C728.638 -112.053 803.858 -89.7121 873.855 -64.045C950.985 -35.7619 1026.21 -0.47467 1077.57 63.6398C1136.49 137.184 1182.07 225.079 1180.98 319.307Z" fill="white"/>
<path fill-rule="evenodd" clip-rule="evenodd" d="M884.044 -232.766C976.98 -160.398 1044.49 -50.1158 1034.96 67.2871C1025.42 184.896 983.373 456.808 884.044 520.5C787.629 582.323 721.5 472.5 516.541 399.708C411.393 362.364 332 287.5 343.306 168C336.663 148.595 398.101 32.4764 285.5 17.5C184 4 92.401 -102.811 145.5 -196.5C199.109 -291.089 524.604 -382.105 632.5 -395.5C736.975 -408.47 800.98 -297.447 884.044 -232.766Z" fill="white"/>
<path fill-rule="evenodd" clip-rule="evenodd" d="M1460.75 -100.618C1548.4 18.631 1682.19 151.478 1640.47 293.467C1598.61 435.929 1390.65 435.59 1275.63 529.466C1159.33 624.373 1120.41 712.867 970.5 720.5C820.635 728.131 745.322 606.821 629 512C529.42 430.826 377.312 449.151 335.73 327.588C294.325 206.543 388.11 86.5086 424.701 -36.071C460.055 -154.505 465.619 -282.968 546.009 -376.842C636.883 -482.959 757.688 -601.777 896.631 -587.159C1036.22 -572.474 1091.92 -399.902 1198.21 -308.226C1284.82 -233.53 1393.02 -192.773 1460.75 -100.618Z" fill="white"/>
<g style="mix-blend-mode:multiply">
<path fill-rule="evenodd" clip-rule="evenodd" d="M1180.98 319.307C1179.8 420.496 1156 538.926 1071.4 594.446C987.367 649.587 877.931 582.424 777.44 584.115C699.412 585.428 623.819 628.1 549.851 603.222C470.667 576.59 404.135 517.919 363.535 444.905C322.504 371.115 297.95 280.305 326.017 200.676C352.614 125.221 443.373 100.737 503.465 47.9187C556.568 1.24383 589.598 -70.0233 657.273 -90.4807C728.638 -112.053 803.858 -89.7121 873.855 -64.045C950.985 -35.7619 1026.21 -0.474688 1077.57 63.6398C1136.49 137.184 1182.07 225.079 1180.98 319.307Z" fill="url(#paint0_radial)"/>
<path fill-rule="evenodd" clip-rule="evenodd" d="M1180.98 319.307C1179.8 420.496 1156 538.926 1071.4 594.446C987.367 649.587 877.931 582.424 777.44 584.115C699.412 585.428 623.819 628.1 549.851 603.222C470.667 576.59 404.135 517.919 363.535 444.905C322.504 371.115 297.95 280.305 326.017 200.676C352.614 125.221 443.373 100.737 503.465 47.9187C556.568 1.24383 589.598 -70.0233 657.273 -90.4807C728.638 -112.053 803.858 -89.7121 873.855 -64.045C950.985 -35.7619 1026.21 -0.474688 1077.57 63.6398C1136.49 137.184 1182.07 225.079 1180.98 319.307Z" fill="url(#paint1_radial)"/>
</g>
<g style="mix-blend-mode:multiply">
<path fill-rule="evenodd" clip-rule="evenodd" d="M884.044 -232.766C976.98 -160.398 1044.49 -50.1157 1034.96 67.2871C1025.42 184.896 983.373 456.808 884.044 520.5C787.629 582.322 721.5 472.5 516.541 399.708C411.393 362.364 332 287.5 343.306 168C336.663 148.595 398.101 32.4765 285.5 17.5C184 4.00003 92.4009 -102.811 145.5 -196.5C199.109 -291.089 524.604 -382.105 632.5 -395.5C736.975 -408.47 800.98 -297.447 884.044 -232.766Z" fill="url(#paint2_radial)"/>
</g>
<g style="mix-blend-mode:multiply">
<path fill-rule="evenodd" clip-rule="evenodd" d="M1460.75 -100.618C1548.4 18.631 1682.19 151.478 1640.47 293.467C1598.61 435.929 1390.65 435.59 1275.63 529.466C1159.34 624.373 1120.41 712.867 970.5 720.5C820.634 728.131 745.322 606.821 629 512C529.42 430.826 377.312 449.151 335.73 327.588C294.325 206.543 388.11 86.5086 424.701 -36.071C460.055 -154.505 465.619 -282.968 546.009 -376.842C636.883 -482.959 757.688 -601.777 896.631 -587.159C1036.22 -572.474 1091.92 -399.902 1198.21 -308.226C1284.82 -233.53 1393.02 -192.773 1460.75 -100.618Z" fill="url(#paint3_radial)"/>
</g>
<defs>
<radialGradient id="paint0_radial" cx="0" cy="0" r="1" gradientUnits="userSpaceOnUse" gradientTransform="translate(760.14 223.116) rotate(-174.253) scale(360.3 434.164)">
<stop stop-color="#CB8AEA"/>
<stop offset="1" stop-color="#FAD0C4"/>
</radialGradient>
<radialGradient id="paint1_radial" cx="0" cy="0" r="1" gradientUnits="userSpaceOnUse" gradientTransform="translate(353 175) rotate(31.3119) scale(761.982 734.062)">
<stop offset="0.0153209" stop-color="#3F54D1"/>
<stop offset="0.401042" stop-color="#5280E2"/>
<stop offset="0.770833" stop-color="#15CDCB"/>
<stop offset="1" stop-color="#4FE0B5"/>
</radialGradient>
<radialGradient id="paint2_radial" cx="0" cy="0" r="1" gradientUnits="userSpaceOnUse" gradientTransform="translate(583.352 -141.963) rotate(52.7809) scale(541.153 520.141)">
<stop stop-color="#667EEA"/>
<stop offset="1" stop-color="#764BA2"/>
</radialGradient>
<radialGradient id="paint3_radial" cx="0" cy="0" r="1" gradientUnits="userSpaceOnUse" gradientTransform="translate(601.404 67.626) rotate(41.3273) scale(815.877 745.101)">
<stop stop-color="#FF9A9E"/>
<stop offset="0.99" stop-color="#FAD0C4"/>
<stop offset="1" stop-color="#FAD0C4"/>
</radialGradient>
</defs>
</svg>
